<ttFont>
          <CharString index="0">
            rmoveto
            142 -10 hlineto
            -82 -33 -84 -142 vhcurveto
            -93 hlineto
            -23 -27 27 32 107 -18 callsubr
            hvcurveto
            62 vmoveto
            -151 -87 -30 -144 -78 48 -48 64 hvcurveto
            93 hlineto
            70 64 17 39 41 hvcurveto
            -23 vlineto
            -13 callgsubr
            65 callgsubr
            302 vlineto
            90 -21 38 -84 vhcurveto
            -155 hlineto
            -105 -77 -32 -85 -34 -63 callsubr
            17 23 33 29 22 98 hvcurveto
            141 hlineto
            40 10 -13 -36 hvcurveto
            -50 vlineto
            return
          </CharString>
          <CharString index="1">
            152 85 28 149 hvcurveto
            107 vlineto
            -94 callgsubr
            62 vmoveto
            -89 callgsubr
            -81 callsubr
            -70 callgsubr
            return
          </CharString>
          <CharString index="2">
            96 115 rlineto
            7 8 3 9 8 vvcurveto
            -103 callsubr
            return
          </CharString>
          <CharString index="3">
            rmoveto
            -72 hlineto
            -232 -605 rlineto
            -2 -6 -1 -6 -5 vvcurveto
            -24 23 -6 8 13 12 10 16 7 vhcurveto
            70 184 rlineto
            276 hlineto
            70 -184 rlineto
            -16 6 11 -10 15 hhcurveto
            8 23 6 24 5 -1 6 -2 6 hvcurveto
            -154 225 rmoveto
            -228 hlineto
            113 290 rlineto
            return
          </CharString>
          <CharString index="4">
            19 -16 12 -14 -10 -9 -6 -11 -10 vhcurveto
            -96 -115 rlineto
            -6 -7 -4 -9 -10 -33 callsubr
            10 9 6 11 10 vhcurveto
            return
          </CharString>
          <CharString index="5">
            -29 hlineto
            -153 -71 callgsubr
            -74 callsubr
            153 vhcurveto
            return
          </CharString>
          <CharString index="6">
            hlineto
            119 34 51 78 67 -28 71 -105 hvcurveto
            -237 hlineto
            -30 -24 23 47 46 21 16 33 hvcurveto
            256 hlineto
            38 12 -13 -44 -32 19 -6 12 2 callsubr
            56 -12 61 -93 hvcurveto
            -225 hlineto
            -122 -32 -49 -75 -73 35 -59 99 hvcurveto
            236 hlineto
            32 22 -31 -45 -34 -11 -33 -43 hvcurveto
            -258 93 callsubr
            42 20 -6 18 -25 -19 -12 -11 -30 -56 100 callgsubr
            endchar
          </CharString>
          <CharString index="7">
            rmoveto
            -279 vlineto
            -28 18 -7 14 26 7 18 17 vhcurveto
            279 vlineto
            211 283 rlineto
            4 6 5 8 9 35 callgsubr
            -7 -10 -4 -16 -13 vhcurveto
            -193 -261 -194 261 rlineto
            11 -8 -9 9 -12 hhcurveto
            -13 -17 -12 -18 -9 5 -8 4 -6 hvcurveto
            return
          </CharString>
          <CharString index="8">
            rmoveto
            13 -13 -9 2 -6 hhcurveto
            -16 -15 -17 -13 -11 6 -8 8 -9 hvcurveto
            69 -68 rlineto
            -10 9 10 -5 10 hhcurveto
            18 12 16 13 11 -5 8 -8 9 hvcurveto
            return
          </CharString>
          <CharString index="9">
            -97 callgsubr
            hintmask 00100100
            -80 callsubr
            hintmask 00010100
            -84 callsubr
            hintmask 00100100
            -94 callsubr
            hintmask 00010100
            -80 callgsubr
            hintmask 00100100
            -78 callsubr
            return
          </CharString>
          <CharString index="10">
            -19 callsubr
            -118 -118 -62 66 112 vhcurveto
            return
          </CharString>
          <CharString index="11">
            1 6 -2 5 hhcurveto
            8 6 3 5 5 hvcurveto
            47 39 rlineto
            10 9 4 10 8 vvcurveto
            15 -14 8 -12 -9 -6 -4 -5 -7 vhcurveto
            -31 -28 rlineto
            -3 -4 -2 -1 -2 hhcurveto
            -189 -179 rmoveto
            -3 -3 -3 -9 -6 vvcurveto
            -7 2 -16 21 14 10 11 9 9 vhcurveto
            85 81 86 -81 rlineto
            -10 10 9 -10 14 hhcurveto
            21 2 16 7 6 -3 9 -3 3 hvcurveto
            -107 117 rlineto
            -59 hlineto
            return
          </CharString>
          <CharString index="12">
            298 238 -107 callsubr
            return
          </CharString>
          <CharString index="13">
            -2 4 4 0 6 hhcurveto
            8 8 5 5 7 hvcurveto
            45 38 rlineto
            10 8 6 10 12 vvcurveto
            return
          </CharString>
          <CharString index="14">
            hmoveto
            28 -35 18 -21 -22 -34 -18 -28 -28 32 -18 24 22 34 -35 callsubr
            return
          </CharString>
          <CharString index="15">
            rmoveto
            -96 80 -25 45 42 83 25 96 vhcurveto
            -63 hlineto
            -25 -12 -32 -50 -50 -12 32 25 vhcurveto
            return
          </CharString>
          <CharString index="16">
            -73 callsubr
            -89 callgsubr
            134 hlineto
            38 12 -13 -44 -32 19 -6 12 2 callsubr
            56 -12 61 -93 hvcurveto
            -11 callsubr
            return
          </CharString>
          <CharString index="17">
            rmoveto
            24 6 18 20 hvcurveto
            573 55 callsubr
            -12 -18 -5 -36 vhcurveto
            -495 vlineto
            -359 515 rlineto
            15 -10 -10 6 -14 hhcurveto
            -23 -6 -19 -20 hvcurveto
            -573 vlineto
            -27 -7 callsubr
            25 6 16 20 101 callgsubr
            368 -530 rlineto
            -3 3 7 -4 14 hhcurveto
            return
          </CharString>
          <CharString index="18">
            rmoveto
            -125 vlineto
            76 callsubr
            -146 hlineto
            -119 -45 11 108 hvcurveto
            274 94 callgsubr
            11 130 vhcurveto
            134 hlineto
            40 10 -15 -41 -28 -7 callsubr
            19 12 11 30 56 -12 60 -93 hvcurveto
            -141 hlineto
            -152 -86 -26 -153 hvcurveto
            -278 vlineto
            -152 85 -27 141 vhcurveto
            153 hlineto
            93 12 58 54 hvcurveto
            191 -191 vlineto
            -26 -17 -6 -26 -18 13 -12 30 hvcurveto
            return
          </CharString>
          <CharString index="19">
            331 636 -104 callsubr
            return
          </CharString>
          <CharString index="20">
            -97 callgsubr
            hintmask 00010010
            -80 callsubr
            hintmask 00001010
            -84 callsubr
            hintmask 00010010
            -94 callsubr
            hintmask 00001010
            -80 callgsubr
            hintmask 00010010
            -78 callsubr
            return
          </CharString>
          <CharString index="21">
            rmoveto
            4 12 0 1 5 vvcurveto
            20 -15 5 -14 -14 -12 -6 -19 -7 vhcurveto
            -140 -390 -139 385 rlineto
            17 -6 -7 7 -20 hhcurveto
            -21 -7 -8 -16 -7 hvcurveto
            -145 -385 -135 390 rlineto
            13 -5 -8 12 -20 hhcurveto
            -14 -15 -5 -20 -5 0 -1 4 -12 hvcurveto
            147 -430 rlineto
            86 hlineto
            139 364 128 -364 rlineto
            87 hlineto
            endchar
          </CharString>
          <CharString index="22">
            -3 -7 -1 -6 -5 vvcurveto
            -20 15 -10 16 14 12 9 18 6 vhcurveto
            49 135 rlineto
            return
          </CharString>
          <CharString index="23">
            2 2 2 0 1 hhcurveto
            2 1 0 -2 5 hvcurveto
            94 -36 rlineto
            return
          </CharString>
          <CharString index="24">
            rmoveto
            -81 callsubr
            -251 vlineto
            -33 19 -5 13 24 6 18 20 vhcurveto
            253 vlineto
            149 -29 callgsubr
            return
          </CharString>
          <CharString index="25">
            804 rmoveto
            -104 callgsubr
            return
          </CharString>
          <CharString index="26">
            29 hlineto
            129 46 -9 -108 hvcurveto
            return
          </CharString>
          <CharString index="27">
            -18 17 -11 13 10 8 3 7 7 vhcurveto
            31 28 rlineto
            return
          </CharString>
          <CharString index="28">
            -268 -157 -107 callgsubr
            return
          </CharString>
          <CharString index="29">
            -2 -2 -2 0 -1 hhcurveto
            -2 -1 0 2 -5 hvcurveto
            return
          </CharString>
          <CharString index="30">
            27 -24 callsubr
            -22 -9 -14 -24 vhcurveto
            return
          </CharString>
          <CharString index="31">
            24 -35 6 -11 -12 -12 -7 -20 -6 vhcurveto
            -24 -87 rlineto
            return
          </CharString>
          <CharString index="32">
            62 vstem
            329 hmoveto
            -106 callsubr
            return
          </CharString>
          <CharString index="33">
            -107 -78 callgsubr
            return
          </CharString>
          <CharString index="34">
            -96 callgsubr
            -134 hlineto
            return
          </CharString>
          <CharString index="35">
            rmoveto
            220 133 vlineto
            22 19 6 23 20 -12 13 -29 hvcurveto
            -133 99 hlineto
            -28 callgsubr
            -99 vlineto
            -15 -2 -16 -6 -20 vvcurveto
            -23 16 -7 15 -1 vhcurveto
            -225 vlineto
            -148 85 -29 133 -6 callgsubr
            vhcurveto
            endchar
          </CharString>
          <CharString index="36">
            vvcurveto
            -66 44 -43 57 24 60 11 44 16 -9 6 -11 vhcurveto
            -16 -22 -17 -28 hhcurveto
            -22 -15 13 36 return
          </CharString>
          <CharString index="37">
            -62 callsubr
            hintmask 00101000
            -85 callsubr
            return
          </CharString>
          <CharString index="38">
            -149 85 -28 return
          </CharString>
          <CharString index="39">
            -2 -8 -1 -6 -3 vvcurveto
            -21 12 -9 15 vhcurveto
            return
          </CharString>
          <CharString index="40">
            500 607 -100 callgsubr
            return
          </CharString>
          <CharString index="41">
            -27 -7 callsubr
            22 9 14 24 vhcurveto
            return
          </CharString>
          <CharString index="42">
            rmoveto
            -103 vlineto
            -108 -46 -9 -127 vhcurveto
            -207 170 hlineto
            85 33 82 143 vhcurveto
            -81 callsubr
            62 -105 rmoveto
            107 vlineto
            149 -39 callgsubr
            -29 hlineto
            -71 -64 32 callgsubr
            23 vlineto
            30 -12 10 -19 66 callsubr
            -572 vlineto
            -21 6 -19 23 26 7 19 21 vhcurveto
            142 207 vlineto
            150 85 28 149 hvcurveto
            endchar
          </CharString>
          <CharString index="43">
            rmoveto
            357 327 rlineto
            72 -336 vlineto
            42 callsubr
            -36 18 -5 12 26 6 16 25 49 5 23 45 hvcurveto
            248 hlineto
            -360 -330 rlineto
            -69 357 vlineto
            84 21 42 92 36 -19 5 -12 -19 -12 -11 -30 -45 -3 -27 -48 hvcurveto
            endchar
          </CharString>
          <CharString index="44">
            -35 callgsubr
            26 6 return
          </CharString>
          <CharString index="45">
            rmoveto
            -14 -12 -11 -19 -7 hvcurveto
            -49 -136 rlineto
            return
          </CharString>
          <CharString index="46">
            85 28 149 hvcurveto
            107 vlineto
            return
          </CharString>
          <CharString index="47">
            rmoveto
            77 19 37 85 hvcurveto
            32 -62 -48 vlineto
            -37 -7 -7 -34 vhcurveto
            -102 hlineto
            -35 -7 8 36 hvcurveto
            48 -62 -32 vlineto
            -84 19 -38 77 vhcurveto
            return
          </CharString>
          <CharString index="48">
            6 23 20 -11 13 return
          </CharString>
          <CharString index="49">
            -41 -38 callsubr
            54 92 hstemhm
            142 112 -16 65 -15 112 hintmask 00000000
            hintmask 11001000
            -57 callgsubr
            hintmask 00110100
            228 153 rmoveto
            28 -35 18 -21 -22 -34 -18 -28 -28 32 -18 24 22 34 -35 callsubr
            146 hmoveto
            44 callgsubr
          </CharString>
          <CharString index="50">
            9 -10 62 78 62 46 62 109 62 hstem
            64 -13 callsubr
            528 93 rmoveto
            79 -58 20 -77 -86 -77 -114 -26 -18 vhcurveto
            -36 30 callsubr
            79 vlineto
            40 10 13 40 vhcurveto
            352 99 hlineto
            -8 callgsubr
            -254 hlineto
            -72 -33 -32 -85 -35 18 -5 12 26 6 17 23 69 callgsubr
            hvcurveto
            -10 callgsubr
            -54 -297 vlineto
            -84 -21 -38 -94 hvcurveto
            -44 39 callgsubr
            255 hlineto
            83 21 49 54 hvcurveto
            -235 -41 rmoveto
            42 34 37 36 29 hhcurveto
            58 15 -14 -21 -26 -8 -17 -42 hvcurveto
            endchar
          </CharString>
          <CharString index="51">
            32 6 18 12 18 -11 14 -27 hvcurveto
            return
          </CharString>
          <CharString index="52">
            21 -10 62 357 62 hstem
            66 -13 callsubr
            468 592 rmoveto
            -121 -35 vlineto
            -28 -11 -13 -20 -23 16 -6 23 hvcurveto
            35 -303 hlineto
            -54 callsubr
            24 callgsubr
            88 94 callsubr
            -95 hlineto
            -84 -21 -40 -93 hvcurveto
            -214 vlineto
            -93 21 -41 -2 callsubr
            41 93 hvcurveto
            538 vlineto
            26 -22 7 -10 -12 -9 -6 -8 -9 vhcurveto
            -64 -64 rlineto
            -6 -7 -7 -10 -12 vvcurveto
            -15 11 -13 17 10 13 5 10 10 vhcurveto
            endchar
          </CharString>
          <CharString index="53">
            -31 callsubr
            13 41 hvcurveto
            return
          </CharString>
          <CharString index="54">
            rmoveto
            70 17 42 51 81 7 callsubr
            -567 vlineto
            -30 -45 callsubr
            17 vhcurveto
            288 187 vlineto
            return
          </CharString>
          <CharString index="55">
            29 50 callsubr
            357 62 hstemhm
            74 62 -62 153 249 -36 callsubr
            hintmask 11110100
            426 409 rmoveto
            40 10 -15 -40 hvcurveto
            -442 vlineto
            -40 -10 -15 -40 -36 -5 -19 -12 -19 11 -12 30 60 52 11 123 vhcurveto
            408 vlineto
            -8 callgsubr
            -141 hlineto
            -59 -56 32 callgsubr
            23 -40 callgsubr
            -448 112 vlineto
            hintmask 11101100
            31 10 12 18 26 -19 6 -22 hvcurveto
            hintmask 11110100
            -50 180 hlineto
            114 54 63 102 vhcurveto
            endchar
          </CharString>
          <CharString index="56">
            rmoveto
            12 13 1 9 6 vvcurveto
            20 -15 5 -10 -6 -9 -1 -12 -13 vhcurveto
            -410 -410 rlineto
            -12 92 callsubr
            -20 15 -5 10 6 9 1 12 13 vhcurveto
            return
          </CharString>
          <CharString index="57">
            -32 -6 -19 -12 -12 6 -19 32 hvcurveto
            return
          </CharString>
          <CharString index="58">
            57 0 62 231 63 218 62 hstem
            84 -17 callgsubr
            506 183 rmoveto
            -111 -46 -10 -129 vhcurveto
            -185 231 94 hlineto
            24 15 12 19 20 -14 12 -25 hvcurveto
            -94 218 197 hlineto
            117 46 -10 -111 hvcurveto
            62 1 rmoveto
            154 64 callsubr
            -230 hlineto
            -17 -12 -11 -29 hvcurveto
            -240 vlineto
            -31 -6 -18 -12 -17 8 -16 29 hvcurveto
            -253 58 callgsubr
            endchar
          </CharString>
          <CharString index="59">
            427 vlineto
            31 -12 10 -18 -26 -6 -19 -22 vhcurveto
            -427 vlineto
            -103 -44 -10 -112 -23 -18 -6 -24 -26 20 -6 21 131 87 23 152 vhcurveto
            endchar
          </CharString>
          <CharString index="60">
            62 vstem
            573 -82 rmoveto
            512 vlineto
            -77 callsubr
            -199 vlineto
            -84 -33 -85 -143 vhcurveto
            -105 callgsubr
            -154 vlineto
            -36 -6 -9 -35 vhcurveto
            -289 hlineto
            -38 -12 13 44 20 -6 18 -25 -40 callsubr
            hvcurveto
            303 hlineto
            77 19 38 85 hvcurveto
            return
          </CharString>
          <CharString index="61">
            -9 1 -13 23 22 54 58 72 25 -19 6 -17 -24 -16 -12 -19 vhcurveto
            -77 -24 -5 -26 vvcurveto
            return
          </CharString>
          <CharString index="62">
            -63 callsubr
            19 return
          </CharString>
          <CharString index="63">
            rmoveto
            -29 22 37 -28 65 hhcurveto
            100 56 80 76 hvcurveto
            161 vlineto
            76 -34 82 -100 -31 -12 -12 -18 -26 21 -6 22 64 8 -82 -22 vhcurveto
            -145 vlineto
            -68 -40 -34 -41 -55 -47 21 83 vhcurveto
            101 vlineto
            21 -7 19 -29 -28 -7 -18 -22 vhcurveto
            -101 vlineto
            -83 -47 -21 -55 -41 -40 34 68 vhcurveto
            145 vlineto
            22 8 82 64 22 21 6 26 18 -11 12 -32 -100 -34 -82 -76 vhcurveto
            -161 vlineto
            -76 56 -80 100 71 36 33 24 18 vhcurveto
            endchar
          </CharString>
          <CharString index="64">
            146 265 rmoveto
            121 hlineto
            74 59 -25 -38 hvcurveto
            -79 vlineto
            -117 51 -13 62 8 callsubr
            -40 -10 13 40 vhcurveto
            89 vlineto
            23 -4 44 -46 31 vhcurveto
            24 16 26 28 60 vvcurveto
            93 vlineto
            69 callgsubr
            9 callgsubr
            -60 -53 -11 -123 vhcurveto
            -83 vlineto
            -35 -52 -30 -81 vhcurveto
            -121 243 hlineto
            32 -19 6 -12 -12 -19 -6 -32 vhcurveto
            -541 97 callgsubr
            return
          </CharString>
          <CharString index="65">
            -24 callgsubr
            489 -40 callgsubr
            -473 vlineto
            -90 83 callgsubr
          </CharString>
          <CharString index="66">
            -371 hlineto
            -50 callsubr
            152 return
          </CharString>
          <CharString index="67">
            -25 -6 -20 -20 -56 12 -61 93 return
          </CharString>
          <CharString index="68">
            rmoveto
            7 10 3 11 11 hvcurveto
            9 9 rlineto
            -211 vlineto
            -27 16 -5 11 11 16 5 27 vhcurveto
            271 vlineto
            22 -19 7 -9 -11 -8 -6 -6 -7 vhcurveto
            -48 -50 rlineto
            -9 -9 -5 -7 -10 vvcurveto
            -11 9 -13 16 vhcurveto
            return
          </CharString>
          <CharString index="69">
            -7 -16 callgsubr
            return
          </CharString>
          <CharString index="70">
            196 200 rmoveto
            76 119 -42 -47 -100 49 -18 65 8 callsubr
            -40 -10 13 39 hvcurveto
            19 vlineto
            47 -63 39 -44 17 vhcurveto
            45 18 62 41 48 vvcurveto
            19 71 callgsubr
            -65 -49 -18 -100 -44 -111 -45 -84 vhcurveto
            -59 170 hlineto
            29 -17 7 -14 -14 -17 -7 -29 vhcurveto
            -404 vlineto
            -29 34 callsubr
            172 vlineto
            return
          </CharString>
          <CharString index="71">
            62 hintmask 00000000
            return
          </CharString>
          <CharString index="72">
            18 28 vhcurveto
            return
          </CharString>
          <CharString index="73">
            18 12 26 -17 6 -23 -40 -10 13 39 hvcurveto
            return
          </CharString>
          <CharString index="74">
            vvcurveto
            -18 18 -12 12 return
          </CharString>
          <CharString index="75">
            -62 callsubr
            hintmask 01010000
            -85 callsubr
            hintmask 01001000
            -61 callgsubr
            return
          </CharString>
          <CharString index="76">
            -41 -10 -13 20 callsubr
            -40 -10 return
          </CharString>
          <CharString index="77">
            617 rmoveto
            -15 6 -5 5 -6 vhcurveto
            245 -268 -245 -268 rlineto
            -10 -12 -1 -4 -9 vvcurveto
            -18 14 -12 16 vhcurveto
            456 15 callgsubr
            -388 hlineto
            224 236 rlineto
            7 8 5 7 10 vvcurveto
            11 -11 11 -2 3 vhcurveto
            -223 237 rlineto
            388 15 callgsubr
            -450 hlineto
            -30 -6 -18 -12 hvcurveto
            endchar
          </CharString>
          <CharString index="78">
            35 -23 callgsubr
            return
          </CharString>
          <CharString index="79">
            rmoveto
            -41 -8 2 41 hvcurveto
            44 vlineto
            41 8 2 41 vhcurveto
            9 hlineto
            42 8 -3 -40 hvcurveto
            -44 vlineto
            -40 -8 -3 -42 vhcurveto
            -109 43 rmoveto
            -75 29 -19 71 vhcurveto
            9 hlineto
            72 29 19 75 hvcurveto
            44 vlineto
            75 -30 19 -71 vhcurveto
            -9 hlineto
            -71 -29 -19 -75 hvcurveto
            6 -168 rmoveto
            -23 -8 -16 -11 -12 7 -16 24 hvcurveto
            196 hlineto
            20 13 10 16 17 -13 12 -20 hvcurveto
            endchar
          </CharString>
          <CharString index="80">
            -8 callgsubr
            -254 hlineto
            42 callsubr
            return
          </CharString>
          <CharString index="81">
            15 8 13 14 7 hvcurveto
            return
          </CharString>
          <CharString index="82">
            438 rmoveto
            -210 vlineto
            -114 -55 -62 -101 -102 -54 63 113 vhcurveto
            210 vlineto
            21 -6 19 -26 -18 67 callgsubr
            -607 vlineto
            -22 6 -19 23 20 13 12 29 vhcurveto
            215 vlineto
            -38 41 56 -18 59 hhcurveto
            58 57 18 38 41 hvcurveto
            -22 vlineto
            -22 6 -19 26 18 12 10 31 vhcurveto
            414 vlineto
            21 -6 19 -26 -18 67 callgsubr
            endchar
          </CharString>
          <CharString index="83">
            -12 11 -19 return
          </CharString>
          <CharString index="84">
            rmoveto
            14 32 9 23 41 29 -1 -36 -26 -49 -17 -33 -16 -12 -12 -14 -9 6 -18 22 34 48 -24 -26 -36 -28 -1 -42 -23 -32 9 14 14 -12 9 -17 -15 -12 -10 -15 -32 41 -42 66 vhcurveto
            63 63 4 85 37 -28 27 -24 14 hvcurveto
            22 11 30 23 32 vvcurveto
            92 -69 1 -57 -66 -41 -42 -32 -15 12 -10 15 17 12 9 14 vhcurveto
            return
          </CharString>
          <CharString index="85">
            62 265 6 callgsubr
            return
          </CharString>
          <CharString index="86">
            rmoveto
            -81 callsubr
            -251 vlineto
            -33 19 -5 13 24 6 18 20 vhcurveto
            253 vlineto
            149 -39 callgsubr
            -29 hlineto
            -71 -64 32 callgsubr
            43 callsubr
            22 9 14 24 vhcurveto
            199 vlineto
            85 33 84 143 vhcurveto
            endchar
          </CharString>
          <CharString index="87">
            44 -15 callsubr
            return
          </CharString>
          <CharString index="88">
            vlineto
            -112 -62 -66 return
          </CharString>
          <CharString index="89">
            44 10 132 return
          </CharString>
          <CharString index="90">
            52 -18 54 0 54 return
          </CharString>
          <CharString index="91">
            28 -152 vhcurveto
            return
          </CharString>
          <CharString index="92">
            0 -10 callsubr
            return
          </CharString>
          <CharString index="93">
            3 callgsubr
            99 62 return
          </CharString>
          <CharString index="94">
            31 callsubr
            vstem
            return
          </CharString>
          <CharString index="95">
            299 471 rmoveto
            -153 130 hlineto
            17 -7 18 -25 -12 -18 -6 -30 vhcurveto
            -568 91 callgsubr
            vhcurveto
            186 hlineto
            140 87 114 125 124 -87 115 -140 hvcurveto
            -62 vmoveto
            114 51 -91 -86 -87 -50 -90 -115 hvcurveto
            -153 354 hlineto
            return
          </CharString>
          <CharString index="96">
            -141 hlineto
            -153 -71 callgsubr
            -107 vlineto
            return
          </CharString>
          <CharString index="97">
            35 callsubr
            97 62 return
          </CharString>
          <CharString index="98">
            23 6 19 20 vhcurveto
            return
          </CharString>
          <CharString index="99">
            -23 4 callsubr
            -58 2 -10 34 hvcurveto
            return
          </CharString>
          <CharString index="100">
            12 -11 19 return
          </CharString>
          <CharString index="101">
            -114 rmoveto
            28 -34 18 -22 -24 -32 -18 -28 -28 34 -18 22 21 35 -35 callsubr
            return
          </CharString>
          <CharString index="102">
            -102 callsubr
            62 vmoveto
            -89 callgsubr
            -81 callsubr
            -70 callgsubr
            endchar
          </CharString>
          <CharString index="103">
            rmoveto
            296 262 vlineto
            25 18 6 23 20 -12 13 -31 hvcurveto
            -262 185 383 hlineto
            23 16 -59 callsubr
            -28 hvcurveto
            -416 hlineto
            -17 -12 -11 -29 hvcurveto
            -564 vlineto
            -20 6 -19 25 22 9 14 24 vhcurveto
            endchar
          </CharString>
          <CharString index="104">
            -9 62 530 62 return
          </CharString>
          <CharString index="105">
            84 vhcurveto
            11 callgsubr
            return
          </CharString>
          <CharString index="106">
            32 callsubr
            -123 hmoveto
            29 callsubr
          </CharString>
          <CharString index="107">
            rmoveto
            0 -2 0 -3 2 vhcurveto
            -98 36 rlineto
            return
          </CharString>
          <CharString index="108">
            62 hintmask 0000000000000000
            return
          </CharString>
          <CharString index="109">
            25 6 20 20 return
          </CharString>
          <CharString index="110">
            -370 52 rmoveto
            -5 hlineto
            -137 -27 -78 -52 -93 82 -34 71 hvcurveto
            215 hlineto
            77 19 37 86 hvcurveto
            27 -62 -44 vlineto
            -36 -6 -8 -37 vhcurveto
            -199 hlineto
            -40 -58 6 61 40 13 26 89 hvcurveto
            5 hlineto
            return
          </CharString>
          <CharString index="111">
            -60 callgsubr
            58 return
          </CharString>
          <CharString index="112">
            46 callsubr
            -10 callgsubr
            return
          </CharString>
          <CharString index="113">
            62 hstem
            85 62 350 62 vstem
            85 636 rmoveto
            -605 vlineto
            -66 callsubr
            543 350 -543 vlineto
            -33 19 -5 13 24 6 18 20 vhcurveto
            605 vlineto
            endchar
          </CharString>
          <CharString index="114">
            vvcurveto
            128 -87 30 -142 vhcurveto
            -184 hlineto
            -17 -12 -11 -29 hvcurveto
            return
          </CharString>
          <CharString index="115">
            30 11 12 19 12 -5 19 -36 return
          </CharString>
          <CharString index="116">
            0 56 callgsubr
            130 62 return
          </CharString>
          <CharString index="117">
            0 53 callgsubr
            return
          </CharString>
          <CharString index="118">
            112 34 112 return
          </CharString>
          <CharString index="119">
            9 -1 13 -23 -22 -54 -58 -72 -25 19 -6 17 24 16 12 19 vhcurveto
            77 24 5 26 vvcurveto
            return
          </CharString>
          <CharString index="120">
            -364 hlineto
            -50 callsubr
            149 -543 hlineto
            -27 -7 callsubr
            27 6 17 23 vhcurveto
            203 vlineto
            113 58 60 107 114 46 -11 return
          </CharString>
          <CharString index="121">
            hlineto
            -56 callsubr
            return
          </CharString>
          <CharString index="122">
            -116 rmoveto
            28 -34 18 -22 -24 -32 -18 -28 -28 34 -18 22 21 35 -35 callsubr
            return
          </CharString>
          <CharString index="123">
            199 63 hstem
            27 callgsubr
            return
          </CharString>
          <CharString index="124">
            24 0 25 callgsubr
            return
          </CharString>
          <CharString index="125">
            -33 -46 -4 -30 vvcurveto
            -15 11 -16 17 32 48 44 58 126 -85 7 return
          </CharString>
          <CharString index="126">
            -49 callgsubr
            -52 callgsubr
            return
          </CharString>
          <CharString index="127">
            -40 vhcurveto
            -240 hlineto
            return
          </CharString>
          <CharString index="128">
            -52 callgsubr
            -253 -78 callgsubr
            return
          </CharString>
          <CharString index="129">
            152 -61 callsubr
            149 -39 callgsubr
            return
          </CharString>
          <CharString index="130">
            vlineto
            111 62 67 118 vhcurveto
            endchar
          </CharString>
          <CharString index="131">
            20 -6 20 -25 -19 67 callgsubr
            -519 return
          </CharString>
          <CharString index="132">
            -205 52 callsubr
            return
          </CharString>
          <CharString index="133">
            29 -17 7 -14 -12 -19 -6 -31 vhcurveto
            -377 vlineto
            -151 101 -87 141 -67 callgsubr
            vhcurveto
            return
          </CharString>
          <CharString index="134">
            57 -57 103 hintmask 00000000
            return
          </CharString>
          <CharString index="135">
            -94 47 callgsubr
            return
          </CharString>
          <CharString index="136">
            -46 callsubr
            endchar
          </CharString>
          <CharString index="137">
            hlineto
            40 callgsubr
            return
          </CharString>
          <CharString index="138">
            62 340 62 return
          </CharString>
          <CharString index="139">
            rmoveto
            -46 callsubr
            return
          </CharString>
          <CharString index="140">
            vmoveto
            118 -27 callgsubr
            return
          </CharString>
          <CharString index="141">
            -35 callgsubr
            25 7 18 17 vhcurveto
            return
          </CharString>
          <CharString index="142">
            62 178 62 return
          </CharString>
          <CharString index="143">
            62 360 62 return
          </CharString>
          <CharString index="144">
            92 hstem
            -363 112 vstem
            -251 return
          </CharString>
          <CharString index="145">
            43 0 62 179 62 271 62 return
          </CharString>
          <CharString index="146">
            14 -21 406 62 return
          </CharString>
          <CharString index="147">
            vlineto
            27 -24 callsubr
            return
          </CharString>
          <CharString index="148">
            vmoveto
            44 callgsubr
          </CharString>
          <CharString index="149">
            -84 -21 -40 -94 return
          </CharString>
          <CharString index="150">
            197 vlineto
            -28 callgsubr
            -571 vlineto
            -27 -7 callsubr
            return
          </CharString>
          <CharString index="151">
            122 5 -42 -31 -23 -4 -49 -123 hvcurveto
            return
          </CharString>
          <CharString index="152">
            -7 83 callsubr
            return
          </CharString>
          <CharString index="153">
            69 callgsubr
            vhcurveto
            return
          </CharString>
          <CharString index="154">
            61 callgsubr
            583 rmoveto
            return
          </CharString>
          <CharString index="155">
            62 callsubr
            hintmask 00110000
            return
          </CharString>
          <CharString index="156">
            62 124 112 124 62 return
          </CharString>
          <CharString index="157">
            -205 62 133 62 return
          </CharString>
          <CharString index="158">
            46 0 -25 callgsubr
            return
          </CharString>
          <CharString index="159">
            62 143 62 return
          </CharString>
          <CharString index="160">
            -51 23 49 -30 50 hhcurveto
            31 8 19 14 18 -16 12 -23 -25 -29 21 return
          </CharString>
          <CharString index="161">
            hlineto
            23 16 12 18 14 -8 19 -31 hvcurveto
            return
          </CharString>
          <CharString index="162">
            vlineto
            29 -13 10 -19 return
          </CharString>
          <CharString index="163">
            59 0 62 337 86 callsubr
            return
          </CharString>
          <CharString index="164">
            -21 416 62 103 62 hstem
            213 64 325 62 vstem
            428 return
          </CharString>
          <CharString index="165">
            20 -6 20 -25 -12 -19 -6 -32 -44 -12 -13 -38 hvcurveto
            -134 hlineto
            return
          </CharString>
          <CharString index="166">
            39 188 hstem
            return
          </CharString>
          <CharString index="167">
            26 -9 62 446 62 6 -4 callgsubr
            62 62 return
          </CharString>
          <CharString index="168">
            vlineto
            153 -85 28 -137 -62 -60 -18 -38 -43 vhcurveto
            159 return
          </CharString>
          <CharString index="169">
            112 -87 -36 callsubr
            return
          </CharString>
          <CharString index="170">
            -6 12 12 19 6 32 vhcurveto
            return
          </CharString>
          <CharString index="171">
            -85 28 -140 vhcurveto
            return
          </CharString>
          <CharString index="172">
            173 44 52 hstemhm
            return
          </CharString>
          <CharString index="173">
            -19 -12 -11 -27 vhcurveto
            return
          </CharString>
          <CharString index="174">
            hlineto
            -84 -21 -41 -93 hvcurveto
            -213 vlineto
            -93 21 -41 84 vhcurveto
            return
          </CharString>
          <CharString index="175">
            -78 callsubr
            endchar
          </CharString>
          <CharString index="176">
            8 194 62 return
          </CharString>
          <CharString index="177">
            -24 35 -6 11 13 11 9 19 6 vhcurveto
            24 86 rlineto
            return
          </CharString>
          <CharString index="178">
            85 -28 140 vhcurveto
            33 hlineto
            64 59 18 38 41 hvcurveto
            return
          </CharString>
          <CharString index="179">
            793 -62 callsubr
            return
          </CharString>
          <CharString index="180">
            75 0 62 245 61 31 62 return
          </CharString>
          <CharString index="181">
            -19 6 -12 -12 -19 -6 -31 vhcurveto
            return
          </CharString>
          <CharString index="182">
            142 -52 293 return
          </CharString>
          <CharString index="183">
            -41 -10 -13 -40 vhcurveto
            return
          </CharString>
          <CharString index="184">
            63 124 63 return
          </CharString>
          <CharString index="185">
            11 -60 -30 -11 -12 -19 -12 5 -19 36 40 10 return
          </CharString>
          <CharString index="186">
            519 vlineto
            19 -6 21 -26 -25 -5 -17 -23 vhcurveto
            return
          </CharString>
          <CharString index="187">
            19 65 callgsubr
            return
          </CharString>
          <CharString index="188">
            103 94 callgsubr
            9 return
          </CharString>
          <CharString index="189">
            hstem
            84 62 vstem
            146 return
          </CharString>
          <CharString index="190">
            21 385 62 return
          </CharString>
          <CharString index="191">
            0 62 211 61 27 62 220 -20 hstem
            return
          </CharString>
          <CharString index="192">
            hlineto
            136 87 84 125 126 -88 83 return
          </CharString>
          <CharString index="193">
            62 182 -20 hstem
            75 26 callgsubr
            return
          </CharString>
          <CharString index="194">
            2 8 1 6 3 vvcurveto
            21 -12 9 -15 vhcurveto
            return
          </CharString>
          <CharString index="195">
            -36 callsubr
            hintmask 11010000
            return
          </CharString>
          <CharString index="196">
            13 -10 8 -10 -11 vvcurveto
            -24 return
          </CharString>
          <CharString index="197">
            -18 -12 -23 15 -9 return
          </CharString>
          <CharString index="198">
            -52 62 616 62 return
          </CharString>
          <CharString index="199">
            -13 -1 -9 -6 vvcurveto
            return
          </CharString>
          <CharString index="200">
            hlineto
            -40 -10 15 return
          </CharString>
          <CharString index="201">
            hlineto
            22 19 6 23 20 -12 13 -29 hvcurveto
            return
          </CharString>
          <CharString index="202">
            vlineto
            31 74 callsubr
            return
          </CharString>
          <CharString index="203">
            hlineto
            -30 -6 -18 -12 -25 18 -8 18 hvcurveto
            return
          </CharString>
          <CharString index="204">
            -13 62 callgsubr
            return
          </CharString>
          <CharString index="205">
            -29 callsubr
            70 return
          </CharString>
          <CharString index="206">
            hlineto
            -26 -12 -13 -18 -19 15 -13 23 hvcurveto
            return
          </CharString>
          <CharString index="207">
            -205 161 return
          </CharString>
        <CharString name=".notdef">
          -44 0 71 535 72 hstem
          85 71 226 71 vstem
          156 546 rmoveto
          42 12 18 42 vhcurveto
          118 hlineto
          42 12 -18 -42 hvcurveto
          -416 vlineto
          -42 -12 -17 -42 vhcurveto
          -118 hlineto
          -42 -12 17 42 hvcurveto
          -71 -130 rmoveto
          368 678 -368 hlineto
          endchar
        </CharString>
        <CharString name=".null">
          endchar
        </CharString>
        <CharString name="A">
          69 callsubr
          hstem
          24 63 416 -81 callgsubr
          endchar
        </CharString>
        <CharString name="A.smallcap">
          -4 170 62 hstem
          14 66 390 66 vstem
          17 26 rmoveto
          -2 -5 84 callgsubr
          -22 22 -5 9 13 15 7 16 7 vhcurveto
          68 164 rlineto
          254 hlineto
          68 -164 rlineto
          -15 6 16 -8 13 hhcurveto
          9 22 5 22 6 -1 5 -2 5 hvcurveto
          -229 526 rlineto
          -58 hlineto
          -70 -320 rmoveto
          98 229 100 -229 rlineto
          endchar
        </CharString>
        <CharString name="AE">
          302 0 62 127 62 71 62 190 62 hstem
          402 63 vstem
          465 322 rmoveto
          212 hlineto
          24 18 6 23 20 -12 13 -30 hvcurveto
          -212 190 332 hlineto
          23 16 -59 callsubr
          -28 hvcurveto
          -366 hlineto
          -5 -11 -1 -11 -7 hvcurveto
          -390 -592 rlineto
          -7 -11 -2 -8 -6 vvcurveto
          -18 18 -5 7 7 16 4 21 14 vhcurveto
          120 180 rlineto
          211 -149 hlineto
          -22 6 -18 23 vhcurveto
          366 hlineto
          23 16 -59 callsubr
          -28 hvcurveto
          -332 hlineto
          -233 189 rmoveto
          170 260 rlineto
          -260 vlineto
          endchar
        </CharString>
        <CharString name="Aacute">
          69 callsubr
          422 141 hstem
          24 63 159 142 115 -81 callgsubr
          35 258 rmoveto
          -104 callgsubr
          endchar
        </CharString>
        <CharString name="Abreve">
          69 callsubr
          442 64 hstem
          24 63 83 77 callsubr
          83 63 vstem
          170 819 -92 callsubr
          98 -183 -104 callsubr
          endchar
        </CharString>
        <CharString name="Acircumflex">
          69 callsubr
          390 173 hstem
          24 63 62 293 61 -81 callgsubr
          -138 149 -107 callgsubr
          endchar
        </CharString>
        <CharString name="Acyrillic">
          69 callsubr
          hstem
          24 63 416 -81 callgsubr
          endchar
        </CharString>
        <CharString name="Adieresis">
          69 callsubr
          441 92 hstem
          24 63 79 11 callsubr
          79 -81 callgsubr
          -16 197 rmoveto
          28 -35 18 -21 -22 -34 -18 -28 -28 32 -18 24 22 34 -35 callsubr
          146 hmoveto
          44 callgsubr
        </CharString>
        <CharString name="Agrave">
          69 callsubr
          422 141 hstem
          24 63 95 142 179 -81 callgsubr
          -53 258 -99 callsubr
          endchar
        </CharString>
        <CharString name="Alpha">
          69 callsubr
          hstem
          24 63 416 -81 callgsubr
          endchar
        </CharString>
        <CharString name="Alphatonos">
          14 194 62 323 214 hstemhm
          30 63 13 63 -10 62 288 63 hintmask 00000000
          hintmask 01001000
          192 -37 callgsubr
          hintmask 10100100
          145 -157 -104 callsubr
          endchar
        </CharString>
        <CharString name="Amacron">
          69 callsubr
          451 63 hstem
          24 63 48 320 48 63 cntrmask 00111000
          171 770 -84 callgsubr
          -85 -134 -104 callsubr
          endchar
        </CharString>
        <CharString name="Aogonek">
          7 -205 60 339 62 390 -20 hstem
          24 63 340 62 vstem
          409 256 rmoveto
          -228 hlineto
          113 290 rlineto
          -239 -562 rmoveto
          13 12 10 16 7 hvcurveto
          70 184 rlineto
          276 hlineto
          63 -166 rlineto
          -30 -33 -39 -55 -36 -71 callsubr
          8 15 42 33 30 hvcurveto
          9 1 20 6 23 vvcurveto
          5 -1 6 -2 6 vhcurveto
          -236 615 rlineto
          -64 hlineto
          -236 -615 rlineto
          -2 -6 -1 -6 -5 vvcurveto
          -24 23 -6 8 vhcurveto
          endchar
        </CharString>
        <CharString name="Aring">
          69 callsubr
          399 44 76 44 hstem
          24 63 126 44 76 44 126 -81 callgsubr
          -37 191 -66 callgsubr
          endchar
        </CharString>
        <CharString name="Atilde">
          69 callsubr
          440 2 callgsubr
          24 63 62 291 63 63 hintmask 00000000
          hintmask 10010100
          -88 callsubr
          hintmask 00101000
          47 219 -97 callgsubr
          hintmask 01001000
          -80 callsubr
          hintmask 00101000
          -84 callsubr
          hintmask 01001000
          -94 callsubr
          hintmask 00101000
          -80 callgsubr
          hintmask 01001000
          68 callsubr
        </CharString>
        <CharString name="B">
          -79 callgsubr
        </CharString>
        <CharString name="Becyrillic">
          -7 -7 62 354 62 103 62 hstem
          85 75 callgsubr
          454 636 rmoveto
          -369 -604 hlineto
          -20 6 -19 23 vhcurveto
          186 hlineto
          140 87 114 125 124 -87 115 -140 hvcurveto
          -153 103 307 hlineto
          20 20 6 25 25 -20 6 -20 hvcurveto
          -154 -227 rmoveto
          114 51 -91 -86 -87 -50 -90 -115 hvcurveto
          -153 354 hlineto
          endchar
        </CharString>
        <CharString name="Beta">
          -79 callgsubr
        </CharString>
        <CharString name="C">
          28 81 callgsubr
          71 -17 callgsubr
          450 hmoveto
          -92 callgsubr
          -154 85 -28 153 vhcurveto
          endchar
        </CharString>
        <CharString name="Cacute">
          28 10 callsubr
          42 141 hstem
          71 62 133 142 85 62 vstem
          349 -82 callsubr
          101 -804 rmoveto
          -92 callgsubr
          -154 85 -28 153 vhcurveto
          endchar
        </CharString>
        <CharString name="Ccaron">
          28 10 callsubr
          29 154 hstem
          71 62 44 288 28 62 vstem
          351 665 -102 callgsubr
          159 -665 rmoveto
          -92 callgsubr
          -154 85 -28 153 vhcurveto
          endchar
        </CharString>
        <CharString name="Ccedilla">
          28 -180 60 120 53 callgsubr
          hstem
          71 62 224 62 74 62 vstem
          288 hmoveto
          6 -63 63 -13 -8 callsubr
          99 hlineto
          -92 callgsubr
          -147 77 -32 140 -3 vhcurveto
          endchar
        </CharString>
        <CharString name="Ccircumflex">
          28 10 callsubr
          12 173 hstem
          71 62 36 293 31 62 vstem
          450 hmoveto
          -92 callgsubr
          -154 85 -28 153 vhcurveto
          -133 697 -107 callgsubr
          endchar
        </CharString>
        <CharString name="Cdotaccent">
          28 10 callsubr
          60 92 hstem
          71 62 125 112 123 62 vstem
          370 742 rmoveto
          28 -35 18 -21 -22 -34 -18 -28 -28 32 -18 24 22 34 -35 callsubr
          80 -742 rmoveto
          -92 callgsubr
          -154 85 -28 153 vhcurveto
          endchar
        </CharString>
        <CharString name="Checyrillic">
          43 14 -21 172 62 416 -20 hstem
          57 -17 callgsubr
          315 227 rmoveto
          -33 hlineto
          -118 -45 11 109 hvcurveto
          256 20 callgsubr
          -257 vlineto
          -153 71 callsubr
          -189 vlineto
          -20 7 -19 26 -9 callsubr
          573 40 callsubr
          -19 -12 -9 -31 vhcurveto
          -203 vlineto
          -112 -54 -61 -110 vhcurveto
          endchar
        </CharString>
        <CharString name="Chi">
          0 -38 callsubr
          -75 callgsubr
        </CharString>
        <CharString name="D">
          57 81 callgsubr
          84 -17 callgsubr
          568 454 rmoveto
          154 64 callsubr
          -230 hlineto
          -17 -12 -11 -29 hvcurveto
          -556 58 callgsubr
          -62 1 rmoveto
          -111 -46 -10 -129 vhcurveto
          -185 512 197 hlineto
          117 46 -10 -111 hvcurveto
          endchar
        </CharString>
        <CharString name="Dcaron">
          57 10 callsubr
          29 154 hstem
          84 62 10 288 62 62 vstem
          330 665 -102 callgsubr
          298 -211 rmoveto
          154 64 callsubr
          -230 hlineto
          -17 -12 -11 -29 hvcurveto
          -556 58 callgsubr
          -62 1 rmoveto
          -111 -46 -10 -129 vhcurveto
          -185 512 197 hlineto
          117 46 -10 -111 hvcurveto
          endchar
        </CharString>
        <CharString name="Dcroat">
          -49 callsubr
        </CharString>
        <CharString name="Decyrillic">
          11 -92 154 -62 53 callgsubr
          hstemhm
          12 62 100 66 190 62 -2 -36 callsubr
          hintmask 01111010
          74 -52 rmoveto
          52 416 -52 vlineto
          hintmask 10111010
          8 callgsubr
          hintmask 01111010
          52 vlineto
          hintmask 01111100
          60 -39 2 -21 vhcurveto
          574 -318 vlineto
          -213 -63 -293 -36 -68 vhcurveto
          -18 -45 -2 -60 hvcurveto
          -52 vlineto
          hintmask 10111010
          8 callgsubr
          hintmask 01111100
          69 114 rmoveto
          40 84 54 265 3 163 rrcurveto
          190 -512 hlineto
          endchar
        </CharString>
        <CharString name="Delta">
          -10 0 63 581 -20 hstem
          515 hmoveto
          19 13 12 18 6 -2 7 -1 3 hvcurveto
          -223 572 rlineto
          12 -4 -10 14 -21 hhcurveto
          -21 -10 -14 -12 -4 hvcurveto
          -223 -572 rlineto
          -1 -3 -2 -7 -6 vvcurveto
          -18 13 -12 19 vhcurveto
          229 545 rmoveto
          186 -482 rlineto
          -372 hlineto
          endchar
        </CharString>
        <CharString name="Djecyrillic">
          140 -205 62 157 57 callsubr
          636 rmoveto
          13 callsubr
          -110 vhcurveto
          -376 vlineto
          -40 -10 -15 -40 -29 -14 -12 -19 -25 21 -6 22 60 52 11 123 vhcurveto
          361 61 callsubr
          151 vlineto
          34 6 18 12 13 -5 19 -35 hvcurveto
          endchar
        </CharString>
        <CharString name="Dzecyrillic">
          51 callgsubr
          hstem
          61 62 382 62 vstem
          123 478 -101 callgsubr
          endchar
        </CharString>
        <CharString name="Dzhecyrillic">
          62 0 62 hstem
          85 62 142 66 142 62 cntrmask 01110000
          289 -52 rmoveto
          -29 13 -11 20 27 6 18 22 vhcurveto
          52 204 581 vlineto
          24 callsubr
          -350 519 20 callgsubr
          -581 204 vlineto
          endchar
        </CharString>
        <CharString name="E">
          -29 callsubr
          82 callsubr
          327 rmoveto
          262 hlineto
          25 18 6 23 20 -12 13 -31 hvcurveto
          -262 185 383 hlineto
          23 16 -59 callsubr
          -28 hvcurveto
          -416 hlineto
          -17 -12 -11 -29 hvcurveto
          -556 vlineto
          -22 6 -18 23 vhcurveto
          416 hlineto
          23 16 -59 callsubr
          -28 hvcurveto
          -383 hlineto
          endchar
        </CharString>
        <CharString name="E.smallcap">
          72 34 callgsubr
          hstem
          85 62 vstem
          147 263 rmoveto
          262 hlineto
          25 18 6 23 20 -12 13 -31 hvcurveto
          -262 165 383 hlineto
          23 16 -59 callsubr
          -28 hvcurveto
          -416 hlineto
          -17 -12 -11 -29 hvcurveto
          -472 vlineto
          -22 6 -18 23 vhcurveto
          416 hlineto
          23 16 -59 callsubr
          -28 hvcurveto
          -383 hlineto
          endchar
        </CharString>
        <CharString name="Eacute">
          -29 callsubr
          42 141 hstem
          84 62 114 142 vstem
          146 327 rmoveto
          262 hlineto
          25 18 6 23 20 -12 13 -31 hvcurveto
          -262 185 383 hlineto
          23 16 -59 callsubr
          -28 hvcurveto
          -416 hlineto
          -17 -12 -11 -29 hvcurveto
          -556 vlineto
          -22 6 -18 23 vhcurveto
          416 hlineto
          23 16 -59 callsubr
          -28 hvcurveto
          -383 hlineto
          197 742 rmoveto
          -104 callgsubr
          endchar
        </CharString>
        <CharString name="Ecaron">
          -29 callsubr
          29 154 hstem
          84 62 31 288 vstem
          351 665 -102 callgsubr
          -145 -338 rmoveto
          262 hlineto
          25 18 6 23 20 -12 13 -31 hvcurveto
          -262 185 383 hlineto
          23 16 -59 callsubr
          -28 hvcurveto
          -416 hlineto
          -17 -12 -11 -29 hvcurveto
          -556 vlineto
          -22 6 -18 23 vhcurveto
          416 hlineto
          23 16 -59 callsubr
          -28 hvcurveto
          -383 hlineto
          endchar
        </CharString>
        <CharString name="Ecircumflex">
          -29 callsubr
          10 173 hstem
          84 62 29 293 vstem
          146 327 rmoveto
          262 hlineto
          25 18 6 23 20 -12 13 -31 hvcurveto
          -262 185 383 hlineto
          23 16 -59 callsubr
          -28 hvcurveto
          -416 hlineto
          -17 -12 -11 -29 hvcurveto
          -556 vlineto
          -22 6 -18 23 vhcurveto
          416 hlineto
          23 16 -59 callsubr
          -28 hvcurveto
          -383 hlineto
          36 633 -107 callgsubr
          endchar
        </CharString>
        <CharString name="Edieresis">
          -29 callsubr
          61 92 hstem
          84 62 47 11 callsubr
          vstem
          146 327 rmoveto
          262 hlineto
          25 18 6 23 20 -12 13 -31 hvcurveto
          -262 185 383 hlineto
          23 16 -59 callsubr
          -28 hvcurveto
          -416 hlineto
          -17 -12 -11 -29 hvcurveto
          -556 vlineto
          -22 6 -18 23 vhcurveto
          416 hlineto
          23 16 -59 callsubr
          -28 hvcurveto
          -383 hlineto
          159 681 rmoveto
          28 -35 18 -21 -22 -34 -18 -28 -28 32 -18 24 22 34 -35 callsubr
          146 hmoveto
          44 callgsubr
        </CharString>
        <CharString name="Edotaccent">
          98 callsubr
          92 hstem
          84 62 119 112 vstem
          377 752 rmoveto
          28 -35 18 -21 -22 -34 -18 -28 -28 32 -18 24 22 34 -35 callsubr
          -231 -425 rmoveto
          262 hlineto
          25 18 6 23 20 -12 13 -31 hvcurveto
          -262 185 383 hlineto
          23 16 -59 callsubr
          -28 hvcurveto
          -416 hlineto
          -17 -12 -11 -29 hvcurveto
          -556 vlineto
          -22 6 -18 23 vhcurveto
          416 hlineto
          23 16 -59 callsubr
          -28 hvcurveto
          -383 hlineto
          endchar
        </CharString>
        <CharString name="Efcyrillic">
          -14 14 -21 82 55 376 55 82 -20 hstem
          42 62 149 66 145 62 vstem
          319 29 rmoveto
          46 vlineto
          122 14 85 83 140 vvcurveto
          12 vlineto
          140 -85 83 -122 14 vhcurveto
          45 vlineto
          33 -21 4 -12 -12 -21 -4 -33 vhcurveto
          -45 vlineto
          -125 -12 -86 -84 -141 vvcurveto
          -12 vlineto
          -141 86 -84 125 -12 vhcurveto
          -46 vlineto
          -28 18 -8 14 28 6 19 17 vhcurveto
          145 295 rmoveto
          -12 vlineto
          -103 -51 -67 -94 -11 vhcurveto
          374 vlineto
          94 -12 51 -67 -102 vvcurveto
          -360 -12 rmoveto
          12 vlineto
          104 52 67 97 11 vhcurveto
          -376 vlineto
          -101 12 -48 69 101 vvcurveto
          endchar
        </CharString>
        <CharString name="Egrave">
          -29 callsubr
          42 141 hstem
          84 62 63 142 vstem
          146 327 rmoveto
          262 hlineto
          25 18 6 23 20 -12 13 -31 hvcurveto
          -262 185 383 hlineto
          23 16 -59 callsubr
          -28 hvcurveto
          -416 hlineto
          -17 -12 -11 -29 hvcurveto
          -556 vlineto
          -22 6 -18 23 vhcurveto
          416 hlineto
          23 16 -59 callsubr
          -28 hvcurveto
          -383 hlineto
          122 742 -99 callsubr
          endchar
        </CharString>
        <CharString name="Elcyrillic">
          13 81 callgsubr
          113 69 266 62 vstem
          510 32 rmoveto
          604 -272 vlineto
          -103 -22 -39 -91 hvcurveto
          -392 72 callgsubr
          62 57 13 117 vhcurveto
          391 vlineto
          38 13 15 50 vhcurveto
          203 -542 hlineto
          -33 -35 callgsubr
          19 13 10 29 vhcurveto
          endchar
        </CharString>
        <CharString name="Emacron">
          98 callsubr
          63 hstem
          84 62 15 320 vstem
          197 769 -84 callgsubr
          -296 -442 rmoveto
          262 hlineto
          25 18 6 23 20 -12 13 -31 hvcurveto
          -262 185 383 hlineto
          23 16 -59 callsubr
          -28 hvcurveto
          -416 hlineto
          -17 -12 -11 -29 hvcurveto
          -556 vlineto
          -22 6 -18 23 vhcurveto
          416 hlineto
          23 16 -59 callsubr
          -28 hvcurveto
          -383 hlineto
          endchar
        </CharString>
        <CharString name="Emcyrillic">
          91 -38 callsubr
          hstem
          84 62 381 62 vstem
          336 279 rmoveto
          9 9 4 6 5 hvcurveto
          168 245 rlineto
          -501 vlineto
          -30 12 -10 18 19 13 11 27 vhcurveto
          573 vlineto
          29 -12 10 -18 -13 -10 -7 -14 -10 vhcurveto
          -190 -272 -189 272 rlineto
          15 -10 -10 6 -14 hhcurveto
          -23 -6 -19 -20 hvcurveto
          -573 vlineto
          -27 -7 callsubr
          19 12 10 30 101 callgsubr
          168 -245 rlineto
          -3 3 6 -7 13 hhcurveto
          endchar
        </CharString>
        <CharString name="Encyrillic">
          70 -7 21 298 62 249 20 hstem
          84 -17 callgsubr
          146 31 -77 callgsubr
        </CharString>
        <CharString name="Eng">
          71 -175 62 127 -21 650 -20 hstem
          84 -17 callgsubr
          506 107 rmoveto
          -359 515 rlineto
          15 -10 -10 6 -14 hhcurveto
          -23 -6 -19 -20 hvcurveto
          -573 vlineto
          -27 -7 callsubr
          25 6 16 20 101 callgsubr
          360 -518 rlineto
          -12 vlineto
          -103 -44 -10 -112 -23 -18 -6 -24 -26 20 -6 21 131 87 23 152 vhcurveto
          604 55 callsubr
          -12 -18 -5 -36 vhcurveto
          endchar
        </CharString>
        <CharString name="Eogonek">
          34 -205 60 145 62 265 62 190 62 hstem
          84 62 90 62 vstem
          146 327 rmoveto
          262 hlineto
          25 18 6 23 20 -12 13 -31 hvcurveto
          -262 190 383 hlineto
          23 16 -59 callsubr
          -28 hvcurveto
          -416 hlineto
          -17 -12 -11 -29 hvcurveto
          -561 vlineto
          -22 6 -18 23 vhcurveto
          169 hlineto
          -24 -31 -22 -38 -27 -71 callsubr
          9 20 58 49 29 hvcurveto
          162 hlineto
          23 16 -59 callsubr
          -28 hvcurveto
          -383 hlineto
          endchar
        </CharString>
        <CharString name="Epsilon">
          -29 callsubr
          82 callsubr
          327 rmoveto
          262 hlineto
          25 18 6 23 20 -12 13 -31 hvcurveto
          -262 185 383 hlineto
          23 16 -59 callsubr
          -28 hvcurveto
          -416 hlineto
          -17 -12 -11 -29 hvcurveto
          -556 vlineto
          -22 6 -18 23 vhcurveto
          416 hlineto
          23 16 -59 callsubr
          -28 hvcurveto
          -383 hlineto
          endchar
        </CharString>
        <CharString name="Epsilontonos">
          74 -23 callgsubr
          -57 214 hstemhm
          10 63 -10 62 -2 -36 callsubr
          hintmask 00010100
          96 72 callsubr
          hintmask 00011000
          -85 callsubr
          hintmask 00010100
          -61 callgsubr
          hintmask 11100010
          89 -466 rmoveto
          262 hlineto
          25 18 6 23 20 -12 13 -31 hvcurveto
          -262 185 383 hlineto
          23 16 -59 callsubr
          -28 hvcurveto
          -416 hlineto
          -17 -12 -11 -29 hvcurveto
          -556 vlineto
          -22 6 -18 23 vhcurveto
          416 hlineto
          23 16 -59 callsubr
          -28 hvcurveto
          -383 hlineto
          endchar
        </CharString>
        <CharString name="Ercyrillic">
          -20 -7 21 308 62 190 62 hstem
          84 75 callgsubr
          146 29 rmoveto
          293 199 vlineto
          114 67 55 102 127 -87 30 -140 hvcurveto
          -186 hlineto
          -17 -12 -11 -29 hvcurveto
          -567 vlineto
          -30 -45 callsubr
          17 vhcurveto
          153 355 rmoveto
          -153 190 153 hlineto
          116 49 -12 -83 -78 -39 -17 -126 hvcurveto
          endchar
        </CharString>
        <CharString name="Ereversedcyrillic">
          95 callgsubr
          54 -17 callgsubr
          159 636 rmoveto
          -93 -12 -60 -56 -30 -7 callsubr
          12 19 6 32 42 10 15 40 hvcurveto
          134 hlineto
          131 45 -11 -106 hvcurveto
          -93 -264 vlineto
          -23 -17 -6 -23 -26 19 -7 21 hvcurveto
          264 -121 hlineto
          -108 -46 -11 -130 vhcurveto
          -134 hlineto
          -38 -12 13 44 32 -19 6 -12 -25 -6 -20 -20 -57 100 callgsubr
          141 hlineto
          152 86 28 151 hvcurveto
          278 vlineto
          151 -86 -16 callsubr
          endchar
        </CharString>
        <CharString name="Escyrillic">
          28 81 callgsubr
          71 -17 callgsubr
          450 hmoveto
          -92 callgsubr
          -154 85 -28 153 vhcurveto
          endchar
        </CharString>
        <CharString name="Eta">
          70 -7 21 298 62 249 20 hstem
          84 -17 callgsubr
          146 31 -77 callgsubr
        </CharString>
        <CharString name="Etatonos">
          112 -7 21 298 62 201 214 -166 20 hstemhm
          9 63 -10 62 2 62 360 -36 callsubr
          hintmask 00100100
          95 789 -76 callgsubr
          hintmask 11010011
          93 -758 -77 callgsubr
        </CharString>
        <CharString name="Eth">
          -49 callsubr
        </CharString>
        <CharString name="Euro">
          -11 -10 62 176 63 55 63 175 62 hstem
          107 62 277 62 vstem
          477 489 rmoveto
          2 callsubr
          57 -12 60 -93 hvcurveto
          -63 hlineto
          -132 -101 -82 -155 hvcurveto
          -26 hlineto
          -31 -6 -18 -12 -16 9 -17 28 hvcurveto
          26 -55 -26 hlineto
          -25 -12 -13 -18 -26 19 -6 18 hvcurveto
          26 hlineto
          -156 101 -82 132 vhcurveto
          63 -88 callgsubr
          -56 hlineto
          -82 -89 35 141 hvcurveto
          189 hlineto
          23 16 12 18 20 -14 13 -25 hvcurveto
          -189 55 189 hlineto
          23 16 12 19 20 -14 12 -25 hvcurveto
          -189 hlineto
          113 62 62 109 vhcurveto
          56 hlineto
          38 12 -13 -44 -32 19 -6 12 hvcurveto
          endchar
        </CharString>
        <CharString name="F">
          14 14 -21 334 6 callgsubr
          82 callsubr
          31 -4 callsubr
        </CharString>
        <CharString name="Fitacyrillic">
          32 -9 62 217 62 -22 62 211 62 hstemhm
          65 62 360 -36 callsubr
          hintmask 11011100
          413 332 rmoveto
          hintmask 10111100
          -41 -117 40 -70 hhcurveto
          -17 -22 -6 -12 -19 hvcurveto
          49 vlineto
          112 62 68 118 118 62 -68 -112 vhcurveto
          -40 vlineto
          -7 -9 -37 -24 -28 hhcurveto
          136 -103 rmoveto
          178 vlineto
          151 -102 87 -140 -141 -101 -87 -151 vhcurveto
          -178 vlineto
          -151 101 -87 141 -67 callgsubr
          vhcurveto
          -62 4 rmoveto
          -113 -62 -67 -118 -118 -62 67 113 vhcurveto
          47 vlineto
          7 10 34 23 27 hhcurveto
          hintmask 11011100
          41 118 -40 70 hhcurveto
          23 22 10 9 15 hvcurveto
          endchar
        </CharString>
        <CharString name="G">
          38 callsubr
          hstem
          71 -17 callgsubr
          493 241 -89 callsubr
          endchar
        </CharString>
        <CharString name="Gamma">
          -6 -7 21 560 62 hstem
          82 62 vstem
          194 574 rmoveto
          318 hlineto
          20 20 6 25 25 -20 6 -20 hvcurveto
          -325 hlineto
          -84 -21 -40 -90 hvcurveto
          -475 vlineto
          -33 18 -5 12 19 13 11 27 vhcurveto
          490 vlineto
          39 10 14 40 vhcurveto
          endchar
        </CharString>
        <CharString name="Gbreve">
          38 callsubr
          62 64 hstem
          71 62 66 77 callsubr
          44 62 vstem
          199 819 -92 callsubr
          231 -578 -89 callsubr
          endchar
        </CharString>
        <CharString name="Gcircumflex">
          38 callsubr
          10 173 hstem
          71 62 31 293 36 62 vstem
          493 241 -89 callsubr
          -193 454 -107 callgsubr
          endchar
        </CharString>
        <CharString name="Gcommaaccent">
          43 100 callsubr
          44 62 179 62 271 62 hstemhm
          71 62 135 57 -57 103 122 -36 callsubr
          hintmask 10000010
          365 -95 -45 callgsubr
          hintmask 10000100
          -76 callsubr
          hintmask 10000010
          -68 callsubr
          hintmask 10000100
          -26 callsubr
          hintmask 01111001
          168 419 -89 callsubr
          endchar
        </CharString>
        <CharString name="Gdotaccent">
          38 callsubr
          60 92 hstem
          71 62 131 112 117 62 vstem
          376 742 rmoveto
          28 -35 18 -21 -22 -34 -18 -28 -28 32 -18 24 22 34 -35 callsubr
          117 -501 -89 callsubr
          endchar
        </CharString>
        <CharString name="Gecyrillic">
          -6 14 -21 581 62 hstem
          82 62 vstem
          194 574 rmoveto
          318 hlineto
          20 20 6 25 25 -20 6 -20 hvcurveto
          -325 hlineto
          -84 -21 -40 -90 hvcurveto
          -475 vlineto
          -33 18 -5 12 19 13 11 27 vhcurveto
          490 vlineto
          39 10 14 40 vhcurveto
          endchar
        </CharString>
        <CharString name="Gheupturncyrillic">
          -1 14 -21 581 62 hstem
          82 62 346 62 vstem
          552 574 rmoveto
          134 vlineto
          35 -18 5 -12 -18 -14 -12 -28 vhcurveto
          -72 -303 vlineto
          -84 -21 -40 -90 hvcurveto
          -475 vlineto
          -33 18 -5 12 19 13 11 27 vhcurveto
          490 vlineto
          39 10 14 40 vhcurveto
          endchar
        </CharString>
        <CharString name="Gjecyrillic">
          -6 -7 21 560 62 42 141 hstem
          82 62 135 142 vstem
          194 574 rmoveto
          318 hlineto
          20 20 6 25 25 -20 6 -20 hvcurveto
          -325 hlineto
          -84 -21 -40 -90 hvcurveto
          -475 vlineto
          -33 18 -5 12 19 13 11 27 vhcurveto
          490 vlineto
          39 10 14 40 vhcurveto
          168 230 rmoveto
          -104 callgsubr
          endchar
        </CharString>
        <CharString name="H">
          70 14 -21 319 62 269 -20 hstem
          84 -17 callgsubr
          146 31 -77 callgsubr
        </CharString>
        <CharString name="Hardsigncyrillic">
          53 -7 62 354 62 103 62 hstem
          155 75 callgsubr
          155 574 rmoveto
          -542 vlineto
          -29 13 -10 18 vhcurveto
          188 hlineto
          135 88 112 127 124 -87 115 -138 hvcurveto
          -155 165 79 callgsubr
          308 -165 rmoveto
          112 51 -91 -86 -87 -50 -90 -111 hvcurveto
          -157 354 hlineto
          endchar
        </CharString>
        <CharString name="Hbar">
          74 14 -21 319 62 134 43 92 -20 hstem
          86 -17 callgsubr
          54 508 rmoveto
          32 -477 hlineto
          -66 callsubr
          281 360 -281 vlineto
          -33 19 -5 13 24 6 18 20 vhcurveto
          477 29 vlineto
          19 10 8 12 15 -10 8 -19 hvcurveto
          -29 53 hlineto
          29 -13 10 -19 46 callgsubr
          -53 -360 53 vlineto
          21 -8 18 -25 -23 -6 -19 -20 vhcurveto
          -53 -32 vlineto
          -18 -8 -8 -13 -14 8 -8 18 hvcurveto
          454 hmoveto
          -134 -360 134 vlineto
          endchar
        </CharString>
        <CharString name="Hcircumflex">
          70 -7 21 298 62 249 20 3 173 hstem
          84 62 32 293 35 62 vstem
          185 695 -107 callgsubr
          -146 -788 -77 callgsubr
        </CharString>
        <CharString name="I">
          -352 14 -21 650 -20 82 callsubr
          29 -90 callgsubr
          endchar
        </CharString>
        <CharString name="I.smallcap">
          -351 14 -21 hstem
          85 62 vstem
          147 29 rmoveto
          493 95 callsubr
          -493 vlineto
          -30 -45 callsubr
          17 vhcurveto
          endchar
        </CharString>
        <CharString name="IAcyrillic">
          26 -7 62 229 57 233 62 hstem
          89 62 310 63 vstem
          316 574 rmoveto
          145 -233 -145 hlineto
          -112 -53 28 88 83 45 34 120 hvcurveto
          145 -545 rmoveto
          -16 7 -20 26 16 14 10 26 vhcurveto
          567 vlineto
          16 -3 24 -26 vhcurveto
          -179 hlineto
          -130 -97 -45 -131 -63 24 -67 85 -30 hvcurveto
          -27 -22 -18 -29 -9 -33 -27 -99 rcurveline
          -17 -5 -25 -45 86 callgsubr
          51 49 75 20 hvcurveto
          24 90 rlineto
          47 13 26 30 73 hhcurveto
          143 hlineto
          endchar
        </CharString>
        <CharString name="IUcyrillic">
          158 -9 62 239 62 229 62 hstem
          84 62 46 63 358 62 vstem
          437 583 rmoveto
          114 -27 callgsubr
          -174 -19 callsubr
          -114 -114 -68 66 112 vhcurveto
          174 vlineto
          111 68 67 114 vhcurveto
          -592 vmoveto
          135 103 87 151 hvcurveto
          178 vlineto
          151 -103 87 -135 -140 -105 -87 -151 vhcurveto
          -53 -46 253 vlineto
          29 -17 7 -14 -12 -19 -6 -31 vhcurveto
          -577 97 callgsubr
          264 46 -63 vlineto
          -151 105 -87 140 vhcurveto
          endchar
        </CharString>
        <CharString name="Iacute">
          -352 -7 21 609 78 callgsubr
          hintmask 11010000
          146 29 -90 callgsubr
          hintmask 00101000
          22 776 rmoveto
          -104 callgsubr
          endchar
        </CharString>
        <CharString name="Icircumflex">
          4 callgsubr
          3 173 hstemhm
          -30 293 -179 -36 callsubr
          hintmask 11001000
          146 29 -90 callgsubr
          hintmask 00110000
          -169 666 -107 callgsubr
          endchar
        </CharString>
        <CharString name="Icyrillic">
          4 callgsubr
          82 callsubr
          29 -90 callgsubr
          endchar
        </CharString>
        <CharString name="Idieresis">
          4 callgsubr
          54 92 hstemhm
          -13 112 -15 62 -13 112 hintmask 00000000
          hintmask 11001000
          146 29 -90 callgsubr
          hintmask 00110100
          -47 714 rmoveto
          28 -35 18 -21 -22 -34 -18 -28 -28 32 -18 24 22 34 -35 callsubr
          146 hmoveto
          44 callgsubr
        </CharString>
        <CharString name="Idotaccent">
          4 callgsubr
          53 92 hstemhm
          59 48 callsubr
          171 742 rmoveto
          28 -35 18 -21 -22 -34 -18 -28 -28 32 -18 24 22 34 -35 callsubr
          hintmask 11001000
          -25 -713 -90 callgsubr
          endchar
        </CharString>
        <CharString name="Ie.ukran">
          95 callgsubr
          71 -17 callgsubr
          450 636 rmoveto
          -141 hlineto
          -152 -86 -28 -151 hvcurveto
          -278 vlineto
          -151 86 -28 152 vhcurveto
          141 hlineto
          93 12 60 57 58 callsubr
          -130 -46 11 108 hvcurveto
          121 264 vlineto
          21 19 7 26 23 -17 6 -23 hvcurveto
          -264 93 hlineto
          106 45 11 131 vhcurveto
          134 hlineto
          40 10 -15 -42 -32 19 -6 12 19 12 11 30 56 -12 60 -93 hvcurveto
          endchar
        </CharString>
        <CharString name="Iecyrillic">
          -29 callsubr
          82 callsubr
          327 rmoveto
          262 hlineto
          25 18 6 23 20 -12 13 -31 hvcurveto
          -262 185 383 hlineto
          23 16 -59 callsubr
          -28 hvcurveto
          -416 hlineto
          -17 -12 -11 -29 hvcurveto
          -556 vlineto
          -22 6 -18 23 vhcurveto
          416 hlineto
          23 16 -59 callsubr
          -28 hvcurveto
          -383 hlineto
          endchar
        </CharString>
        <CharString name="Igrave">
          4 callgsubr
          36 141 hstemhm
          4 142 -62 -36 callsubr
          hintmask 11001000
          146 29 -90 callgsubr
          hintmask 00110000
          -83 776 -99 callsubr
          endchar
        </CharString>
        <CharString name="Iicyrillic">
          70 14 -21 650 -20 hstem
          84 -17 callgsubr
          -56 callgsubr
          endchar
        </CharString>
        <CharString name="Iicyrillic_grave">
          70 -38 callsubr
          -17 188 hstemhm
          84 62 69 165 126 -36 callsubr
          hintmask 11010100
          -56 callgsubr
          hintmask 00101000
          160 804 -95 callgsubr
          endchar
        </CharString>
        <CharString name="Iishortcyrillic">
          70 -38 callsubr
          -7 62 hstemhm
          84 62 27 6 callgsubr
          24 -36 callsubr
          hintmask 11010010
          -56 callgsubr
          hintmask 00101100
          272 643 -60 callsubr
          endchar
        </CharString>
        <CharString name="Imacron">
          4 callgsubr
          63 63 hstemhm
          -45 320 -191 -36 callsubr
          hintmask 00110000
          -9 769 -84 callgsubr
          hintmask 11001000
          -90 -740 -90 callgsubr
          endchar
        </CharString>
        <CharString name="Iocyrillic">
          -29 callsubr
          61 92 hstem
          84 62 47 11 callsubr
          vstem
          146 327 rmoveto
          262 hlineto
          25 18 6 23 20 -12 13 -31 hvcurveto
          -262 185 383 hlineto
          23 16 -59 callsubr
          -28 hvcurveto
          -416 hlineto
          -17 -12 -11 -29 hvcurveto
          -556 vlineto
          -22 6 -18 23 vhcurveto
          416 hlineto
          23 16 -59 callsubr
          -28 hvcurveto
          -383 hlineto
          159 681 rmoveto
          28 -35 18 -21 -22 -34 -18 -28 -28 32 -18 24 22 34 -35 callsubr
          146 hmoveto
          44 callgsubr
        </CharString>
        <CharString name="Iogonek">
          -348 -205 60 788 -20 hstem
          8 62 18 62 vstem
          88 39 rmoveto
          -31 -31 -49 -63 -41 -71 callsubr
          9 17 52 44 30 hvcurveto
          15 5 4 15 14 vvcurveto
          577 95 callsubr
          endchar
        </CharString>
        <CharString name="Iota">
          4 callgsubr
          82 callsubr
          29 -90 callgsubr
          endchar
        </CharString>
        <CharString name="Iotadieresis">
          4 callgsubr
          54 92 hstemhm
          -13 112 -15 62 -13 112 hintmask 00000000
          hintmask 11001000
          146 29 -90 callgsubr
          hintmask 00110100
          -47 714 rmoveto
          28 -35 18 -21 -22 -34 -18 -28 -28 32 -18 24 22 34 -35 callsubr
          146 hmoveto
          44 callgsubr
        </CharString>
        <CharString name="Iotatonos">
          -308 -7 21 565 214 -170 20 hstemhm
          7 63 -10 62 6 -36 callsubr
          hintmask 01001000
          93 -37 callgsubr
          hintmask 10100100
          97 -764 -90 callgsubr
          endchar
        </CharString>
        <CharString name="Itilde">
          4 callgsubr
          63 2 callgsubr
          -31 291 -176 -36 callsubr
          hintmask 00011000
          161 -2 callgsubr
          hintmask 00101000
          -80 callsubr
          hintmask 00011000
          -84 callsubr
          hintmask 00101000
          -94 callsubr
          hintmask 00011000
          -80 callgsubr
          hintmask 00101000
          -78 callsubr
          hintmask 11000100
          -15 -746 -90 callgsubr
          endchar
        </CharString>
        <CharString name="J">
          -11 -8 62 589 -20 hstem
          33 63 332 62 vstem
          262 54 -43 callgsubr
        </CharString>
        <CharString name="Jcircumflex">
          -11 -8 62 569 20 4 173 hstemhm
          33 63 211 293 -172 -36 callsubr
          hintmask 00101000
          314 696 -107 callgsubr
          hintmask 11010100
          -159 -766 -43 callgsubr
        </CharString>
        <CharString name="Jecyrillic">
          -11 -8 62 569 20 hstem
          33 63 332 62 vstem
          262 54 -43 callgsubr
        </CharString>
        <CharString name="K">
          -43 14 -21 650 -20 hstem
          84 62 vstem
          534 23 -63 callgsubr
        </CharString>
        <CharString name="Kacyrillic">
          13 -7 62 210 62 220 62 hstem
          84 62 254 63 vstem
          -43 callsubr
          endchar
        </CharString>
        <CharString name="Kappa">
          -43 -38 callsubr
          hstem
          84 62 vstem
          534 23 -63 callgsubr
        </CharString>
        <CharString name="Kcommaaccent">
          -43 -161 161 -38 callsubr
          hstemhm
          84 62 111 27 callsubr
          hintmask 10000100
          354 -51 -45 callgsubr
          hintmask 10001000
          -59 callgsubr
          hintmask 10001000
          -26 callsubr
          hintmask 01110000
          220 157 -63 callgsubr
        </CharString>
        <CharString name="Khacyrillic">
          0 -38 callsubr
          -75 callgsubr
        </CharString>
        <CharString name="Kjecyrillic">
          13 -7 62 210 62 220 62 -25 188 hstemhm
          84 62 87 165 2 63 hintmask 00000000
          hintmask 11101010
          -43 callsubr
          hintmask 00010100
          146 573 -103 callgsubr
          endchar
        </CharString>
        <CharString name="L">
          -47 0 62 581 -20 hstem
          84 62 vstem
          113 hmoveto
          -46 callgsubr
        </CharString>
        <CharString name="Lacute">
          -47 0 62 561 78 callgsubr
          hintmask 00101000
          168 805 rmoveto
          -104 callgsubr
          hintmask 11010000
          -55 -805 rmoveto
          -46 callgsubr
        </CharString>
        <CharString name="Lambda">
          6 23 63 416 63 vstem
          23 4 rmoveto
          -16 22 -4 9 14 12 8 12 6 vhcurveto
          207 539 209 -539 rlineto
          -6 3 10 -14 19 hhcurveto
          9 22 4 16 4 -1 7 -2 10 hvcurveto
          -236 611 rlineto
          -64 hlineto
          -236 -611 rlineto
          -2 -10 -1 -7 -4 vvcurveto
          endchar
        </CharString>
        <CharString name="Lcaron">
          -47 0 62 432 161 -32 20 hstemhm
          84 62 43 27 callsubr
          hintmask 01000100
          286 604 -45 callgsubr
          hintmask 01001000
          -76 callsubr
          hintmask 01000100
          -68 callsubr
          hintmask 01001000
          -26 callsubr
          hintmask 10110000
          -133 -521 rmoveto
          -46 callgsubr
        </CharString>
        <CharString name="Lcommaaccent">
          -47 99 callgsubr
          84 62 96 27 callsubr
          hintmask 10000100
          339 -95 -45 callgsubr
          hintmask 10001000
          -59 callgsubr
          hintmask 10001000
          -26 callsubr
          hintmask 01110000
          -186 178 rmoveto
          -46 callgsubr
        </CharString>
        <CharString name="Ljecyrillic">
          332 -7 62 294 62 163 62 hstem
          113 63 272 62 306 62 vstem
          653 349 rmoveto
          113 50 -62 -85 -86 -50 -61 -111 hvcurveto
          -143 hlineto
          -2 294 rlineto
          62 vmoveto
          225 -272 vlineto
          -103 -22 -39 -91 hvcurveto
          -394 vlineto
          -38 -10 -14 -40 -34 -7 -17 -11 -23 15 -9 26 61 52 12 118 vhcurveto
          3 391 rlineto
          38 15 15 51 vhcurveto
          203 -542 hlineto
          -23 11 -16 22 vhcurveto
          174 85 callsubr
          -137 hvcurveto
          endchar
        </CharString>
        <CharString name="Lslash">
          -42 84 callsubr
          89 62 vstem
          118 hmoveto
          361 14 callsubr
          -328 264 hlineto
          69 35 rlineto
          23 callgsubr
          -46 -23 rlineto
          210 vlineto
          29 -17 7 -14 -14 -17 -7 -29 vhcurveto
          -242 vlineto
          -62 -31 18 callgsubr
          39 20 rlineto
          -257 91 callgsubr
          vhcurveto
          endchar
        </CharString>
        <CharString name="M">
          91 14 -21 650 -20 hstem
          84 62 381 62 vstem
          336 279 rmoveto
          9 9 4 6 5 hvcurveto
          168 245 rlineto
          -501 vlineto
          -30 12 -10 18 19 13 11 27 vhcurveto
          573 vlineto
          29 -12 10 -18 -13 -10 -7 -14 -10 vhcurveto
          -190 -272 -189 272 rlineto
          15 -10 -10 6 -14 hhcurveto
          -23 -6 -19 -20 hvcurveto
          -573 vlineto
          -27 -7 callsubr
          19 12 10 30 101 callgsubr
          168 -245 rlineto
          -3 3 6 -7 13 hhcurveto
          endchar
        </CharString>
        <CharString name="Mu">
          91 -38 callsubr
          hstem
          84 62 381 62 vstem
          336 279 rmoveto
          9 9 4 6 5 hvcurveto
          168 245 rlineto
          -501 vlineto
          -30 12 -10 18 19 13 11 27 vhcurveto
          573 vlineto
          29 -12 10 -18 -13 -10 -7 -14 -10 vhcurveto
          -190 -272 -189 272 rlineto
          15 -10 -10 6 -14 hhcurveto
          -23 -6 -19 -20 hvcurveto
          -573 vlineto
          -27 -7 callsubr
          19 12 10 30 101 callgsubr
          168 -245 rlineto
          -3 3 6 -7 13 hhcurveto
          endchar
        </CharString>
        <CharString name="N">
          70 14 -21 650 -20 hstem
          84 -17 callgsubr
          538 -7 -90 callsubr
          endchar
        </CharString>
        <CharString name="Nacute">
          70 -38 callsubr
          -17 188 hstemhm
          84 62 100 165 95 -36 callsubr
          hintmask 00101000
          305 643 -103 callgsubr
          hintmask 11010100
          233 -650 -90 callsubr
          endchar
        </CharString>
        <CharString name="Ncaron">
          70 -38 callsubr
          0 154 hstemhm
          84 62 19 288 53 -36 callsubr
          hintmask 00101000
          339 643 -102 callgsubr
          hintmask 11010100
          259 -650 -90 callsubr
          endchar
        </CharString>
        <CharString name="Ncommaaccent">
          70 -161 161 -38 callsubr
          hstemhm
          84 62 129 57 -57 103 128 -36 callsubr
          hintmask 10000100
          372 -51 -45 callgsubr
          hintmask 10001000
          -59 callgsubr
          hintmask 10001000
          -26 callsubr
          hintmask 01110010
          206 127 -90 callsubr
          endchar
        </CharString>
        <CharString name="Njecyrillic">
          370 -7 62 294 62 232 -20 hstem
          84 62 350 62 296 62 vstem
          695 349 rmoveto
          109 50 -62 -85 -86 -50 -61 -109 hvcurveto
          -137 294 hlineto
          62 vmoveto
          193 vlineto
          22 -6 17 -26 46 callgsubr
          -193 -350 193 vlineto
          20 -7 19 -26 -23 -6 -19 -20 vhcurveto
          -573 vlineto
          -27 -7 callsubr
          19 12 9 30 vhcurveto
          317 350 -316 vlineto
          -24 11 -16 20 vhcurveto
          168 hlineto
          135 86 85 124 124 -87 85 -134 hvcurveto
          endchar
        </CharString>
        <CharString name="Ntilde">
          70 -38 callsubr
          53 2 callgsubr
          84 62 33 291 36 -36 callsubr
          hintmask 11001010
          538 -7 -90 callsubr
          hintmask 00010100
          -167 772 -98 callsubr
          endchar
        </CharString>
        <CharString name="Nu">
          70 -38 callsubr
          hstem
          84 -17 callgsubr
          538 -7 -90 callsubr
          endchar
        </CharString>
        <CharString name="O">
          61 callgsubr
          -9 rmoveto
          0 callgsubr
          151 -102 87 -140 -141 -101 -87 -151 vhcurveto
          -68 callgsubr
        </CharString>
        <CharString name="O.smallcap">
          72 -9 62 446 62 hstem
          85 -17 callgsubr
          327 -9 rmoveto
          -67 callgsubr
          hvcurveto
          94 vlineto
          151 -102 87 -140 -141 -101 -87 -151 vhcurveto
          -94 vlineto
          -151 101 -87 141 vhcurveto
          508 33 callsubr
          -90 -97 callsubr
          90 23 callsubr
        </CharString>
        <CharString name="OE">
          161 -9 62 -53 62 265 62 187 60 -53 62 hstemhm
          64 62 261 -36 callsubr
          hintmask 10101110
          389 623 rmoveto
          15 -31 -36 7 -41 hhcurveto
          -96 -121 -87 -151 hvcurveto
          -178 vlineto
          -151 121 -87 100 42 34 7 15 32 vhcurveto
          hintmask 01110110
          -7 5 10 -6 13 hhcurveto
          236 hlineto
          23 17 6 23 26 -19 7 -21 hvcurveto
          -208 265 91 hlineto
          25 17 6 23 21 -13 12 -29 hvcurveto
          -91 187 211 hlineto
          21 19 7 25 22 -17 6 -23 hvcurveto
          -245 hlineto
          -11 -9 -3 -10 -6 hvcurveto
          hintmask 10101110
          -104 -570 rmoveto
          -75 -84 64 114 hvcurveto
          174 vlineto
          113 84 65 71 47 36 -10 -20 23 vhcurveto
          -470 vlineto
          -20 -25 -30 -10 -47 hhcurveto
          endchar
        </CharString>
        <CharString name="Oacute">
          32 -3 callsubr
          34 141 hstem
          65 62 149 142 69 62 vstem
          307 -9 rmoveto
          0 callgsubr
          151 -102 87 -140 -141 -101 -87 -151 vhcurveto
          -178 vlineto
          -151 101 -87 141 vhcurveto
          592 33 callsubr
          -174 -97 callsubr
          174 vlineto
          111 62 67 118 vhcurveto
          52 222 rmoveto
          -104 callgsubr
          endchar
        </CharString>
        <CharString name="Ocircumflex">
          32 -3 callsubr
          1 173 hstem
          65 62 34 293 33 62 vstem
          307 -9 rmoveto
          0 callgsubr
          151 -102 87 -140 -141 -101 -87 -151 vhcurveto
          -178 vlineto
          -151 101 -87 141 vhcurveto
          592 33 callsubr
          -174 -97 callsubr
          174 vlineto
          111 62 67 118 vhcurveto
          -139 112 -107 callgsubr
          endchar
        </CharString>
        <CharString name="Ocyrillic">
          61 callgsubr
          -9 rmoveto
          0 callgsubr
          151 -102 87 -140 -141 -101 -87 -151 vhcurveto
          -68 callgsubr
        </CharString>
        <CharString name="Odieresis">
          32 -3 callsubr
          52 92 hstem
          65 62 52 11 callsubr
          50 62 vstem
          307 -9 rmoveto
          0 callgsubr
          151 -102 87 -140 -141 -101 -87 -151 vhcurveto
          -178 vlineto
          -151 101 -87 141 vhcurveto
          592 33 callsubr
          -174 -97 callsubr
          174 vlineto
          111 62 67 118 vhcurveto
          -16 160 rmoveto
          28 -35 18 -21 -22 -34 -18 -28 -28 32 -18 24 22 34 -35 callsubr
          146 hmoveto
          44 callgsubr
        </CharString>
        <CharString name="Ograve">
          32 -3 callsubr
          34 141 hstem
          65 62 68 142 150 62 vstem
          307 -9 rmoveto
          0 callgsubr
          151 -102 87 -140 -141 -101 -87 -151 vhcurveto
          -178 vlineto
          -151 101 -87 141 vhcurveto
          592 33 callsubr
          -174 -97 callsubr
          174 vlineto
          111 62 67 118 vhcurveto
          -53 222 -99 callsubr
          endchar
        </CharString>
        <CharString name="Ohorn">
          57 -3 callsubr
          hstem
          65 36 callsubr
          35 64 vstem
          307 583 rmoveto
          118 -27 callgsubr
          -174 -97 callsubr
          174 vlineto
          111 62 67 118 vhcurveto
          -592 vmoveto
          0 callgsubr
          34 -6 30 -9 27 vhcurveto
          62 7 52 26 65 -98 callgsubr
          -28 -19 -14 -62 -1 vhcurveto
          57 -43 -70 31 -83 hhcurveto
          -141 -101 -87 -151 hvcurveto
          -178 vlineto
          -151 101 -87 141 vhcurveto
          endchar
        </CharString>
        <CharString name="Ohungarumlaut">
          32 -3 callsubr
          33 141 hstemhm
          65 62 86 142 -22 142 12 -36 callsubr
          hintmask 00101000
          296 -82 callsubr
          hintmask 00100100
          120 hmoveto
          -104 callgsubr
          hintmask 11010010
          -109 -813 rmoveto
          0 callgsubr
          151 -102 87 -140 -141 -101 -87 -151 vhcurveto
          -68 callgsubr
        </CharString>
        <CharString name="Omacron">
          32 -3 callsubr
          61 63 hstem
          65 62 20 320 20 62 cntrmask 00011100
          183 769 -84 callgsubr
          -121 -778 rmoveto
          0 callgsubr
          151 -102 87 -140 -141 -101 -87 -151 vhcurveto
          -68 callgsubr
        </CharString>
        <CharString name="Omega">
          30 0 62 521 62 hstem
          64 62 70 67 86 67 70 62 vstem
          349 151 rmoveto
          -49 vlineto
          -97 16 -5 86 vhcurveto
          57 hlineto
          20 20 6 25 25 -20 6 -20 hvcurveto
          -50 hlineto
          -42 0 0 26 hvcurveto
          23 vlineto
          80 34 52 74 108 vvcurveto
          80 vlineto
          151 -102 87 -140 -141 -101 -87 -151 vhcurveto
          -80 vlineto
          -108 52 -74 80 -34 vhcurveto
          -22 vlineto
          -26 0 -1 -42 vhcurveto
          -50 hlineto
          -20 -20 -6 -25 -25 20 -6 20 hvcurveto
          57 hlineto
          86 16 6 96 hvcurveto
          48 vlineto
          -37 9 -100 24 142 vvcurveto
          80 vlineto
          111 64 67 116 116 64 -67 -111 vhcurveto
          -80 vlineto
          -142 -101 -24 -36 -8 vhcurveto
          endchar
        </CharString>
        <CharString name="Omegatonos">
          53 0 62 517 214 -210 62 hstemhm
          36 63 -12 62 -60 62 68 67 86 67 70 1 callsubr
          hintmask 0100010000000000
          122 72 callsubr
          hintmask 0101000000000000
          -85 callsubr
          hintmask 0100010000000000
          -61 callgsubr
          hintmask 1010101110000000
          250 -642 rmoveto
          -49 vlineto
          -97 16 -5 86 vhcurveto
          57 hlineto
          20 20 6 25 25 -20 6 -20 hvcurveto
          -50 hlineto
          -42 0 0 26 hvcurveto
          23 vlineto
          80 34 52 74 108 vvcurveto
          80 vlineto
          151 -102 87 -140 -141 -101 -87 -151 vhcurveto
          -80 vlineto
          -108 52 -74 80 -34 vhcurveto
          -22 vlineto
          -26 0 -1 -42 vhcurveto
          -50 hlineto
          -20 -20 -6 -25 -25 20 -6 20 hvcurveto
          57 hlineto
          86 16 6 96 hvcurveto
          48 vlineto
          -37 9 -100 24 142 vvcurveto
          80 vlineto
          111 64 67 116 116 64 -67 -111 vhcurveto
          -80 vlineto
          -142 -101 -24 -36 -8 vhcurveto
          endchar
        </CharString>
        <CharString name="Omicron">
          61 callgsubr
          -9 rmoveto
          0 callgsubr
          151 -102 87 -140 -141 -101 -87 -151 vhcurveto
          -68 callgsubr
        </CharString>
        <CharString name="Omicrontonos">
          59 -9 62 526 214 -210 62 hstemhm
          23 63 -10 62 -46 62 360 -36 callsubr
          hintmask 01001000
          109 -37 callgsubr
          hintmask 10100110
          225 -802 rmoveto
          0 callgsubr
          151 -102 87 -140 -141 -101 -87 -151 vhcurveto
          -68 callgsubr
        </CharString>
        <CharString name="Oslash">
          47 callsubr
          56 43 -15 -28 31 hvcurveto
          -296 -392 rlineto
          -9 24 -5 28 31 vvcurveto
          174 vlineto
          111 62 67 118 vhcurveto
          214 49 rmoveto
          -8 -10 -4 -13 -10 hvcurveto
          -20 -26 rlineto
          37 -42 -58 19 -66 hhcurveto
          -141 -101 -87 -151 hvcurveto
          -178 vlineto
          -53 13 -46 22 -36 vhcurveto
          -27 -36 rlineto
          -7 -10 -3 -8 -7 vvcurveto
          -17 19 -12 13 12 9 8 9 7 vhcurveto
          19 25 rlineto
          -36 42 57 -19 66 hhcurveto
          0 callgsubr
          53 -12 44 -22 37 vhcurveto
          27 36 rlineto
          7 10 3 8 7 vvcurveto
          17 -16 13 -15 vhcurveto
          -48 -146 rmoveto
          9 -24 5 -27 -30 vvcurveto
          -174 -19 callsubr
          -118 -55 -43 15 27 -31 vhcurveto
          endchar
        </CharString>
        <CharString name="Otilde">
          32 -3 callsubr
          51 2 callgsubr
          65 62 34 291 35 -36 callsubr
          hintmask 11001010
          307 -9 rmoveto
          0 callgsubr
          151 -102 87 -140 -141 -101 -87 -151 vhcurveto
          -178 vlineto
          -151 101 -87 141 vhcurveto
          592 33 callsubr
          -174 -97 callsubr
          174 vlineto
          111 62 67 118 vhcurveto
          hintmask 00010100
          46 182 -98 callsubr
          endchar
        </CharString>
        <CharString name="P">
          -22 14 -21 329 62 190 62 hstem
          84 75 callgsubr
          146 29 rmoveto
          293 199 vlineto
          114 67 55 102 127 -87 30 -140 hvcurveto
          -186 hlineto
          -17 -12 -11 -29 hvcurveto
          -567 vlineto
          -30 -45 callsubr
          17 vhcurveto
          153 355 rmoveto
          -153 190 153 hlineto
          116 49 -12 -83 -78 -39 -17 -126 hvcurveto
          endchar
        </CharString>
        <CharString name="Pecyrillic">
          62 14 -21 581 6 callsubr
        </CharString>
        <CharString name="Phi">
          -14 -7 21 61 55 376 55 62 20 hstem
          42 62 149 66 145 62 vstem
          319 29 rmoveto
          46 vlineto
          122 14 85 83 140 vvcurveto
          12 vlineto
          140 -85 83 -122 14 vhcurveto
          45 vlineto
          33 -21 4 -12 -12 -21 -4 -33 vhcurveto
          -45 vlineto
          -125 -12 -86 -84 -141 vvcurveto
          -12 vlineto
          -141 86 -84 125 -12 vhcurveto
          -46 vlineto
          -28 18 -8 14 28 6 19 17 vhcurveto
          145 295 rmoveto
          -12 vlineto
          -103 -51 -67 -94 -11 vhcurveto
          374 vlineto
          94 -12 51 -67 -102 vvcurveto
          -360 -12 rmoveto
          12 vlineto
          104 52 67 97 11 vhcurveto
          -376 vlineto
          -101 12 -48 69 101 vvcurveto
          endchar
        </CharString>
        <CharString name="Pi">
          62 -7 21 560 6 callsubr
        </CharString>
        <CharString name="Psi">
          -2 14 -21 225 59 366 -20 hstem
          48 62 150 62 148 62 vstem
          470 605 rmoveto
          -156 vlineto
          -104 -53 -56 -95 -11 vhcurveto
          327 vlineto
          34 -19 4 -12 -12 -19 -4 -34 vhcurveto
          -328 vlineto
          -96 11 -54 56 105 vvcurveto
          156 vlineto
          32 74 callsubr
          -151 vlineto
          -141 88 -84 124 -12 vhcurveto
          -189 vlineto
          -28 16 -8 14 28 4 19 17 vhcurveto
          189 vlineto
          122 13 88 84 140 vvcurveto
          151 vlineto
          31 -18 6 -12 -12 -20 -6 -32 vhcurveto
          endchar
        </CharString>
        <CharString name="Q">
          47 callsubr
          118 -27 callgsubr
          -174 vlineto
          -46 -11 -39 -19 -28 vhcurveto
          -50 48 rlineto
          13 -13 -11 2 -7 hhcurveto
          -20 -12 -17 -14 -10 8 -11 7 -5 hvcurveto
          53 -47 rlineto
          -16 -27 -36 -8 -42 hhcurveto
          -118 -62 66 112 hvcurveto
          174 vlineto
          111 62 67 118 vhcurveto
          -592 vmoveto
          58 53 14 26 39 hvcurveto
          32 -32 rlineto
          -9 9 13 -2 6 hhcurveto
          17 12 16 14 8 -4 11 -8 8 hvcurveto
          -32 30 rlineto
          30 38 17 53 63 vvcurveto
          178 vlineto
          151 -102 87 -140 -141 -101 -87 -151 vhcurveto
          -178 vlineto
          -151 101 -87 141 vhcurveto
          endchar
        </CharString>
        <CharString name="R">
          7 14 -21 324 62 190 67 hstemhm
          84 62 318 62 -54 -36 callsubr
          hintmask 11111000
          414 329 -53 callsubr
          hintmask 11110100
          -41 callgsubr
          hintmask 11111000
          19 callgsubr
        </CharString>
        <CharString name="Racute">
          7 -7 21 303 62 190 67 42 141 hstemhm
          84 62 69 142 107 62 -54 -36 callsubr
          hintmask 00010100
          298 -82 callsubr
          hintmask 11101010
          116 -475 -53 callsubr
          hintmask 11101001
          -41 callgsubr
          hintmask 11101010
          19 callgsubr
        </CharString>
        <CharString name="Rcaron">
          7 -7 21 303 62 190 67 29 154 hstemhm
          84 62 -7 288 37 62 -54 -36 callsubr
          hintmask 00010100
          313 665 -102 callgsubr
          hintmask 11101010
          161 -336 -53 callsubr
          hintmask 11101001
          -41 callgsubr
          hintmask 11101010
          19 callgsubr
        </CharString>
        <CharString name="Rcommaaccent">
          7 -161 161 -7 21 303 62 190 67 hstemhm
          84 62 111 57 -57 103 104 62 -54 1 callsubr
          hintmask 1000001000000000
          354 -51 -45 callgsubr
          hintmask 1000010000000000
          -76 callsubr
          hintmask 1000001000000000
          -68 callsubr
          hintmask 1000010000000000
          -26 callsubr
          hintmask 0111100100000000
          100 463 -53 callsubr
          hintmask 0111100010000000
          -41 callgsubr
          hintmask 0111100100000000
          19 callgsubr
        </CharString>
        <CharString name="Rho">
          -20 -7 21 308 62 190 62 hstem
          84 75 callgsubr
          146 29 rmoveto
          293 199 vlineto
          114 67 55 102 127 -87 30 -140 hvcurveto
          -186 hlineto
          -17 -12 -11 -29 hvcurveto
          -567 vlineto
          -30 -45 callsubr
          17 vhcurveto
          153 355 rmoveto
          -153 190 153 hlineto
          116 49 -12 -83 -78 -39 -17 -126 hvcurveto
          endchar
        </CharString>
        <CharString name="S">
          51 callgsubr
          hstem
          61 62 382 62 vstem
          123 478 -101 callgsubr
          endchar
        </CharString>
        <CharString name="Sacute">
          51 callgsubr
          34 141 hstem
          61 62 107 142 133 62 vstem
          313 -82 callsubr
          -190 -326 -101 callgsubr
          endchar
        </CharString>
        <CharString name="Scaron">
          51 callgsubr
          21 154 hstem
          61 62 46 288 48 62 vstem
          123 478 -101 callgsubr
          220 187 -102 callgsubr
          endchar
        </CharString>
        <CharString name="Scedilla">
          46 -180 60 112 62 528 62 hstem
          61 62 196 62 124 62 vstem
          123 478 rmoveto
          37 20 67 84 vhcurveto
          102 hlineto
          133 42 -9 -112 -23 12 -15 55 callgsubr
          158 -88 25 -150 hvcurveto
          -76 hlineto
          -151 -41 -87 -77 -91 36 -49 98 -20 hvcurveto
          254 -52 rlineto
          19 -4 37 -34 -70 vvcurveto
          -38 -18 -68 -79 vhcurveto
          -110 hlineto
          -131 -43 11 112 23 -12 15 -18 -21 -12 -14 -24 -141 69 -37 121 -6 hvcurveto
          10 -57 58 -13 -22 -60 callgsubr
          53 -48 6 -16 27 hvcurveto
          71 hlineto
          140 39 89 77 75 -30 79 -102 20 hvcurveto
          -256 50 rlineto
          -29 7 -27 37 52 vvcurveto
          endchar
        </CharString>
        <CharString name="Scircumflex">
          51 callgsubr
          2 173 hstem
          61 62 42 293 47 62 vstem
          172 695 -107 callgsubr
          -156 -341 -101 callgsubr
          endchar
        </CharString>
        <CharString name="Scommaaccent">
          46 100 callsubr
          36 62 528 62 hstemhm
          61 62 129 57 -57 103 150 -36 callsubr
          hintmask 10000100
          349 -95 -45 callgsubr
          hintmask 10001000
          -59 callgsubr
          hintmask 10001000
          -26 callsubr
          hintmask 01110010
          -186 656 -101 callgsubr
          endchar
        </CharString>
        <CharString name="Shacyrillic">
          134 0 62 hstem
          85 62 180 62 180 62 cntrmask 01110000
          85 hmoveto
          546 581 hlineto
          24 callsubr
          -180 79 callsubr
          -519 -180 519 20 callgsubr
          endchar
        </CharString>
        <CharString name="Shchacyrillic">
          150 0 62 hstemhm
          85 35 callsubr
          182 62 -4 -36 callsubr
          hintmask 11101000
          325 581 rmoveto
          -519 -178 519 20 callgsubr
          -581 542 -52 vlineto
          8 callgsubr
          52 vlineto
          hintmask 11110000
          57 -35 5 -23 vhcurveto
          519 vlineto
          24 callsubr
          -182 79 callsubr
          endchar
        </CharString>
        <CharString name="Sigma">
          15 0 62 523 62 hstem
          31 -30 callsubr
        </CharString>
        <CharString name="Softsigncyrillic">
          -18 -7 62 354 62 hstem
          84 75 callgsubr
          -12 callsubr
          endchar
        </CharString>
        <CharString name="T">
          -82 14 -21 581 62 hstem
          216 69 vstem
          435 636 -73 callgsubr
        </CharString>
        <CharString name="Tau">
          -82 -7 21 560 62 hstem
          216 69 vstem
          435 636 -73 callgsubr
        </CharString>
        <CharString name="Tbar">
          -82 14 -21 315 63 203 62 hstem
          216 69 vstem
          435 636 -18 callgsubr
          -203 -92 hlineto
          -28 -8 -18 -13 -16 9 -16 27 hvcurveto
          92 -279 hlineto
          -30 20 -6 13 15 21 7 29 vhcurveto
          279 84 vlineto
          21 18 11 19 21 -15 12 -24 hvcurveto
          -84 203 150 14 callsubr
          endchar
        </CharString>
        <CharString name="Tcaron">
          -82 -7 21 560 62 29 154 hstemhm
          106 288 -178 69 hintmask 00000000
          hintmask 00110000
          280 665 -102 callgsubr
          hintmask 11001000
          215 -29 -73 callgsubr
        </CharString>
        <CharString name="Tcommaaccent">
          -82 -180 60 694 62 hstemhm
          216 69 0 -36 callsubr
          hintmask 11100000
          216 10 rmoveto
          hintmask 11010000
          -71 69 -14 -24 -60 callgsubr
          hvcurveto
          hintmask 11100000
          61 -62 4 35 vvcurveto
          568 150 -14 callgsubr
          -41 callsubr
          hlineto
          endchar
        </CharString>
        <CharString name="Tecyrillic">
          -82 -7 21 560 62 hstem
          216 69 vstem
          435 636 -73 callgsubr
        </CharString>
        <CharString name="Theta">
          32 -9 62 233 63 234 62 hstem
          65 -17 callgsubr
          215 286 rmoveto
          181 98 callgsubr
          -181 99 callsubr
          92 -295 rmoveto
          0 callgsubr
          151 -102 87 -140 -141 -101 -87 -151 vhcurveto
          -68 callgsubr
        </CharString>
        <CharString name="Thorn">
          -42 14 -21 164 56 196 62 hstem
          84 62 296 63 vstem
          146 471 rmoveto
          102 vlineto
          32 -19 6 -12 -12 -19 -6 -32 vhcurveto
          -543 vlineto
          -31 -45 callsubr
          18 vhcurveto
          127 176 vlineto
          114 69 54 104 102 -68 54 -114 hvcurveto
          -48 -62 rmoveto
          122 45 -16 -82 -83 -42 -15 -126 hvcurveto
          -128 196 hlineto
          endchar
        </CharString>
        <CharString name="Tsecyrillic">
          20 0 62 hstemhm
          85 62 292 62 -4 88 callsubr
          559 -52 rmoveto
          52 vlineto
          hintmask 11100000
          57 -35 5 -23 vhcurveto
          519 vlineto
          24 callsubr
          -292 519 20 callgsubr
          -581 vlineto
          hintmask 11010000
          412 -52 hlineto
          8 callgsubr
          endchar
        </CharString>
        <CharString name="Tshecyrillic">
          140 14 57 callsubr
          574 rmoveto
          34 6 18 12 13 -5 19 -35 hvcurveto
          13 callsubr
          -109 vhcurveto
          -256 vlineto
          -19 6 -21 26 18 12 10 30 vhcurveto
          257 61 callsubr
          vlineto
          endchar
        </CharString>
        <CharString name="U">
          58 -9 62 590 -20 hstem
          78 -17 callgsubr
          -67 callsubr
          endchar
        </CharString>
        <CharString name="Uacute">
          22 callgsubr
          -17 188 hstemhm
          78 62 150 165 45 -36 callsubr
          hintmask 11010100
          -67 callsubr
          hintmask 00101000
          -151 36 -103 callgsubr
          endchar
        </CharString>
        <CharString name="Ubreve">
          22 callgsubr
          -7 64 hstemhm
          78 62 52 77 callsubr
          58 -36 callsubr
          hintmask 00101100
          192 757 -92 callsubr
          hintmask 11010010
          245 -150 -100 callgsubr
          endchar
        </CharString>
        <CharString name="Ucircumflex">
          22 callgsubr
          3 173 hstem
          78 62 34 293 33 62 vstem
          -67 callsubr
          -319 88 -107 callgsubr
          endchar
        </CharString>
        <CharString name="Ucyrillic">
          -34 -6 62 hstemhm
          43 62 -42 62 340 88 callsubr
          13 callgsubr
          hintmask 10110000
          -31 -11 12 45 20 -6 18 -25 -40 callsubr
          41 38 19 31 15 hvcurveto
          262 550 rlineto
          2 5 1 4 5 vvcurveto
          17 -15 11 -14 -13 -12 -6 -18 -8 vhcurveto
          endchar
        </CharString>
        <CharString name="Udieresis">
          22 callgsubr
          54 92 hstem
          78 62 52 11 callsubr
          50 62 vstem
          -67 callsubr
          -196 136 rmoveto
          28 -35 18 -21 -22 -34 -18 -28 -28 32 -18 24 22 34 -35 callsubr
          146 hmoveto
          44 callgsubr
        </CharString>
        <CharString name="Ugrave">
          22 callgsubr
          -17 188 hstemhm
          78 62 69 165 126 -36 callsubr
          hintmask 11010100
          -67 callsubr
          hintmask 00101000
          -232 190 -95 callgsubr
          endchar
        </CharString>
        <CharString name="Uhorn">
          98 -9 62 439 61 90 -20 hstem
          78 36 callsubr
          67 64 vstem
          500 607 -93 callgsubr
          -151 101 -87 141 -67 callgsubr
          vhcurveto
          263 vlineto
          69 4 62 24 71 -98 callgsubr
          -26 -16 -13 -51 -3 vhcurveto
          53 42 callgsubr
        </CharString>
        <CharString name="Uhungarumlaut">
          22 callgsubr
          -17 188 hstemhm
          78 62 63 165 -25 165 -8 -36 callsubr
          hintmask 00101000
          262 643 -103 callgsubr
          hintmask 00100100
          140 hmoveto
          -105 callsubr
          hintmask 11010010
          98 -36 -100 callgsubr
          endchar
        </CharString>
        <CharString name="Umacron">
          22 callgsubr
          63 63 hstem
          78 62 20 320 20 62 cntrmask 00011100
          196 769 -84 callgsubr
          59 -162 -100 callgsubr
          endchar
        </CharString>
        <CharString name="Uogonek">
          59 -205 60 788 -20 hstem
          78 62 95 62 203 62 vstem
          500 607 -93 callgsubr
          -135 81 -84 118 -16 vhcurveto
          -22 -30 -20 -34 -26 -71 callsubr
          8 17 51 41 30 hvcurveto
          122 14 85 84 138 vvcurveto
          377 42 callgsubr
        </CharString>
        <CharString name="Upsilon">
          -41 -38 callsubr
          hstem
          238 65 vstem
          -57 callgsubr
          endchar
        </CharString>
        <CharString name="Upsilondieresis">
          -58 callsubr
        </CharString>
        <CharString name="Upsilontonos">
          70 -7 21 561 214 -166 20 hstemhm
          19 63 -10 62 215 65 hintmask 00000000
          hintmask 01001000
          105 789 -32 callsubr
          hintmask 10100100
          244 -482 -100 callsubr
          endchar
        </CharString>
        <CharString name="Uring">
          22 callgsubr
          -13 44 76 44 hstemhm
          78 62 100 44 76 44 96 -36 callsubr
          hintmask 00110110
          284 712 -66 callgsubr
          hintmask 11001001
          260 -105 -100 callgsubr
          endchar
        </CharString>
        <CharString name="Ushortcyrillic">
          -34 -6 62 580 62 hstemhm
          43 62 -42 62 7 6 callgsubr
          24 -36 callsubr
          hintmask 10100010
          13 callgsubr
          hintmask 10010010
          -31 -11 12 45 20 -6 18 -25 -40 callsubr
          41 38 19 31 15 hvcurveto
          262 550 rlineto
          2 5 1 4 5 vvcurveto
          17 -15 11 -14 -13 -12 -6 -18 -8 vhcurveto
          hintmask 01001100
          -120 24 -60 callsubr
          endchar
        </CharString>
        <CharString name="Utilde">
          22 callgsubr
          63 2 callgsubr
          78 62 35 291 34 -36 callsubr
          hintmask 00010100
          367 775 -98 callsubr
          hintmask 11001010
          133 -168 -100 callgsubr
          endchar
        </CharString>
        <CharString name="V">
          8 21 -21 hstem
          24 63 416 63 vstem
          503 626 rmoveto
          -207 -536 -209 536 rlineto
          15 -7 -10 11 -15 hhcurveto
          -8 -23 -6 -24 -5 1 -6 2 -6 hvcurveto
          232 -605 rlineto
          72 hlineto
          232 605 rlineto
          2 6 1 6 5 vvcurveto
          24 -23 6 -8 -13 -12 -10 -16 -7 vhcurveto
          endchar
        </CharString>
        <CharString name="Vecyrillic">
          -79 callgsubr
        </CharString>
        <CharString name="W">
          353 21 -21 hstem
          679 84 rmoveto
          -175 538 rlineto
          23 -7 -15 7 -15 hhcurveto
          -9 -18 -6 -23 -8 hvcurveto
          -174 -539 -169 544 rlineto
          13 -5 -8 12 -20 hhcurveto
          -28 -1 -18 -7 -5 0 -1 4 -12 hvcurveto
          194 -610 rlineto
          65 hlineto
          177 542 178 -542 rlineto
          66 hlineto
          193 606 rlineto
          4 12 0 1 5 vvcurveto
          6 -1 19 -28 -20 -8 -12 -13 -5 vhcurveto
          endchar
        </CharString>
        <CharString name="Wacute">
          353 0 21 657 141 hstem
          441 142 vstem
          524 -82 callsubr
          155 -720 rmoveto
          -175 538 rlineto
          23 -7 -15 7 -15 hhcurveto
          -9 -18 -6 -23 -8 hvcurveto
          -174 -539 -169 544 rlineto
          13 -5 -8 12 -20 hhcurveto
          -28 -1 -18 -7 -5 0 -1 4 -12 hvcurveto
          194 -610 rlineto
          65 hlineto
          177 542 178 -542 rlineto
          66 hlineto
          193 606 rlineto
          4 12 0 1 5 vvcurveto
          6 -1 19 -28 -20 -8 -12 -13 -5 vhcurveto
          endchar
        </CharString>
        <CharString name="Wcircumflex">
          353 0 21 625 173 hstem
          321 293 vstem
          328 695 -107 callgsubr
          244 -735 rmoveto
          -175 538 rlineto
          23 -7 -15 7 -15 hhcurveto
          -9 -18 -6 -23 -8 hvcurveto
          -174 -539 -169 544 rlineto
          13 -5 -8 12 -20 hhcurveto
          -28 -1 -18 -7 -5 0 -1 4 -12 hvcurveto
          194 -610 rlineto
          65 hlineto
          177 542 178 -542 rlineto
          66 hlineto
          193 606 rlineto
          4 12 0 1 5 vvcurveto
          6 -1 19 -28 -20 -8 -12 -13 -5 vhcurveto
          endchar
        </CharString>
        <CharString name="Wdieresis">
          353 0 21 693 92 hstem
          339 11 callsubr
          vstem
          451 760 rmoveto
          28 -35 18 -21 -22 -34 -18 -28 -28 32 -18 24 22 34 -35 callsubr
          146 -93 callsubr
          82 -676 rmoveto
          -175 538 rlineto
          23 -7 -15 7 -15 hhcurveto
          -9 -18 -6 -23 -8 hvcurveto
          -174 -539 -169 544 rlineto
          13 -5 -8 12 -20 hhcurveto
          -28 -1 -18 -7 -5 0 -1 4 -12 hvcurveto
          194 -610 rlineto
          65 hlineto
          177 542 178 -542 rlineto
          66 hlineto
          193 606 rlineto
          4 12 0 1 5 vvcurveto
          6 -1 19 -28 -20 -8 -12 -13 -5 vhcurveto
          endchar
        </CharString>
        <CharString name="Wgrave">
          353 0 21 657 141 hstem
          344 142 vstem
          403 804 -99 callsubr
          206 -651 rmoveto
          -175 538 rlineto
          23 -7 -15 7 -15 hhcurveto
          -9 -18 -6 -23 -8 hvcurveto
          -174 -539 -169 544 rlineto
          13 -5 -8 12 -20 hhcurveto
          -28 -1 -18 -7 -5 0 -1 4 -12 hvcurveto
          194 -610 rlineto
          65 hlineto
          177 542 178 -542 rlineto
          66 hlineto
          193 606 rlineto
          4 12 0 1 5 vvcurveto
          6 -1 19 -28 -20 -8 -12 -13 -5 vhcurveto
          endchar
        </CharString>
        <CharString name="X">
          0 14 -21 650 -20 -75 callgsubr
        </CharString>
        <CharString name="Xi">
          42 0 62 224 63 236 62 hstem
          205 286 rmoveto
          211 98 callgsubr
          -211 99 callsubr
          -119 299 rmoveto
          450 15 callgsubr
          -450 hlineto
          -28 -8 -18 -13 -25 19 -6 17 hvcurveto
          -585 vmoveto
          450 15 callgsubr
          -450 hlineto
          -28 -8 -18 -13 -25 19 -6 17 hvcurveto
          endchar
        </CharString>
        <CharString name="Y">
          -41 14 -21 650 -20 hstem
          238 65 vstem
          -57 callgsubr
          endchar
        </CharString>
        <CharString name="Yacute">
          -41 -38 callsubr
          -17 188 hstemhm
          238 65 -63 165 hintmask 00000000
          hintmask 11010000
          -57 callgsubr
          hintmask 00101000
          273 53 -103 callgsubr
          endchar
        </CharString>
        <CharString name="Yatcyrillic">
          88 -7 62 294 62 38 60 134 -20 hstem
          208 64 300 62 vstem
          208 604 rmoveto
          -97 -141 vlineto
          -18 -20 -6 -23 -25 20 -6 18 hvcurveto
          141 -415 hlineto
          -23 9 -16 22 vhcurveto
          172 85 callsubr
          -135 hvcurveto
          -139 38 150 hlineto
          17 23 6 23 18 -13 13 -27 hvcurveto
          -150 95 hlineto
          22 -6 17 -28 46 callgsubr
          203 -255 rmoveto
          111 50 -62 -85 -86 -50 -61 -111 hvcurveto
          -139 294 hlineto
          endchar
        </CharString>
        <CharString name="Ycircumflex">
          -41 -38 callsubr
          3 173 hstemhm
          123 293 -178 65 hintmask 00000000
          hintmask 00110000
          130 695 -107 callgsubr
          hintmask 11001000
          1 -512 -100 callsubr
          endchar
        </CharString>
        <CharString name="Ydieresis">
          -58 callsubr
        </CharString>
        <CharString name="Yericyrillic">
          111 -7 21 -21 62 354 62 152 20 hstemhm
          84 62 318 62 21 -36 callsubr
          hintmask 01101100
          -12 callsubr
          hintmask 10010010
          463 -380 -90 callgsubr
          endchar
        </CharString>
        <CharString name="Ygrave">
          -41 -38 callsubr
          -12 188 hstemhm
          138 165 -65 65 hintmask 00000000
          hintmask 00110000
          197 802 -95 callgsubr
          hintmask 11001000
          -55 -380 -100 callsubr
          endchar
        </CharString>
        <CharString name="Yicyrillic">
          4 callgsubr
          54 92 hstemhm
          -13 112 -15 62 -13 112 hintmask 00000000
          hintmask 11001000
          146 29 -90 callgsubr
          hintmask 00110100
          -47 714 rmoveto
          28 -35 18 -21 -22 -34 -18 -28 -28 32 -18 24 22 34 -35 callsubr
          146 hmoveto
          44 callgsubr
        </CharString>
        <CharString name="Z">
          -2 81 callgsubr
          49 hmoveto
          -62 callgsubr
          endchar
        </CharString>
        <CharString name="Zacute">
          -2 10 callsubr
          42 141 hstem
          235 142 vstem
          318 -82 callsubr
          -269 -804 rmoveto
          -62 callgsubr
          endchar
        </CharString>
        <CharString name="Zcaron">
          -2 10 callsubr
          29 154 hstem
          152 288 vstem
          49 hmoveto
          -62 callgsubr
          277 607 -102 callgsubr
          endchar
        </CharString>
        <CharString name="Zdotaccent">
          -2 10 callsubr
          60 92 hstem
          214 112 vstem
          326 742 rmoveto
          28 -35 18 -21 -22 -34 -18 -28 -28 32 -18 24 22 34 -35 callsubr
          -277 -742 rmoveto
          -62 callgsubr
          endchar
        </CharString>
        <CharString name="Zecyrillic">
          22 0 62 235 62 124 -21 112 62 hstem
          56 -17 callgsubr
          269 359 rmoveto
          -24 -17 -6 -25 -25 17 -6 24 hvcurveto
          86 hlineto
          78 45 -54 -63 -41 -39 -77 -88 hvcurveto
          -183 30 callsubr
          18 vlineto
          28 -13 12 -19 -12 -18 -5 -35 28 callsubr
          197 hlineto
          111 71 83 95 62 -28 54 -43 33 hvcurveto
          43 29 28 50 62 vvcurveto
          95 -71 73 -111 vhcurveto
          -197 hlineto
          42 callsubr
          -35 18 -5 57 callgsubr
          87 40 -65 -43 -64 -47 -43 -76 hvcurveto
          endchar
        </CharString>
        <CharString name="Zeta">
          -2 81 callgsubr
          49 hmoveto
          -62 callgsubr
          endchar
        </CharString>
        <CharString name="Zhecyrillic">
          108 -7 62 220 62 220 62 hstem
          131 63 121 62 119 63 cntrmask 11100000
          315 337 rmoveto
          -70 2 -51 25 38 vvcurveto
          83 vlineto
          123 -53 78 callsubr
          -15 -40 vhcurveto
          -93 vlineto
          -50 22 -33 32 -20 vhcurveto
          -32 -20 -22 -33 -50 vvcurveto
          -93 vlineto
          -40 -10 -15 -40 -36 -5 -19 -12 -19 11 -12 30 60 53 11 123 vhcurveto
          83 vlineto
          38 51 25 70 2 vhcurveto
          -245 vlineto
          -31 -35 callgsubr
          15 17 7 30 vhcurveto
          245 vlineto
          52 -5 67 -29 -31 vvcurveto
          -83 vlineto
          -123 53 -11 60 8 callsubr
          -40 -10 15 40 vhcurveto
          93 vlineto
          26 -5 44 -44 31 vhcurveto
          29 19 20 33 53 vvcurveto
          93 vlineto
          69 callgsubr
          9 callgsubr
          -60 -53 -11 -123 vhcurveto
          -83 vlineto
          -38 -48 -25 -71 -2 vhcurveto
          243 vlineto
          33 -18 5 -13 -25 -6 -20 -18 vhcurveto
          endchar
        </CharString>
        <CharString name="a">
          -33 callgsubr
          hstem
          60 62 318 -91 callgsubr
          endchar
        </CharString>
        <CharString name="aacute">
          -33 callgsubr
          59 callsubr
          60 62 129 165 24 -91 callgsubr
          -130 217 -103 callgsubr
          endchar
        </CharString>
        <CharString name="abreve">
          -33 callgsubr
          61 64 hstem
          60 62 36 77 callsubr
          32 62 vstem
          158 643 -92 callsubr
          77 -405 -107 callsubr
          endchar
        </CharString>
        <CharString name="acircumflex">
          -33 callgsubr
          56 173 hstem
          60 62 13 293 12 -91 callgsubr
          -298 266 -107 callgsubr
          endchar
        </CharString>
        <CharString name="acute">
          -370 500 188 hstem
          24 165 vstem
          83 -83 callgsubr
          endchar
        </CharString>
        <CharString name="acutecomb">
          500 141 hstem
          -380 142 vstem
          -297 626 rmoveto
          -104 callgsubr
          endchar
        </CharString>
        <CharString name="acyrillic">
          -33 callgsubr
          hstem
          60 62 318 -91 callgsubr
          endchar
        </CharString>
        <CharString name="adieresis">
          -33 callgsubr
          51 92 hstem
          60 62 30 11 callsubr
          30 -91 callgsubr
          -176 258 rmoveto
          28 -35 18 -21 -22 -34 -18 -28 -28 32 -18 24 22 34 -35 callsubr
          146 hmoveto
          44 callgsubr
        </CharString>
        <CharString name="ae">
          382 -26 callgsubr
          hstem
          60 62 310 65 345 62 vstem
          288 238 rmoveto
          144 hlineto
          2 -10 rlineto
          -82 -34 -84 -135 vhcurveto
          -93 hlineto
          -23 -27 27 32 107 44 10 122 hvcurveto
          389 161 rmoveto
          115 46 -12 -87 4 hvcurveto
          -345 hlineto
          87 4 47 12 121 hhcurveto
          235 -115 rmoveto
          149 -85 28 -142 vhcurveto
          -8 hlineto
          -82 -64 -8 -35 -41 hvcurveto
          30 -15 -30 13 -50 hhcurveto
          -155 hlineto
          -95 -77 -32 -85 -34 -63 callsubr
          17 23 33 29 22 88 hvcurveto
          141 hlineto
          41 11 -13 -36 hvcurveto
          -50 -144 vlineto
          -141 -87 -30 -144 -78 48 -48 64 hvcurveto
          93 hlineto
          57 92 24 50 44 hvcurveto
          -61 36 75 -13 100 hhcurveto
          130 -88 callgsubr
          -123 hlineto
          -125 -45 10 107 hvcurveto
          -2 59 rlineto
          407 hlineto
          endchar
        </CharString>
        <CharString name="afii00208">
          87 16 callsubr
          448 hlineto
          21 18 11 19 21 -15 12 -24 hvcurveto
          endchar
        </CharString>
        <CharString name="agrave">
          -33 callgsubr
          36 188 hstem
          60 62 48 165 105 -91 callgsubr
          -211 368 -95 callgsubr
          endchar
        </CharString>
        <CharString name="akayahli">
          9 -10 62 76 62 17 62 1 62 77 62 hstemhm
          63 62 228 174 -62 -36 callsubr
          hintmask 11111101
          175 52 rmoveto
          -40 -10 19 40 72 42 24 61 8 callsubr
          -72 -32 16 65 39 10 20 41 hvcurveto
          -10 callgsubr
          -22 -71 vlineto
          hintmask 11111110
          93 callgsubr
          16 -6 25 hvcurveto
          hintmask 11111101
          133 67 hlineto
          -27 callsubr
          -59 25 -27 29 -15 hvcurveto
          -25 -17 -29 -31 -64 vvcurveto
          17 callgsubr
          66 -133 vlineto
          hintmask 11111110
          93 callgsubr
          19 -6 22 hvcurveto
          hintmask 11111101
          71 -22 hlineto
          76 callsubr
          endchar
        </CharString>
        <CharString name="alpha">
          22 -9 callgsubr
          59 62 299 64 vstem
          534 hmoveto
          34 6 -34 callsubr
          316 vlineto
          24 -9 14 -22 -25 -8 -20 -20 vhcurveto
          -14 vlineto
          34 -42 -57 13 -54 hhcurveto
          -138 -70 -48 -149 hvcurveto
          -67 vlineto
          -149 70 -48 138 56 63 14 41 44 vhcurveto
          -39 14 30 -16 53 hhcurveto
          -260 399 rmoveto
          83 70 -27 -108 hvcurveto
          -67 vlineto
          -108 -70 -27 -83 -111 -35 25 110 vhcurveto
          67 vlineto
          110 35 25 111 vhcurveto
          endchar
        </CharString>
        <CharString name="alphatonos">
          22 0 -25 callgsubr
          68 214 hstemhm
          59 62 134 63 -10 62 50 64 hintmask 00000000
          hintmask 00100100
          341 743 -76 callgsubr
          hintmask 11010010
          193 -743 rmoveto
          34 6 -34 callsubr
          316 vlineto
          24 -9 14 -22 -25 -8 -20 -20 vhcurveto
          -14 vlineto
          34 -42 -57 13 -54 hhcurveto
          -138 -70 -48 -149 hvcurveto
          -67 vlineto
          -149 70 -48 138 56 63 14 41 44 vhcurveto
          -39 14 30 -16 53 hhcurveto
          -260 399 rmoveto
          83 70 -27 -108 hvcurveto
          -67 vlineto
          -108 -70 -27 -83 -111 -35 25 110 vhcurveto
          67 vlineto
          110 35 25 111 vhcurveto
          endchar
        </CharString>
        <CharString name="amacron">
          -33 callgsubr
          61 63 hstemhm
          60 62 -2 320 0 -36 callsubr
          hintmask 00010100
          156 585 -84 callgsubr
          hintmask 11101010
          -103 -347 -107 callsubr
          endchar
        </CharString>
        <CharString name="ampersand">
          -62 -19 62 552 62 hstemhm
          40 62 -37 64 293 61 hintmask 00000000
          hintmask 11101000
          358 85 rmoveto
          -28 -32 -40 -14 -32 hhcurveto
          -64 -88 31 108 45 16 55 44 30 hvcurveto
          235 216 rmoveto
          18 -53 111 -96 vhcurveto
          hintmask 11011000
          -83 -100 -70 -111 -34 16 -35 33 -40 hvcurveto
          8 -9 rlineto
          hintmask 11101000
          -60 -45 -22 -73 -58 vvcurveto
          -150 128 -51 86 48 52 19 38 44 vhcurveto
          32 -37 rlineto
          -12 11 12 -6 11 hhcurveto
          9 18 6 22 7 -1 9 -7 8 hvcurveto
          -44 49 rlineto
          27 39 17 48 56 vvcurveto
          25 -8 16 -21 -26 -6 -19 -22 -36 -9 -32 -16 -26 vhcurveto
          -231 267 rlineto
          hintmask 11011000
          -28 32 -9 26 18 vvcurveto
          77 64 42 55 vhcurveto
          72 5 -97 41 hhcurveto
          18 13 14 16 hvcurveto
          endchar
        </CharString>
        <CharString name="anoteleia">
          -336 341 92 hstem
          67 112 vstem
          179 387 rmoveto
          44 callgsubr
        </CharString>
        <CharString name="aogonek">
          -8 -205 60 145 -14 callsubr
          hstem
          60 62 239 62 17 62 vstem
          492 hmoveto
          6 6 4 10 15 vvcurveto
          302 vlineto
          90 -21 38 -84 vhcurveto
          -155 hlineto
          -105 -77 -32 -85 -34 -63 callsubr
          17 23 33 29 22 98 hvcurveto
          141 hlineto
          40 10 -13 -36 hvcurveto
          -50 -142 vlineto
          -151 -87 -30 -144 -78 48 -48 64 hvcurveto
          93 hlineto
          70 64 17 39 41 hvcurveto
          -18 vlineto
          -31 -32 -48 -62 -40 -71 callsubr
          10 24 59 45 27 hvcurveto
          -194 238 rmoveto
          142 -10 hlineto
          -82 -33 -84 -142 vhcurveto
          -93 hlineto
          -23 -27 27 32 107 -18 callsubr
          hvcurveto
          endchar
        </CharString>
        <CharString name="approxequal">
          -39 249 66 -26 66 14 66 -26 66 hstemhm
          hintmask 00000000
          hintmask 10000000
          472 328 7 callgsubr
          hintmask 00100000
          120 vmoveto
          21 -25 7 -14 vhcurveto
          -33 -15 -41 -35 hhcurveto
          hintmask 00010000
          -32 -78 40 -50 hhcurveto
          -36 -75 -47 -31 -22 25 -7 12 hvcurveto
          34 14 41 36 hhcurveto
          hintmask 00100000
          32 77 -40 50 hhcurveto
          36 77 47 32 hvcurveto
          endchar
        </CharString>
        <CharString name="aring">
          -33 callgsubr
          51 44 76 44 hstem
          60 62 78 44 76 44 76 -91 callgsubr
          -196 294 -66 callgsubr
          endchar
        </CharString>
        <CharString name="asciicircum">
          -139 355 291 hstem
          75 61 170 62 vstem
          136 379 rmoveto
          86 190 84 -190 rlineto
          -18 9 12 -6 13 hhcurveto
          17 11 11 17 6 0 3 -2 5 hvcurveto
          -111 249 rlineto
          -66 hlineto
          -112 -249 rlineto
          -2 -5 0 -4 -5 vvcurveto
          -17 13 -11 15 12 13 4 20 8 vhcurveto
          endchar
        </CharString>
        <CharString name="asciitilde">
          -151 172 2 callgsubr
          70 291 hintmask 00000000
          hintmask 01100000
          262 241 -86 callgsubr
          endchar
        </CharString>
        <CharString name="asterisk">
          -177 336 310 hstem
          171 62 vstem
          233 437 rmoveto
          -35 63 4 -3 11 hhcurveto
          23 7 24 6 14 -10 9 -11 7 hvcurveto
          -55 33 55 31 rlineto
          11 7 10 9 14 vvcurveto
          13 -12 17 -18 -12 2 0 -38 -68 vhcurveto
          63 vlineto
          38 callgsubr
          -63 vlineto
          35 -63 -4 3 -11 hhcurveto
          -23 -6 -24 -6 -6 2 -14 18 -10 hvcurveto
          56 -31 -56 -33 rlineto
          -18 -11 -2 -13 -6 vvcurveto
          -13 12 -17 17 12 -2 0 38 68 vhcurveto
          -63 vlineto
          -32 19 63 callsubr
          endchar
        </CharString>
        <CharString name="at">
          21 -10 62 128 62 179 62 101 62 hstem
          70 62 43 62 139 62 35 62 vstem
          70 241 rmoveto
          -158 87 -93 131 vhcurveto
          141 hlineto
          93 13 60 56 35 -19 6 -13 -24 -6 -19 -19 -44 -12 -13 -39 hvcurveto
          -134 hlineto
          -106 -50 72 117 hvcurveto
          154 vlineto
          117 50 72 106 vhcurveto
          29 hlineto
          105 51 -72 -117 -100 -11 -26 -32 -11 hvcurveto
          6 20 2 25 29 vvcurveto
          101 -26 50 -106 -105 -26 -50 -101 -102 26 -50 105 217 12 88 127 158 -87 93 -131 vhcurveto
          -29 hlineto
          -131 -87 -93 -158 hvcurveto
          236 -153 rmoveto
          -62 -7 18 72 71 7 18 62 63 7 -19 -70 -71 -7 -19 -63 hvcurveto
          endchar
        </CharString>
        <CharString name="atilde">
          -33 callgsubr
          51 2 callgsubr
          60 62 14 291 13 -36 callsubr
          hintmask 11100101
          -95 callsubr
          hintmask 00001010
          -112 281 -87 callsubr
          endchar
        </CharString>
        <CharString name="b">
          56 callsubr
          137 405 rmoveto
          43 callsubr
          19 12 10 30 vhcurveto
          23 vlineto
          -38 41 64 -18 71 hhcurveto
          29 hlineto
          22 callsubr
          -29 hlineto
          -71 -64 32 callgsubr
          176 -6 rmoveto
          -81 callsubr
          -70 callgsubr
          -29 hlineto
          -143 -33 83 83 hvcurveto
          4 vlineto
          85 33 82 143 vhcurveto
          endchar
        </CharString>
        <CharString name="backslash">
          -215 42 62 159 62 vstem
          45 606 rmoveto
          218 -598 rlineto
          -10 4 9 -16 18 hhcurveto
          9 22 6 23 6 -1 5 -2 8 hvcurveto
          -218 599 rlineto
          19 -7 -11 7 -12 hhcurveto
          -10 -22 -6 -23 -4 1 -6 2 -10 hvcurveto
          endchar
        </CharString>
        <CharString name="bakayahli">
          -51 callgsubr
        </CharString>
        <CharString name="bar">
          -358 -38 callsubr
          hstem
          81 62 vstem
          143 29 -90 callgsubr
          endchar
        </CharString>
        <CharString name="becyrillic">
          55 0 -25 callgsubr
          113 62 hstem
          71 26 callgsubr
          350 399 rmoveto
          117 46 -10 -107 hvcurveto
          -70 callgsubr
          -30 hlineto
          -129 -47 callgsubr
          220 vlineto
          1 62 rmoveto
          110 4 87 3 247 hhcurveto
          22 19 -59 callsubr
          -30 -270 -131 -13 -170 hvcurveto
          -274 vlineto
          -151 85 -28 152 vhcurveto
          30 hlineto
          152 -61 callsubr
          149 64 callsubr
          endchar
        </CharString>
        <CharString name="beta">
          -75 -7 60 267 60 194 62 hstemhm
          75 62 214 62 -17 -36 callsubr
          hintmask 11110100
          137 41 rmoveto
          -34 39 48 -14 54 hhcurveto
          78 102 24 163 61 -23 82 -89 31 hvcurveto
          hintmask 11111000
          41 30 26 45 58 vvcurveto
          89 -68 60 -102 -82 -85 -26 -149 -1 vhcurveto
          -567 vlineto
          -22 6 -19 23 20 13 11 30 vhcurveto
          567 vmoveto
          104 39 9 67 56 52 -29 -56 -89 -72 -20 -82 vhcurveto
          -60 vlineto
          hintmask 11110100
          108 91 -28 -110 -129 -80 0 -40 -58 -47 37 40 -34 hvcurveto
          endchar
        </CharString>
        <CharString name="braceleft">
          -307 91 callsubr
          hstemhm
          84 62 -34 88 callsubr
          39 324 rmoveto
          -14 vlineto
          21 -11 52 -33 -30 vvcurveto
          hintmask 11100000
          -33 -28 -58 -37 vvcurveto
          -149 57 -11 83 vhcurveto
          62 vlineto
          -70 -8 3 95 hvcurveto
          hintmask 11010000
          26 28 54 48 vvcurveto
          37 -44 31 -22 13 vhcurveto
          31 20 35 31 32 vvcurveto
          hintmask 11100000
          46 -28 60 22 vvcurveto
          94 8 4 70 vhcurveto
          62 vlineto
          -83 -57 -11 -149 hvcurveto
          hintmask 11010000
          -37 28 -58 -33 vvcurveto
          -30 -55 -37 -18 -9 vhcurveto
          endchar
        </CharString>
        <CharString name="braceright">
          -307 91 callsubr
          hstemhm
          101 62 -34 -36 callsubr
          hintmask 11100000
          236 324 rmoveto
          -18 9 -55 37 30 vvcurveto
          hintmask 11010000
          33 28 58 37 vvcurveto
          149 -57 11 -83 vhcurveto
          -62 vlineto
          70 8 -4 -94 hvcurveto
          hintmask 11100000
          -22 -28 -60 -46 vvcurveto
          -32 35 -31 31 -20 vhcurveto
          -22 -13 -44 -31 -37 vvcurveto
          hintmask 11010000
          -48 28 -54 -26 vvcurveto
          -95 -8 -3 -70 vhcurveto
          -62 vlineto
          83 57 11 149 hvcurveto
          hintmask 11100000
          37 -28 58 33 vvcurveto
          30 52 33 21 11 vhcurveto
          endchar
        </CharString>
        <CharString name="bracketleft">
          -315 91 callsubr
          hstemhm
          80 62 -62 140 hintmask 00000000
          hintmask 11100000
          142 10 rmoveto
          616 vlineto
          hintmask 11010000
          78 62 -140 -740 140 62 hlineto
          endchar
        </CharString>
        <CharString name="bracketright">
          -315 91 callsubr
          hstemhm
          47 140 -62 88 callsubr
          125 10 rmoveto
          hintmask 11100000
          -78 -62 140 740 -140 -62 hlineto
          hintmask 11010000
          78 hlineto
          endchar
        </CharString>
        <CharString name="breve">
          -154 603 64 hstem
          89 77 callsubr
          vstem
          89 724 -92 callsubr
          endchar
        </CharString>
        <CharString name="brokenbar">
          -361 80 61 vstem
          141 616 rmoveto
          31 -18 6 -12 -19 -12 -11 -26 vhcurveto
          -215 vlineto
          -22 10 -16 55 callgsubr
          vhcurveto
          -164 vmoveto
          30 -18 6 -12 -25 -6 -19 -17 vhcurveto
          -215 vlineto
          -31 17 -8 12 20 12 14 25 vhcurveto
          endchar
        </CharString>
        <CharString name="bullet">
          -182 113 290 hstem
          55 290 vstem
          345 258 rmoveto
          81 -64 64 -81 -81 -64 -64 -81 -81 64 -64 81 81 64 64 81 vhcurveto
          endchar
        </CharString>
        <CharString name="c">
          22 -9 callgsubr
          62 -17 callgsubr
          441 hmoveto
          -91 callsubr
          -149 85 -28 153 vhcurveto
          endchar
        </CharString>
        <CharString name="cacute">
          22 0 -25 callgsubr
          59 callsubr
          62 62 129 165 66 62 vstem
          312 -83 callgsubr
          129 -517 rmoveto
          -91 callsubr
          -149 85 -28 153 vhcurveto
          endchar
        </CharString>
        <CharString name="cakayahli">
          32 -10 62 419 -20 58 62 55 62 hstemhm
          75 62 -62 153 249 -36 callsubr
          hintmask 11111010
          137 571 rmoveto
          5 callsubr
          -487 vlineto
          -342 387 rlineto
          -60 -481 112 hlineto
          hintmask 11110110
          36 5 18 12 26 -19 6 -22 hvcurveto
          hintmask 11111010
          -50 321 hlineto
          339 -383 rlineto
          63 564 hlineto
          93 -21 41 -84 vhcurveto
          -254 hlineto
          -84 -21 -41 -93 hvcurveto
          -45 134 vlineto
          26 15 12 22 23 -16 5 -25 hvcurveto
          endchar
        </CharString>
        <CharString name="calyakayahli">
          50 callsubr
          hstem
          -539 -13 callsubr
          3 callsubr
          endchar
        </CharString>
        <CharString name="calyaplophukayahli">
          -205 62 19 92 22 62 hstem
          -539 62 114 112 114 62 cntrmask 00011100
          3 callsubr
          119 -68 rmoveto
          28 -34 18 -22 -24 -32 -18 -28 -28 34 -18 22 21 35 -35 callsubr
          endchar
        </CharString>
        <CharString name="caron">
          -209 517 154 hstem
          45 288 vstem
          219 517 -102 callgsubr
          endchar
        </CharString>
        <CharString name="ccaron">
          22 0 -25 callgsubr
          56 154 hstem
          62 62 28 288 44 62 vstem
          441 hmoveto
          -91 callsubr
          -149 85 -28 153 vhcurveto
          26 517 -102 callgsubr
          endchar
        </CharString>
        <CharString name="ccedilla">
          22 -180 60 120 -25 callgsubr
          hstem
          62 62 214 62 84 62 vstem
          269 hmoveto
          6 -63 63 -13 -8 callsubr
          109 hlineto
          -91 callsubr
          -139 73 -34 134 -4 vhcurveto
          endchar
        </CharString>
        <CharString name="ccircumflex">
          22 0 -25 callgsubr
          56 173 hstem
          62 62 34 293 33 62 vstem
          165 566 -107 callgsubr
          169 -690 rmoveto
          -91 callsubr
          -149 85 -28 153 vhcurveto
          endchar
        </CharString>
        <CharString name="cdotaccent">
          22 0 -25 callgsubr
          51 92 hstem
          62 62 133 112 115 62 vstem
          369 558 rmoveto
          28 -35 18 -21 -22 -34 -18 -28 -28 32 -18 24 22 34 -35 callsubr
          72 -558 rmoveto
          -91 callsubr
          -149 85 -28 153 vhcurveto
          endchar
        </CharString>
        <CharString name="cedilla">
          -340 -180 60 hstem
          86 62 7 62 vstem
          148 10 rmoveto
          -62 hlineto
          -71 69 -14 -24 -60 callgsubr
          hvcurveto
          63 -69 -3 44 vvcurveto
          endchar
        </CharString>
        <CharString name="cent">
          -94 113 62 288 62 hstem
          49 62 107 62 89 62 vstem
          218 20 rmoveto
          -31 -45 callsubr
          18 vhcurveto
          93 45 vlineto
          93 13 60 56 35 -19 6 -13 -18 -12 -11 -28 -43 -11 -13 -40 hvcurveto
          -38 288 40 hlineto
          39 10 -13 -43 -26 12 -13 20 19 11 12 29 56 -11 60 -93 hvcurveto
          -47 90 hlineto
          38 callgsubr
          -91 vlineto
          -103 -7 -66 -42 -135 vvcurveto
          -42 vlineto
          -136 63 -42 106 -7 vhcurveto
          63 vmoveto
          -76 5 -31 22 95 vvcurveto
          42 vlineto
          94 33 23 74 5 vhcurveto
          endchar
        </CharString>
        <CharString name="checyrillic">
          27 14 -21 130 62 283 -20 hstem
          50 -17 callgsubr
          308 185 rmoveto
          -33 hlineto
          -118 -45 11 108 hvcurveto
          126 19 callsubr
          -128 vlineto
          -151 71 callsubr
          -147 vlineto
          -20 7 -19 26 -9 callsubr
          398 vlineto
          -77 callsubr
          -74 vlineto
          -110 -54 -61 -110 vhcurveto
          endchar
        </CharString>
        <CharString name="chi">
          -42 -175 63 517 63 hstem
          447 468 rmoveto
          -14 -9 -10 -11 -7 hvcurveto
          -141 -229 -79 169 rlineto
          51 -23 -49 30 -50 hhcurveto
          73 callgsubr
          25 30 -21 -33 15 hvcurveto
          90 -187 -179 -289 rlineto
          -4 -6 -4 -8 -9 vvcurveto
          -24 24 -6 8 12 10 7 15 7 vhcurveto
          159 258 91 -196 rlineto
          53 callsubr
          35 -16 hvcurveto
          -102 215 161 257 rlineto
          4 6 4 8 9 vvcurveto
          17 -19 12 -12 vhcurveto
          endchar
        </CharString>
        <CharString name="circumflex">
          -180 505 173 hstem
          55 293 vstem
          62 554 -107 callgsubr
          endchar
        </CharString>
        <CharString name="colon">
          -324 34 92 261 92 hstem
          73 112 vstem
          185 80 rmoveto
          28 -35 18 -21 -22 -34 -18 -28 -28 32 -18 24 22 34 -35 callsubr
          353 41 callsubr
        </CharString>
        <CharString name="comma">
          -363 -90 161 hstemhm
          48 27 callsubr
          hintmask 10100000
          145 20 -45 callgsubr
          hintmask 11000000
          -76 callsubr
          hintmask 10100000
          -68 callsubr
          hintmask 11000000
          -26 callsubr
          endchar
        </CharString>
        <CharString name="commaturnedabovecmb">
          516 161 hstemhm
          -272 103 -57 57 hintmask 00000000
          hintmask 11000000
          -266 567 rmoveto
          -5 -8 -1 -7 -6 vvcurveto
          hintmask 10100000
          70 callsubr
          hintmask 11000000
          87 callsubr
          hintmask 10100000
          -15 -8 -13 -14 -7 hvcurveto
          endchar
        </CharString>
        <CharString name="copyright">
          40 77 62 70 51 115 51 70 62 hstem
          79 62 65 50 110 50 65 62 vstem
          390 341 rmoveto
          12 14 7 15 24 -12 39 -48 hvcurveto
          -50 hlineto
          -51 -49 -28 -61 hvcurveto
          -39 vlineto
          -61 49 -28 51 vhcurveto
          50 hlineto
          51 9 42 21 14 -13 8 -13 -26 4 -24 -6 -2 hvcurveto
          -3 -2 -3 -1 -7 hhcurveto
          -48 hlineto
          -30 -20 15 23 hvcurveto
          39 vlineto
          23 20 15 30 vhcurveto
          48 hlineto
          6 2 -1 -1 2 hvcurveto
          -4 7 -11 -28 30 hhcurveto
          -311 -79 -22 callgsubr
        </CharString>
        <CharString name="currency">
          -73 77 54 199 54 hstem
          101 54 199 54 vstem
          155 230 rmoveto
          55 45 45 55 54 45 -45 -55 -54 -45 -45 -54 -55 -45 45 54 vhcurveto
          -29 84 rmoveto
          -17 -24 -8 -30 -30 vvcurveto
          -30 8 -29 17 -24 vhcurveto
          -43 -43 rlineto
          -12 92 callsubr
          -19 16 -11 13 11 9 6 10 9 vhcurveto
          42 41 rlineto
          -17 25 29 -9 31 hhcurveto
          27 30 7 18 27 hvcurveto
          41 -40 rlineto
          -13 12 10 -3 6 hhcurveto
          15 16 17 14 6 -3 9 -12 13 hvcurveto
          -41 41 rlineto
          18 27 7 30 27 vvcurveto
          30 -8 30 -17 25 vhcurveto
          40 41 rlineto
          10 9 6 9 11 vvcurveto
          20 -21 9 -9 -6 -9 -1 -12 -13 vhcurveto
          -42 -42 rlineto
          18 -27 -30 7 -27 hhcurveto
          -31 -29 -9 -17 -25 hvcurveto
          -43 43 rlineto
          5 -6 -10 8 -11 hhcurveto
          -13 -17 -15 -15 -11 8 -10 5 -6 hvcurveto
          endchar
        </CharString>
        <CharString name="cwikayahli">
          32 -10 62 hstem
          99 151 rmoveto
          -13 -11 -13 -17 -39 112 -92 118 118 116 92 39 19 -13 11 -11 hvcurveto
          -37 -36 -99 -137 -135 -35 99 -36 hhcurveto
          endchar
        </CharString>
        <CharString name="d">
          59 0 -25 callgsubr
          182 -20 hstem
          62 26 callgsubr
          124 179 rmoveto
          81 callsubr
          127 vhcurveto
          207 -170 hlineto
          -85 -33 -82 21 callgsubr
          -62 105 rmoveto
          -74 callsubr
          152 vhcurveto
          29 hlineto
          71 64 18 38 41 hvcurveto
          -23 vlineto
          -30 12 -10 80 callsubr
          572 vlineto
          21 -6 19 -23 -26 -7 -19 -21 vhcurveto
          -142 -207 vlineto
          -150 -71 callgsubr
          endchar
        </CharString>
        <CharString name="dagger">
          -249 475 62 hstem
          136 61 vstem
          88 537 rmoveto
          -31 -6 -18 -12 -14 8 -18 29 hvcurveto
          48 -278 hlineto
          -32 18 63 callsubr
          278 48 vlineto
          36 callgsubr
          vlineto
          endchar
        </CharString>
        <CharString name="daggerdbl">
          -231 274 62 139 62 hstem
          145 61 vstem
          291 304 rmoveto
          14 -8 18 -29 vhcurveto
          -48 139 48 hlineto
          36 callgsubr
          -48 vlineto
          -31 -6 -18 -12 -14 8 -18 29 hvcurveto
          48 -139 -48 hlineto
          -24 -13 -12 -19 -25 20 -6 17 hvcurveto
          48 -79 hlineto
          -32 18 63 callsubr
          79 48 vlineto
          31 6 18 12 hvcurveto
          endchar
        </CharString>
        <CharString name="dakayahli">
          -57 callsubr
        </CharString>
        <CharString name="dcaron">
          59 0 -25 callgsubr
          31 161 -30 20 hstemhm
          62 62 380 62 26 27 callsubr
          hintmask 00100001
          689 602 -45 callgsubr
          hintmask 00100010
          -76 callsubr
          hintmask 00100001
          -68 callsubr
          hintmask 00100010
          -26 callsubr
          hintmask 11011100
          -525 -340 rmoveto
          81 callsubr
          127 vhcurveto
          207 -170 hlineto
          -85 -33 -82 21 callgsubr
          -62 105 rmoveto
          -74 callsubr
          152 vhcurveto
          29 hlineto
          71 64 18 38 41 hvcurveto
          -23 vlineto
          -30 12 -10 80 callsubr
          572 vlineto
          21 -6 19 -23 -26 -7 -19 -21 vhcurveto
          -142 -207 vlineto
          -150 -71 callgsubr
          endchar
        </CharString>
        <CharString name="dcroat">
          59 0 -25 callgsubr
          46 63 73 -20 hstem
          62 26 callgsubr
          62 284 rmoveto
          -74 callsubr
          152 vhcurveto
          29 hlineto
          71 64 18 38 41 hvcurveto
          -23 vlineto
          -30 12 -10 80 callsubr
          476 9 vlineto
          21 18 11 19 21 -15 12 -24 hvcurveto
          -9 33 hlineto
          21 -6 19 -23 -26 -7 -19 -21 vhcurveto
          -33 -174 vlineto
          -28 -8 -18 -13 -16 9 -16 27 hvcurveto
          174 -46 -207 hlineto
          -150 -71 callgsubr
          62 -105 rmoveto
          81 callsubr
          127 vhcurveto
          207 -170 hlineto
          -85 -33 -82 21 callgsubr
          endchar
        </CharString>
        <CharString name="decyrillic">
          0 -92 154 -62 -25 callgsubr
          hstemhm
          14 62 100 66 154 64 32 -36 callsubr
          hintmask 01111110
          76 -52 rmoveto
          52 416 -52 vlineto
          hintmask 10111110
          8 callgsubr
          hintmask 01111110
          52 vlineto
          hintmask 10111110
          50 -28 12 -28 vhcurveto
          hintmask 01111110
          -38 399 -284 hlineto
          -205 -61 -130 -38 -64 vhcurveto
          hintmask 10111110
          -7 hlineto
          hintmask 01111110
          -28 -28 -12 -50 hvcurveto
          -52 vlineto
          hintmask 10111110
          8 callgsubr
          hintmask 01111110
          71 114 rmoveto
          38 64 54 116 3 157 rrcurveto
          154 -337 hlineto
          endchar
        </CharString>
        <CharString name="degree">
          -169 381 61 185 61 hstem
          53 61 185 61 vstem
          114 535 rmoveto
          50 42 42 50 51 42 -42 -50 -51 -42 -42 -51 -50 -42 42 51 vhcurveto
          246 hmoveto
          84 -69 69 -85 -84 -69 -69 -84 -85 69 -69 84 85 69 69 85 vhcurveto
          endchar
        </CharString>
        <CharString name="delta">
          3 -7 63 343 62 113 63 hstem
          45 63 363 63 vstem
          114 576 rmoveto
          91 -34 47 -17 63 -27 50 -46 rlinecurve
          6 -21 -23 3 -23 hhcurveto
          -102 -151 -69 -154 -112 74 -133 173 148 94 81 132 134 -49 151 -203 83 hvcurveto
          182 54 callsubr
          -333 hlineto
          -28 -8 -18 -13 -18 8 -7 11 -5 hvcurveto
          182 -520 rmoveto
          -123 -65 85 91 118 117 49 75 111 60 -79 -111 -94 -57 -59 -118 hvcurveto
          endchar
        </CharString>
        <CharString name="dieresis">
          -215 584 92 hstem
          55 11 callsubr
          vstem
          167 630 rmoveto
          28 -35 18 -21 -22 -34 -18 -28 -28 32 -18 24 22 34 -35 callsubr
          146 hmoveto
          44 callgsubr
        </CharString>
        <CharString name="dieresistonos">
          -189 500 92 15 214 hstemhm
          43 112 -7 63 -22 112 -100 -36 callsubr
          hintmask 01000100
          234 821 -62 callsubr
          hintmask 01010000
          -85 callsubr
          hintmask 01000100
          -61 callgsubr
          hintmask 10101000
          -79 -275 rmoveto
          28 -35 18 -21 -22 -34 -18 -28 -28 32 -18 24 22 34 -35 callsubr
          146 hmoveto
          44 callgsubr
        </CharString>
        <CharString name="divide">
          -143 82 92 25 63 25 92 hstemhm
          59 320 -220 112 hintmask 00000000
          hintmask 01010000
          95 262 -84 callgsubr
          hintmask 10001000
          -69 -134 rmoveto
          28 -35 18 -21 -22 -34 -18 -28 -28 32 -18 24 22 34 -35 callsubr
          hintmask 00101000
          205 41 callsubr
        </CharString>
        <CharString name="djecyrillic">
          68 -205 62 157 -21 406 62 34 63 85 -20 hstem
          75 26 callgsubr
          75 558 rmoveto
          -28 -19 -12 -18 -13 9 -20 38 hvcurveto
          -464 5 callgsubr
          109 57 60 119 vhcurveto
          29 hlineto
          129 46 -11 -107 hvcurveto
          -369 vlineto
          -40 -10 -15 -40 -39 -6 -19 -12 -25 21 -6 24 60 52 11 123 vhcurveto
          353 vlineto
          151 -39 callgsubr
          -29 hlineto
          -69 -64 -18 -38 -43 hvcurveto
          90 216 vlineto
          28 19 12 18 13 -9 20 -38 hvcurveto
          -216 44 hlineto
          -28 callgsubr
          endchar
        </CharString>
        <CharString name="dollar">
          26 14 -21 94 62 147 62 134 62 89 -20 hstem
          61 62 155 56 callgsubr
          vstem
          166 87 rmoveto
          112 -59 hlineto
          -29 17 -6 12 27 6 18 19 vhcurveto
          57 74 vlineto
          97 36 51 80 69 -26 71 -105 hvcurveto
          -76 134 95 hlineto
          38 12 -9 -43 -30 17 -7 14 19 12 11 28 56 -12 56 -93 hvcurveto
          -102 53 hlineto
          32 -20 4 -12 -26 -4 -19 -18 vhcurveto
          -52 -83 vlineto
          -103 -31 -50 -74 -66 27 -68 107 hvcurveto
          83 -147 -105 hlineto
          -36 -14 9 46 18 -6 18 -25 -19 -12 -11 -27 -57 12 -58 93 hvcurveto
          265 209 rmoveto
          32 22 -34 -48 -41 -14 -24 -40 hvcurveto
          -91 147 hlineto
          -163 62 rmoveto
          -30 -24 25 51 49 22 9 32 hvcurveto
          101 -134 hlineto
          endchar
        </CharString>
        <CharString name="dotaccent">
          -361 584 92 hstem
          55 112 vstem
          167 630 rmoveto
          44 callgsubr
        </CharString>
        <CharString name="dotbelowcomb">
          -144 37 callsubr
          -98 rmoveto
          28 -34 18 -22 -24 -32 -18 -28 -28 34 -18 22 21 35 -35 callsubr
          endchar
        </CharString>
        <CharString name="dotlessi">
          -374 73 62 vstem
          73 20 rmoveto
          -31 -45 callsubr
          18 vhcurveto
          420 vlineto
          32 -19 6 -12 -12 -19 -6 -32 vhcurveto
          endchar
        </CharString>
        <CharString name="dzecyrillic">
          17 callsubr
          hstem
          60 62 362 62 vstem
          165 hmoveto
          228 -101 callsubr
        </CharString>
        <CharString name="dzhecyrillic">
          42 82 callgsubr
          75 62 144 62 144 62 cntrmask 00111000
          281 -52 rmoveto
          -22 5 -18 26 24 7 14 26 vhcurveto
          52 206 430 vlineto
          -77 callsubr
          -368 -350 368 19 callsubr
          -430 206 vlineto
          endchar
        </CharString>
        <CharString name="e">
          -20 callsubr
          hstem
          62 26 callgsubr
          566 284 -106 callgsubr
          endchar
        </CharString>
        <CharString name="eacute">
          -20 callsubr
          59 callsubr
          62 62 161 165 54 62 vstem
          566 284 -106 callgsubr
          44 118 -103 callgsubr
          endchar
        </CharString>
        <CharString name="ecaron">
          -20 callsubr
          56 154 hstem
          62 62 32 288 60 62 vstem
          566 284 -106 callgsubr
          30 118 -102 callgsubr
          endchar
        </CharString>
        <CharString name="ecircumflex">
          -20 callsubr
          56 173 hstem
          62 62 44 293 43 62 vstem
          566 284 -106 callgsubr
          -125 167 -107 callgsubr
          endchar
        </CharString>
        <CharString name="ecyrillic">
          21 -1 callgsubr
          62 -17 callgsubr
          441 461 rmoveto
          -11 callsubr
          -149 85 -28 153 vhcurveto
          141 hlineto
          93 12 61 56 58 callsubr
          -44 callgsubr
          105 hvcurveto
          30 209 vlineto
          36 5 17 12 20 -11 13 -30 hvcurveto
          -209 15 hlineto
          105 -18 callsubr
          vhcurveto
          134 hlineto
          40 10 -15 -42 -32 19 -6 12 19 12 11 30 56 -12 60 -93 hvcurveto
          endchar
        </CharString>
        <CharString name="edieresis">
          -20 callsubr
          51 92 hstem
          62 62 62 11 callsubr
          60 62 vstem
          566 284 -106 callgsubr
          -2 159 rmoveto
          28 -35 18 -21 -22 -34 -18 -28 -28 32 -18 24 22 34 -35 callsubr
          146 hmoveto
          44 callgsubr
        </CharString>
        <CharString name="edotaccent">
          -20 callsubr
          61 92 hstem
          62 62 134 92 callgsubr
          cntrmask 00001110
          370 568 rmoveto
          28 -35 18 -21 -22 -34 -18 -28 -28 32 -18 24 22 34 -35 callsubr
          196 -284 -106 callgsubr
          endchar
        </CharString>
        <CharString name="eekayahli">
          502 62 hstem
          -462 6 callgsubr
          vstem
          -249 502 -60 callsubr
          endchar
        </CharString>
        <CharString name="efcyrillic">
          206 0 -25 callgsubr
          182 -20 hstem
          60 62 241 62 241 62 cntrmask 00011100
          666 197 rmoveto
          -59 -5 -76 -106 -103 -27 93 76 76 27 92 103 106 5 -76 -59 vhcurveto
          -544 -67 rmoveto
          67 vlineto
          59 5 76 106 103 27 -92 -76 -76 -27 -93 -103 -106 -5 76 59 vhcurveto
          303 -339 rmoveto
          196 vlineto
          -37 34 36 -17 60 hhcurveto
          104 69 54 143 hvcurveto
          67 vlineto
          143 -69 54 -104 -60 -36 -17 -37 -34 vhcurveto
          196 vlineto
          20 -6 20 -25 -25 -6 -20 -20 vhcurveto
          -196 vlineto
          37 -34 -36 17 -60 hhcurveto
          -104 -69 -54 -143 hvcurveto
          -67 vlineto
          -143 69 -54 104 60 36 17 37 34 vhcurveto
          -196 vlineto
          -13 callgsubr
          2 callsubr
          vhcurveto
          endchar
        </CharString>
        <CharString name="egrave">
          -20 callsubr
          59 callsubr
          62 62 77 165 138 62 vstem
          566 284 -106 callgsubr
          -40 272 -95 callgsubr
          endchar
        </CharString>
        <CharString name="eight">
          48 -5 62 240 62 220 62 hstem
          73 -17 callgsubr
          135 177 rmoveto
          109 46 11 118 vhcurveto
          33 hlineto
          117 46 -10 -110 -110 -45 -10 -118 hvcurveto
          -33 hlineto
          -119 -45 10 110 hvcurveto
          422 -1 rmoveto
          69 -17 50 -42 31 vhcurveto
          41 25 18 49 70 vvcurveto
          159 -92 12 -133 vhcurveto
          -33 hlineto
          -134 -92 -12 -159 -70 19 -48 41 -26 hvcurveto
          -43 -30 -17 -52 -68 vvcurveto
          -155 87 -26 139 vhcurveto
          33 hlineto
          140 85 27 154 hvcurveto
          -62 293 rmoveto
          -109 -42 -1 -121 vhcurveto
          -33 hlineto
          -121 -43 2 108 110 45 0 117 hvcurveto
          35 hlineto
          122 41 -1 -109 hvcurveto
          endchar
        </CharString>
        <CharString name="eightkayahli">
          -15 -10 62 hstem
          71 -13 callsubr
          176 -10 rmoveto
          11 callgsubr
          40 94 34 -18 6 -12 -18 -14 -12 -28 hvcurveto
          -18 vlineto
          -54 callsubr
          332 -40 callgsubr
          -314 39 callgsubr
          endchar
        </CharString>
        <CharString name="ekayahli">
          493 163 hstem
          -165 496 rmoveto
          -2 6 6 -1 7 hhcurveto
          23 6 22 9 19 -17 8 -8 4 hvcurveto
          -309 98 rlineto
          2 -7 -5 1 -6 hhcurveto
          -23 -6 -23 -9 -12 8 -13 18 -6 hvcurveto
          endchar
        </CharString>
        <CharString name="elcyrillic">
          7 -9 callgsubr
          120 62 270 62 vstem
          514 33 rmoveto
          428 -279 vlineto
          -96 -19 -38 -90 hvcurveto
          -219 vlineto
          -39 -13 97 callsubr
          61 54 12 116 vhcurveto
          218 vlineto
          38 12 15 49 vhcurveto
          209 -367 hlineto
          -33 -35 callgsubr
          23 9 15 25 vhcurveto
          endchar
        </CharString>
        <CharString name="ellipsis">
          -37 -17 92 hstem
          64 112 41 112 41 112 cntrmask 01110000
          482 29 rmoveto
          28 -35 18 -21 -22 -34 -18 -28 -28 32 -18 24 22 34 -35 callsubr
          -153 -93 callsubr
          -153 hmoveto
          44 callgsubr
        </CharString>
        <CharString name="emacron">
          -20 callsubr
          61 63 hstem
          62 62 30 320 30 62 cntrmask 00001110
          190 585 -84 callgsubr
          131 -301 -106 callgsubr
          endchar
        </CharString>
        <CharString name="emcyrillic">
          73 14 -21 475 -20 hstem
          75 62 381 62 vstem
          327 104 rmoveto
          8 9 2 8 6 hvcurveto
          168 245 rlineto
          -326 vlineto
          -30 12 -10 18 22 10 12 26 vhcurveto
          398 vlineto
          29 -12 10 -18 -13 -10 -7 -14 -10 vhcurveto
          -190 -272 -189 272 rlineto
          15 -10 -10 6 -14 hhcurveto
          -23 -6 -19 -20 hvcurveto
          -398 vlineto
          -27 -7 callsubr
          19 12 10 30 vhcurveto
          326 vlineto
          168 -245 rlineto
          -3 3 6 -7 13 hhcurveto
          endchar
        </CharString>
        <CharString name="emdash">
          70 16 callsubr
          430 54 callsubr
          endchar
        </CharString>
        <CharString name="encyrillic">
          42 14 -21 220 62 193 -20 hstem
          75 62 350 62 vstem
          137 31 rmoveto
          182 350 -182 vlineto
          -33 19 -5 13 24 6 18 20 vhcurveto
          398 vlineto
          22 -7 17 -25 -18 -12 -11 -28 vhcurveto
          -154 -350 154 vlineto
          20 -7 19 -26 -23 -6 -19 -20 vhcurveto
          -398 vlineto
          -66 callsubr
          endchar
        </CharString>
        <CharString name="endash">
          -48 16 callsubr
          313 54 callsubr
          endchar
        </CharString>
        <CharString name="eng">
          67 -175 62 127 -21 406 62 hstem
          74 26 callgsubr
          312 399 rmoveto
          -81 callsubr
          -282 vlineto
          -103 -44 -10 -112 -23 -18 -6 -24 -26 20 -6 21 131 87 23 152 vhcurveto
          284 vlineto
          149 -32 callgsubr
        </CharString>
        <CharString name="eogonek">
          44 -205 60 145 -10 callsubr
          hstem
          62 62 137 62 181 62 vstem
          329 399 rmoveto
          127 45 -11 -86 3 hvcurveto
          -380 hlineto
          86 3 45 11 128 hhcurveto
          266 -115 rmoveto
          -94 callgsubr
          7 hlineto
          -24 -31 -22 -38 -27 -71 callsubr
          9 20 58 49 29 hvcurveto
          69 -88 callgsubr
          -154 hlineto
          -72 callgsubr
          61 442 vlineto
          endchar
        </CharString>
        <CharString name="epsilon">
          41 -1 callgsubr
          61 26 callgsubr
          332 207 -42 callgsubr
        </CharString>
        <CharString name="epsilontonos">
          41 9 callsubr
          61 214 hstemhm
          61 62 131 63 -10 62 134 -36 callsubr
          hintmask 00010010
          340 736 -62 callsubr
          hintmask 00010100
          -85 callsubr
          hintmask 00010010
          -61 callgsubr
          hintmask 11101001
          -8 -529 -42 callgsubr
        </CharString>
        <CharString name="equal">
          -104 249 63 40 63 hstem
          79 320 vstem
          115 415 -84 callgsubr
          -245 -103 -84 callgsubr
          endchar
        </CharString>
        <CharString name="ercyrillic">
          59 -9 callgsubr
          75 26 callgsubr
          517 282 -65 callsubr
        </CharString>
        <CharString name="ereversedcyrillic">
          21 -1 callgsubr
          57 -17 callgsubr
          162 461 rmoveto
          -93 -12 -60 -56 -30 -7 callsubr
          12 19 6 32 42 10 15 40 hvcurveto
          134 hlineto
          132 44 -10 -105 hvcurveto
          -15 -209 vlineto
          -30 -11 -13 -20 -12 5 -17 36 hvcurveto
          209 -30 hlineto
          -105 -44 -10 -132 vhcurveto
          -134 hlineto
          -38 -12 13 44 32 -19 6 -12 -40 callsubr
          hvcurveto
          141 hlineto
          153 -61 callsubr
          149 -85 28 -153 vhcurveto
          endchar
        </CharString>
        <CharString name="escyrillic">
          22 -9 callgsubr
          62 -17 callgsubr
          441 hmoveto
          -91 callsubr
          -149 85 -28 153 vhcurveto
          endchar
        </CharString>
        <CharString name="eta">
          67 52 callgsubr
          74 26 callgsubr
          312 399 rmoveto
          29 hlineto
          129 46 -11 -108 hvcurveto
          -445 vlineto
          -19 6 -21 26 18 12 10 30 vhcurveto
          447 vlineto
          151 -32 callgsubr
        </CharString>
        <CharString name="etatonos">
          67 45 callsubr
          68 214 hstemhm
          74 62 146 63 -10 62 119 -36 callsubr
          hintmask 00100100
          368 743 -76 callgsubr
          hintmask 11010010
          -56 -344 rmoveto
          29 hlineto
          129 46 -11 -108 hvcurveto
          -445 vlineto
          -19 6 -21 26 18 12 10 30 vhcurveto
          447 vlineto
          151 -32 callgsubr
        </CharString>
        <CharString name="eth">
          2 -16 62 348 62 117 63 hstem
          46 -17 callgsubr
          157 573 rmoveto
          22 31 -3 -9 33 hvcurveto
          -30 -26 rlineto
          -6 -6 -10 -11 -11 vvcurveto
          -18 21 -12 14 5 13 3 10 10 vhcurveto
          50 45 41 -22 42 -34 29 -52 rlinecurve
          18 -31 -39 11 -47 hhcurveto
          -152 -107 -86 -150 -149 107 -87 152 147 78 116 123 182 -71 114 -100 62 hvcurveto
          17 15 rlineto
          9 9 6 9 11 vvcurveto
          18 -19 11 -13 -12 -11 -6 -7 -8 vhcurveto
          -32 -30 rlineto
          17 -45 -48 8 -46 hhcurveto
          -18 -18 -8 -25 -12 6 -18 30 hvcurveto
          311 -352 rmoveto
          -74 -46 -101 -117 -125 -72 73 101 104 76 70 121 119 44 -87 -86 vhcurveto
          endchar
        </CharString>
        <CharString name="exclam">
          -329 -17 92 hstemhm
          70 113 -88 -36 callsubr
          hintmask 11000000
          70 29 rmoveto
          -28 34 -18 22 24 33 18 28 28 -35 18 -22 -21 -35 -18 -28 vhcurveto
          hintmask 10100000
          87 587 rmoveto
          32 -19 6 -12 -12 -19 -6 -32 vhcurveto
          -419 vlineto
          -32 -35 callgsubr
          18 14 11 27 vhcurveto
          endchar
        </CharString>
        <CharString name="exclamdown">
          -346 404 92 hstemhm
          61 113 -87 -36 callsubr
          hintmask 10100000
          87 -138 rmoveto
          -31 -45 callsubr
          18 vhcurveto
          420 vlineto
          32 -19 6 -12 -12 -19 -6 -32 vhcurveto
          hintmask 11000000
          87 168 rmoveto
          28 -33 18 -24 -22 -34 -18 -28 -28 35 -18 21 22 35 -35 callsubr
          endchar
        </CharString>
        <CharString name="f">
          -248 39 callsubr
          113 62 hstem
          80 62 vstem
          298 574 rmoveto
          36 5 17 12 20 -12 13 -29 -129 -85 -25 -150 -4 hvcurveto
          -20 callgsubr
          133 vlineto
          22 19 -59 callsubr
          -30 hvcurveto
          -133 hlineto
          104 2 46 9 108 hhcurveto
          endchar
        </CharString>
        <CharString name="fitacyrillic">
          34 0 62 118 62 -22 62 117 62 hstemhm
          62 62 368 -36 callsubr
          hintmask 10011100
          317 hmoveto
          22 callsubr
          -17 hlineto
          -153 -71 callgsubr
          -74 callsubr
          153 vhcurveto
          -176 284 rmoveto
          105 -18 callsubr
          vhcurveto
          17 hlineto
          129 46 -9 -107 hvcurveto
          -10 vlineto
          hintmask 11011100
          -7 -9 -37 -24 -28 hhcurveto
          hintmask 10111100
          -43 -119 40 -74 hhcurveto
          -17 -22 -6 -12 -19 hvcurveto
          368 -87 rmoveto
          -106 -46 -9 -129 vhcurveto
          -17 hlineto
          -44 callgsubr
          106 hvcurveto
          12 vlineto
          8 10 34 22 28 hhcurveto
          hintmask 11011100
          43 119 -40 74 hhcurveto
          23 22 10 9 15 hvcurveto
          endchar
        </CharString>
        <CharString name="five">
          6 -9 62 329 62 135 62 hstem
          475 62 vstem
          92 131 rmoveto
          -12 -17 -14 -17 -54 152 -55 80 140 102 87 153 137 -114 76 -110 hvcurveto
          -177 hlineto
          6 82 rlineto
          42 4 16 11 29 hhcurveto
          267 hlineto
          31 6 18 12 15 -7 17 -30 hvcurveto
          -260 hlineto
          -79 -34 -33 -98 -7 hvcurveto
          -9 -128 rlineto
          253 hlineto
          57 96 -35 -116 -111 -61 -67 -119 hvcurveto
          -114 -67 78 -22 hhcurveto
          endchar
        </CharString>
        <CharString name="fivekayahli">
          -17 -10 62 262 157 -62 62 hstemhm
          66 62 340 -36 callsubr
          hintmask 10111000
          66 124 rmoveto
          28 callsubr
          70 hlineto
          23 18 6 24 26 -20 6 -21 hvcurveto
          -63 30 callsubr
          24 callgsubr
          290 -55 hlineto
          hintmask 11011000
          -13 callgsubr
          2 callsubr
          vhcurveto
          hintmask 10111000
          117 -359 vlineto
          42 callsubr
          hvcurveto
          endchar
        </CharString>
        <CharString name="florin">
          -228 -105 62 442 62 113 62 hstem
          80 71 vstem
          151 48 rmoveto
          351 144 vlineto
          22 19 -59 callsubr
          -30 hvcurveto
          -144 hlineto
          104 3 53 9 111 hhcurveto
          36 5 17 12 20 -12 13 -29 -135 -98 -25 -150 -5 hvcurveto
          -15 -2 -16 -6 -21 vvcurveto
          -20 14 -8 17 -2 vhcurveto
          -326 vlineto
          -113 -5 -6 -83 93 callgsubr
          19 -6 22 104 55 21 132 vhcurveto
          endchar
        </CharString>
        <CharString name="four">
          -26 14 -21 172 62 hstem
          370 64 vstem
          485 165 rmoveto
          17 20 6 25 25 -20 6 -17 hvcurveto
          -51 414 -75 hlineto
          -325 -407 rlineto
          -69 336 -137 vlineto
          -23 14 -12 19 11 20 4 31 vhcurveto
          137 vlineto
          -64 399 rmoveto
          -337 -269 vlineto
          endchar
        </CharString>
        <CharString name="fourkayahli">
          -52 callsubr
        </CharString>
        <CharString name="foursuperior">
          -266 552 53 hstem
          164 54 vstem
          218 480 -31 callgsubr
          endchar
        </CharString>
        <CharString name="fraction">
          -356 337 491 -51 callsubr
          endchar
        </CharString>
        <CharString name="g">
          59 25 callsubr
          337 62 hstem
          62 26 callgsubr
          566 -82 rmoveto
          512 40 callsubr
          -19 67 callgsubr
          -23 vlineto
          38 -41 -64 18 -71 hhcurveto
          -29 hlineto
          -152 -71 callgsubr
          -74 callsubr
          151 vhcurveto
          206 -98 hlineto
          -36 -6 -9 -35 vhcurveto
          -289 hlineto
          -38 -12 13 44 20 -6 18 -25 -40 callsubr
          hvcurveto
          303 hlineto
          77 19 38 85 hvcurveto
          -268 144 rmoveto
          -128 -47 callgsubr
          81 callsubr
          129 vhcurveto
          29 hlineto
          143 33 -83 -83 hvcurveto
          -171 vlineto
          endchar
        </CharString>
        <CharString name="gakayahli">
          29 -10 62 107 62 188 62 hstemhm
          74 62 -62 153 158 153 -62 -36 callsubr
          hintmask 11101000
          227 20 rmoveto
          26 -19 6 -22 vhcurveto
          hintmask 11110010
          -50 107 340 -107 -50 hlineto
          hintmask 11100100
          -21 -20 -6 -26 -18 11 -12 30 hvcurveto
          hintmask 11110010
          112 74 callgsubr
          -120 hlineto
          -177 -214 rlineto
          181 -40 callgsubr
          -448 112 vlineto
          31 10 12 18 hvcurveto
          -43 201 rmoveto
          153 188 rlineto
          89 hlineto
          40 10 -15 -40 hvcurveto
          -133 vlineto
          endchar
        </CharString>
        <CharString name="gamma">
          -35 399 62 hstem
          236 66 155 62 vstem
          62 399 rmoveto
          34 33 -88 -334 107 hvcurveto
          -119 vlineto
          -30 12 -10 19 21 14 11 29 vhcurveto
          120 vlineto
          214 449 rlineto
          2 6 1 2 6 vvcurveto
          16 -15 11 -14 -13 -11 -6 -18 -9 vhcurveto
          -182 -389 rlineto
          347 -110 -8 59 -95 hhcurveto
          -50 callsubr
          endchar
        </CharString>
        <CharString name="gbreve">
          59 25 callsubr
          337 62 68 64 hstem
          62 62 70 77 callsubr
          60 62 vstem
          194 650 -92 callsubr
          309 -732 rmoveto
          512 40 callsubr
          -19 67 callgsubr
          -23 vlineto
          38 -41 -64 18 -71 hhcurveto
          -29 hlineto
          -152 -71 callgsubr
          -74 callsubr
          151 vhcurveto
          206 -98 hlineto
          -36 -6 -9 -35 vhcurveto
          -289 hlineto
          -38 -12 13 44 20 -6 18 -25 -40 callsubr
          hvcurveto
          303 hlineto
          77 19 38 85 hvcurveto
          -268 144 rmoveto
          -128 -47 callgsubr
          81 callsubr
          129 vhcurveto
          29 hlineto
          143 33 -83 -83 hvcurveto
          -171 vlineto
          endchar
        </CharString>
        <CharString name="gcircumflex">
          59 25 callsubr
          337 62 63 173 hstem
          62 62 39 293 48 62 vstem
          170 573 -107 callgsubr
          289 -779 rmoveto
          512 40 callsubr
          -19 67 callgsubr
          -23 vlineto
          38 -41 -64 18 -71 hhcurveto
          -29 hlineto
          -152 -71 callgsubr
          -74 callsubr
          151 vhcurveto
          206 -98 hlineto
          -36 -6 -9 -35 vhcurveto
          -289 hlineto
          -38 -12 13 44 20 -6 18 -25 -40 callsubr
          hvcurveto
          303 hlineto
          77 19 38 85 hvcurveto
          -268 144 rmoveto
          -128 -47 callgsubr
          81 callsubr
          129 vhcurveto
          29 hlineto
          143 33 -83 -83 hvcurveto
          -171 vlineto
          endchar
        </CharString>
        <CharString name="gcommaaccent">
          59 25 callsubr
          337 62 68 161 hstemhm
          62 62 157 103 -57 57 120 -36 callsubr
          hintmask 00010100
          287 580 rmoveto
          -5 -8 -1 -7 -6 vvcurveto
          hintmask 00010010
          70 callsubr
          hintmask 00010100
          87 callsubr
          hintmask 00010010
          -15 -8 -13 -14 -7 hvcurveto
          hintmask 11101001
          239 -745 rmoveto
          512 40 callsubr
          -19 67 callgsubr
          -23 vlineto
          38 -41 -64 18 -71 hhcurveto
          -29 hlineto
          -152 -71 callgsubr
          -74 callsubr
          151 vhcurveto
          206 -98 hlineto
          -36 -6 -9 -35 vhcurveto
          -289 hlineto
          -38 -12 13 44 20 -6 18 -25 -40 callsubr
          hvcurveto
          303 hlineto
          77 19 38 85 hvcurveto
          -268 144 rmoveto
          -128 -47 callgsubr
          81 callsubr
          129 vhcurveto
          29 hlineto
          143 33 -83 -83 hvcurveto
          -171 vlineto
          endchar
        </CharString>
        <CharString name="gdotaccent">
          59 25 callsubr
          337 62 58 92 hstem
          62 62 137 112 131 62 vstem
          373 565 rmoveto
          28 -35 18 -21 -22 -34 -18 -28 -28 32 -18 24 22 34 -35 callsubr
          193 -647 rmoveto
          512 40 callsubr
          -19 67 callgsubr
          -23 vlineto
          38 -41 -64 18 -71 hhcurveto
          -29 hlineto
          -152 -71 callgsubr
          -74 callsubr
          151 vhcurveto
          206 -98 hlineto
          -36 -6 -9 -35 vhcurveto
          -289 hlineto
          -38 -12 13 44 20 -6 18 -25 -40 callsubr
          hvcurveto
          303 hlineto
          77 19 38 85 hvcurveto
          -268 144 rmoveto
          -128 -47 callgsubr
          81 callsubr
          129 vhcurveto
          29 hlineto
          143 33 -83 -83 hvcurveto
          -171 vlineto
          endchar
        </CharString>
        <CharString name="gecyrillic">
          -82 52 callgsubr
          73 62 vstem
          185 399 rmoveto
          257 hlineto
          20 20 6 25 25 -20 6 -20 hvcurveto
          -264 hlineto
          1 callgsubr
          endchar
        </CharString>
        <CharString name="germandbls">
          -97 -20 62 -28 -21 354 59 168 62 hstemhm
          32 93 -62 62 27 70 94 62 6 1 callsubr
          hintmask 1011011110000000
          164 347 rmoveto
          187 33 -89 -59 -134 -51 -23 -36 -32 -43 11 45 28 -14 11 -21 -14 -21 -6 -35 -81 81 -35 55 64 94 35 182 82 -38 72 -98 31 hvcurveto
          42 30 26 45 58 vvcurveto
          58 -43 63 -100 -85 -82 -26 -149 -5 vhcurveto
          hintmask 0111101110000000
          -15 -2 -16 -6 -20 vvcurveto
          hintmask 0111011110000000
          -23 16 -7 15 -1 vhcurveto
          -369 vlineto
          -21 6 -19 23 20 13 11 30 vhcurveto
          427 vlineto
          104 39 9 71 52 29 -23 -34 -89 -72 -22 -80 vhcurveto
          endchar
        </CharString>
        <CharString name="gheupturncyrillic">
          -77 52 callgsubr
          73 62 285 62 vstem
          185 399 rmoveto
          297 134 hlineto
          33 -18 7 -12 -18 -14 -12 -28 vhcurveto
          -72 -242 vlineto
          1 callgsubr
          endchar
        </CharString>
        <CharString name="gjecyrillic">
          -82 45 callsubr
          59 callsubr
          73 62 106 165 vstem
          185 399 rmoveto
          257 hlineto
          20 20 6 25 25 -20 6 -20 hvcurveto
          -264 hlineto
          1 callgsubr
          115 118 -103 callgsubr
          endchar
        </CharString>
        <CharString name="grave">
          -370 500 188 hstem
          24 165 vstem
          83 -21 callgsubr
          endchar
        </CharString>
        <CharString name="gravecomb">
          500 141 hstem
          -380 142 vstem
          -321 626 -99 callsubr
          endchar
        </CharString>
        <CharString name="greater">
          -43 122 92 rmoveto
          364 210 rlineto
          16 10 4 14 7 vvcurveto
          12 -7 9 -13 8 vhcurveto
          -364 210 rlineto
          5 -9 -7 2 -7 hhcurveto
          -17 -13 -11 -17 -14 13 -13 9 -5 hvcurveto
          323 -186 -322 -188 rlineto
          -15 -9 -8 -8 -12 vvcurveto
          -6 6 -26 23 7 8 2 6 9 vhcurveto
          endchar
        </CharString>
        <CharString name="greaterequal">
          -15 0 63 24 63 202 64 hstem
          380 251 rmoveto
          -279 -101 rlineto
          -15 -6 -12 -11 -16 vvcurveto
          -14 8 -16 23 4 7 1 2 7 vhcurveto
          356 129 rlineto
          6 3 18 10 19 vvcurveto
          13 -8 14 -16 6 vhcurveto
          -355 129 rlineto
          1 -6 -6 2 -7 hhcurveto
          -19 -13 -15 -16 -13 10 -13 18 -7 hvcurveto
          402 -319 rmoveto
          12 -6 18 -30 vhcurveto
          -355 hlineto
          -24 -15 -12 -21 -19 18 -11 21 hvcurveto
          355 hlineto
          18 18 8 25 hvcurveto
          endchar
        </CharString>
        <CharString name="guillemotleft">
          -73 34 253 -99 253 hintmask 00000000
          hintmask 01000000
          390 531 rmoveto
          -54 callgsubr
          hintmask 10000000
          -154 hmoveto
          -54 callgsubr
          endchar
        </CharString>
        <CharString name="guillemotright">
          -73 68 253 -99 253 hintmask 00000000
          hintmask 01000000
          273 531 -53 callgsubr
          hintmask 10000000
          -336 169 -53 callgsubr
          endchar
        </CharString>
        <CharString name="guilsinglleft">
          -227 34 253 vstem
          236 531 rmoveto
          -54 callgsubr
          endchar
        </CharString>
        <CharString name="guilsinglright">
          -227 68 253 vstem
          119 531 -53 callgsubr
          endchar
        </CharString>
        <CharString name="h">
          66 14 -21 406 86 callsubr
          313 399 -21 callsubr
        </CharString>
        <CharString name="hakayahli">
          30 50 callsubr
          357 62 hstem
          73 62 79 62 199 62 vstem
          185 52 rmoveto
          40 callgsubr
          49 vlineto
          61 40 80 69 72 vvcurveto
          135 -203 -347 39 callgsubr
          113 hlineto
          184 243 rlineto
          -321 vlineto
          -40 -10 -15 62 callgsubr
          65 47 13 121 vhcurveto
          507 vlineto
          35 -18 7 -12 -19 -13 -12 -30 vhcurveto
          -103 vlineto
          -211 -281 rlineto
          -129 357 rmoveto
          79 -73 hlineto
          -29 -41 -54 -38 -25 vhcurveto
          endchar
        </CharString>
        <CharString name="hardsigncyrillic">
          36 -1 callgsubr
          158 62 301 62 vstem
          394 62 rmoveto
          -174 145 174 hlineto
          44 callsubr
          -236 -62 rmoveto
          243 hlineto
          94 88 28 106 109 -109 26 -77 hvcurveto
          -177 192 79 callgsubr
          91 hlineto
          endchar
        </CharString>
        <CharString name="hbar">
          66 45 callsubr
          34 63 65 20 hstem
          75 26 callgsubr
          75 495 rmoveto
          -464 5 callgsubr
          109 57 60 119 vhcurveto
          -81 callsubr
          -251 vlineto
          -33 19 -5 13 24 6 18 20 vhcurveto
          253 vlineto
          149 -39 callgsubr
          -29 hlineto
          -69 -64 -18 -38 -43 hvcurveto
          90 216 vlineto
          28 19 12 18 13 -9 20 -38 hvcurveto
          -216 44 hlineto
          -28 callgsubr
          -44 vlineto
          -28 -19 -12 -18 -13 9 -20 38 hvcurveto
          endchar
        </CharString>
        <CharString name="hcircumflex">
          66 45 callsubr
          162 20 5 173 hstem
          75 62 38 293 49 62 vstem
          182 697 -107 callgsubr
          24 -422 -21 callsubr
        </CharString>
        <CharString name="hookabovecomb">
          603 52 hstemhm
          -355 -17 callsubr
          hintmask 00000000
          hintmask 11010000
          -303 592 -74 callgsubr
          hintmask 10100000
          -85 callgsubr
          hintmask 11010000
          -99 callgsubr
          endchar
        </CharString>
        <CharString name="htakayahli">
          -55 callsubr
        </CharString>
        <CharString name="hungarumlaut">
          -229 500 188 hstemhm
          24 165 -25 165 hintmask 00000000
          hintmask 11000000
          83 -83 callgsubr
          hintmask 10100000
          140 hmoveto
          -105 callsubr
          endchar
        </CharString>
        <CharString name="hyphen">
          -116 199 63 hstem
          73 320 vstem
          109 262 -84 callgsubr
          endchar
        </CharString>
        <CharString name="i">
          -374 555 92 hstemhm
          48 62 callsubr
          hintmask 00100000
          73 20 rmoveto
          -31 -45 callsubr
          18 vhcurveto
          420 vlineto
          32 -19 6 -12 -12 -19 -6 -32 vhcurveto
          hintmask 11000000
          87 161 rmoveto
          28 -34 18 -22 -24 -32 -18 -28 -28 34 -18 22 21 35 -35 callsubr
          endchar
        </CharString>
        <CharString name="iacute">
          -374 500 188 hstemhm
          73 62 -62 165 hintmask 00000000
          hintmask 01000000
          73 20 rmoveto
          -31 -45 callsubr
          18 vhcurveto
          420 vlineto
          32 -19 6 -12 -12 -19 -6 -32 vhcurveto
          hintmask 10100000
          59 77 -103 callgsubr
          endchar
        </CharString>
        <CharString name="iacyrillic">
          -9 -8 62 140 60 155 52 hstem
          83 62 291 62 vstem
          277 409 rmoveto
          159 -155 -159 hlineto
          -93 -39 16 61 54 31 24 101 hvcurveto
          -96 -204 rmoveto
          -22 -21 -16 -26 -8 -29 -4 -14 rcurveline
          -17 -5 -25 -44 86 callgsubr
          50 51 74 21 hvcurveto
          53 15 21 24 77 hhcurveto
          127 -166 hlineto
          -16 6 -19 26 16 14 10 25 vhcurveto
          394 vlineto
          15 -3 24 -26 vhcurveto
          -159 hlineto
          -148 -79 -21 -116 -62 22 -39 76 -18 hvcurveto
          endchar
        </CharString>
        <CharString name="icircumflex">
          -374 524 173 hstemhm
          -42 293 -178 -36 callsubr
          hintmask 00100000
          73 20 rmoveto
          -31 -45 callsubr
          18 vhcurveto
          420 vlineto
          32 -19 6 -12 -12 -19 -6 -32 vhcurveto
          hintmask 11000000
          -108 133 -107 callgsubr
          endchar
        </CharString>
        <CharString name="icyrillic">
          -374 555 92 hstemhm
          48 62 callsubr
          hintmask 00100000
          73 20 rmoveto
          -31 -45 callsubr
          18 vhcurveto
          420 vlineto
          32 -19 6 -12 -12 -19 -6 -32 vhcurveto
          hintmask 11000000
          87 161 rmoveto
          28 -34 18 -22 -24 -32 -18 -28 -28 34 -18 22 21 35 -35 callsubr
          endchar
        </CharString>
        <CharString name="idieresis">
          -374 519 92 hstemhm
          -25 112 -14 62 -14 112 hintmask 00000000
          hintmask 00100000
          73 20 rmoveto
          -31 -45 callsubr
          18 vhcurveto
          420 vlineto
          32 -19 6 -12 -12 -19 -6 -32 vhcurveto
          hintmask 11010000
          14 125 rmoveto
          28 -35 18 -21 -22 -34 -18 -28 -28 32 -18 24 22 34 -35 callsubr
          146 hmoveto
          44 callgsubr
        </CharString>
        <CharString name="iecyrillic">
          -20 callsubr
          hstem
          62 26 callgsubr
          566 284 -106 callgsubr
          endchar
        </CharString>
        <CharString name="igrave">
          -374 501 188 hstemhm
          -30 165 -62 -36 callsubr
          hintmask 00100000
          73 20 rmoveto
          -31 -45 callsubr
          18 vhcurveto
          420 vlineto
          32 -19 6 -12 -12 -19 -6 -32 vhcurveto
          hintmask 11000000
          -44 232 -95 callgsubr
          endchar
        </CharString>
        <CharString name="iicyrillic">
          42 21 -21 461 -20 hstem
          75 62 350 -34 callgsubr
          endchar
        </CharString>
        <CharString name="iicyrillic_grave">
          42 0 14 427 20 59 callsubr
          75 62 65 165 120 -34 callgsubr
          -288 639 -95 callgsubr
          endchar
        </CharString>
        <CharString name="iishortcyrillic">
          42 0 14 427 20 41 62 hstem
          75 62 21 6 callgsubr
          20 -34 callgsubr
          -178 470 -60 callsubr
          endchar
        </CharString>
        <CharString name="ikayahli">
          11 -10 62 218 62 77 62 hstem
          63 -13 callsubr
          527 337 rmoveto
          -27 callsubr
          hvcurveto
          -67 134 vlineto
          29 12 13 20 12 -5 17 -36 hvcurveto
          -72 22 hlineto
          5 callsubr
          -4 vlineto
          -402 -201 rlineto
          -25 vlineto
          17 callgsubr
          -62 159 rmoveto
          -177 vlineto
          -54 callsubr
          7 vlineto
          endchar
        </CharString>
        <CharString name="imacron">
          -374 539 63 hstemhm
          -56 320 -191 -36 callsubr
          hintmask 11000000
          -20 602 -84 callgsubr
          hintmask 00100000
          -152 -582 rmoveto
          -31 -45 callsubr
          18 vhcurveto
          420 vlineto
          32 -19 6 -12 -12 -19 -6 -32 vhcurveto
          endchar
        </CharString>
        <CharString name="infinity">
          319 150 62 214 62 hstem
          58 62 661 62 vstem
          450 362 rmoveto
          81 -86 -59 45 -70 hhcurveto
          -79 -98 -66 -105 -97 98 -70 81 69 60 46 80 85 hvcurveto
          -81 86 59 -45 70 hhcurveto
          79 98 66 105 97 -98 70 -81 -69 -60 -46 -80 -85 hvcurveto
          -209 64 rmoveto
          33 50 -26 -81 83 hvcurveto
          -68 -70 -55 -39 -41 hhcurveto
          -66 -55 54 54 54 55 52 66 hvcurveto
          419 -215 rmoveto
          -41 -55 39 69 -70 hvcurveto
          81 84 49 25 33 hhcurveto
          66 55 -53 -54 -54 -55 -53 -66 hvcurveto
          endchar
        </CharString>
        <CharString name="integral">
          -240 -205 62 839 62 hstem
          140 62 vstem
          11 -173 rmoveto
          -26 19 -6 22 102 48 23 136 vhcurveto
          619 vlineto
          117 5 6 83 36 5 18 12 26 -19 6 -22 -102 -48 -23 -136 vhcurveto
          -619 vlineto
          -117 -5 -6 -83 -36 -5 -18 -12 vhcurveto
          endchar
        </CharString>
        <CharString name="iocyrillic">
          -20 callsubr
          51 92 hstem
          62 62 62 11 callsubr
          60 62 vstem
          566 284 -106 callgsubr
          -2 159 rmoveto
          28 -35 18 -21 -22 -34 -18 -28 -28 32 -18 24 22 34 -35 callsubr
          146 hmoveto
          44 callgsubr
        </CharString>
        <CharString name="iogonek">
          -368 -206 60 701 92 hstemhm
          4 62 -13 112 -87 88 callsubr
          165 601 rmoveto
          28 -34 18 -22 -24 -32 -18 -28 -28 34 -18 22 21 35 -35 callsubr
          -51 -618 rmoveto
          hintmask 11101000
          21 3 5 17 17 vvcurveto
          420 vlineto
          32 -19 6 -12 -12 -19 -6 -32 vhcurveto
          -408 vlineto
          -31 -33 -43 -58 -38 -71 callsubr
          8 14 42 34 30 hvcurveto
          endchar
        </CharString>
        <CharString name="iota">
          -343 82 callgsubr
          71 62 vstem
          183 hmoveto
          -38 callgsubr
          endchar
        </CharString>
        <CharString name="iotadieresis">
          -343 28 callgsubr
          61 92 hstemhm
          -27 112 -14 62 -14 112 hintmask 00000000
          hintmask 00110100
          85 41 callgsubr
          146 -93 callsubr
          hintmask 11001000
          -48 -575 rmoveto
          -38 callgsubr
          endchar
        </CharString>
        <CharString name="iotadieresistonos">
          -343 28 callgsubr
          32 92 15 214 hstemhm
          -27 112 -14 62 -55 63 -22 112 -100 1 callsubr
          hintmask 1100010000000000
          183 hmoveto
          -38 callgsubr
          hintmask 0001000010000000
          -12 821 -62 callsubr
          hintmask 0001001000000000
          -85 callsubr
          hintmask 0001000010000000
          -61 callgsubr
          hintmask 0010100100000000
          -79 -275 rmoveto
          28 -35 18 -21 -22 -34 -18 -28 -28 32 -18 24 22 34 -35 callsubr
          146 hmoveto
          44 callgsubr
        </CharString>
        <CharString name="iotatonos">
          -343 28 callgsubr
          65 214 hstemhm
          71 62 -57 63 -10 -36 callsubr
          hintmask 00100100
          162 747 -76 callgsubr
          hintmask 11010000
          21 -747 rmoveto
          -38 callgsubr
          endchar
        </CharString>
        <CharString name="itilde">
          -374 539 2 callgsubr
          -42 291 -176 -36 callsubr
          hintmask 01100000
          150 608 -86 callgsubr
          hintmask 00010000
          -77 -588 rmoveto
          -31 -45 callsubr
          18 vhcurveto
          420 vlineto
          32 -19 6 -12 -12 -19 -6 -32 vhcurveto
          endchar
        </CharString>
        <CharString name="iucyrillic">
          127 -1 callgsubr
          75 62 56 64 328 62 vstem
          137 28 rmoveto
          179 56 -30 vlineto
          -150 90 -27 141 138 85 28 149 vhcurveto
          107 vlineto
          149 -85 28 -138 -141 -90 -27 -149 vhcurveto
          -16 -56 163 vlineto
          29 -17 7 -14 -14 -17 -7 -29 vhcurveto
          -404 vlineto
          -29 34 callsubr
          287 34 rmoveto
          -118 -49 10 107 hvcurveto
          103 vlineto
          107 49 10 118 115 46 -10 -107 vhcurveto
          -103 vlineto
          -107 -46 -10 -115 vhcurveto
          endchar
        </CharString>
        <CharString name="j">
          -370 -175 62 561 20 87 92 hstemhm
          50 48 callsubr
          162 601 rmoveto
          28 -34 18 -22 -24 -32 -18 -28 -28 34 -18 22 21 35 -35 callsubr
          hintmask 11001000
          -25 -601 rmoveto
          -48 callsubr
        </CharString>
        <CharString name="jcircumflex">
          -370 -175 62 561 20 56 173 hstemhm
          -38 293 -180 -36 callsubr
          hintmask 00110000
          -31 573 -107 callgsubr
          hintmask 11001000
          61 -697 rmoveto
          -48 callsubr
        </CharString>
        <CharString name="jecyrillic">
          -370 -175 62 561 20 87 92 hstemhm
          50 48 callsubr
          162 601 rmoveto
          28 -34 18 -22 -24 -32 -18 -28 -28 34 -18 22 21 35 -35 callsubr
          hintmask 11001000
          -25 -601 rmoveto
          -48 callsubr
        </CharString>
        <CharString name="k">
          -106 14 -21 473 -20 197 -20 hstem
          75 62 vstem
          462 23 rmoveto
          11 -6 11 -6 5 vhcurveto
          -245 214 171 146 rlineto
          6 5 8 10 11 vvcurveto
          18 -16 12 -14 -11 -11 -7 -6 -6 vhcurveto
          -195 -177 rlineto
          329 vlineto
          32 -19 6 -12 -12 -19 -6 -32 vhcurveto
          -577 vlineto
          -29 -35 callgsubr
          15 17 7 30 vhcurveto
          179 vlineto
          24 24 244 -226 rlineto
          -6 7 10 -7 11 hhcurveto
          17 12 16 13 hvcurveto
          endchar
        </CharString>
        <CharString name="kacyrillic">
          3 -7 62 145 56 callgsubr
          hstem
          75 62 254 64 cntrmask 11100000
          -37 callsubr
          endchar
        </CharString>
        <CharString name="kakayahli">
          15 -10 62 363 62 hstemhm
          60 62 62 62 133 145 -62 -36 callsubr
          hintmask 11110100
          246 -10 rmoveto
          288 vlineto
          88 131 rlineto
          78 hlineto
          40 10 -15 -40 hvcurveto
          -302 -43 vlineto
          hintmask 11111000
          -35 -5 -18 -12 -26 17 -6 23 hvcurveto
          hintmask 11110100
          105 74 callgsubr
          -114 hlineto
          -60 -88 rlineto
          81 -5 -50 13 -34 hhcurveto
          -82 -14 -41 -75 -34 -63 callsubr
          17 23 43 7 11 27 17 11 -10 -38 hvcurveto
          -74 vlineto
          -62 -91 rlineto
          -45 -66 -17 -21 -62 vvcurveto
          -63 vlineto
          124 197 rmoveto
          -135 -62 vlineto
          25 0 18 12 18 vhcurveto
          endchar
        </CharString>
        <CharString name="kappa">
          -103 14 -21 475 -20 -30 callgsubr
        </CharString>
        <CharString name="kcommaaccent">
          -106 -161 161 -7 22 431 20 157 20 hstemhm
          75 62 71 27 callsubr
          hintmask 10000010
          305 -51 -45 callgsubr
          hintmask 10000100
          -76 callsubr
          hintmask 10000010
          -68 callsubr
          hintmask 10000100
          -26 callsubr
          hintmask 01111000
          197 157 rmoveto
          11 -6 11 -6 5 vhcurveto
          -245 214 171 146 rlineto
          6 5 8 10 11 vvcurveto
          18 -16 12 -14 -11 -11 -7 -6 -6 vhcurveto
          -195 -177 rlineto
          329 vlineto
          32 -19 6 -12 -12 -19 -6 -32 vhcurveto
          -577 vlineto
          -29 -35 callgsubr
          15 17 7 30 vhcurveto
          179 vlineto
          24 24 244 -226 rlineto
          -6 7 10 -7 11 hhcurveto
          17 12 16 13 hvcurveto
          endchar
        </CharString>
        <CharString name="kgreenlandic">
          -103 -7 21 434 20 -30 callgsubr
        </CharString>
        <CharString name="khacyrillic">
          -46 452 20 -50 callgsubr
        </CharString>
        <CharString name="khakayahli">
          12 -10 62 76 62 50 62 107 62 hstem
          64 -13 callsubr
          198 128 rmoveto
          34 7 18 12 26 -20 6 -21 hvcurveto
          -134 -66 hlineto
          17 callgsubr
          213 vlineto
          -27 callsubr
          hvcurveto
          -97 402 -134 vlineto
          -54 callsubr
          22 vlineto
          340 226 rmoveto
          -52 -340 52 vlineto
          5 callsubr
          endchar
        </CharString>
        <CharString name="kjecyrillic">
          3 -7 62 145 56 callgsubr
          31 188 hstemhm
          75 62 94 165 -5 64 hintmask 00000000
          hintmask 11101010
          -37 callsubr
          hintmask 00010100
          153 317 -103 callgsubr
          endchar
        </CharString>
        <CharString name="l">
          -299 0 62 581 -20 hstem
          91 62 vstem
          203 hmoveto
          -42 callsubr
        </CharString>
        <CharString name="lacute">
          -299 0 62 561 20 35 141 hstemhm
          81 142 -132 -36 callsubr
          hintmask 00110000
          164 -82 callsubr
          hintmask 11001000
          39 -804 rmoveto
          -42 callsubr
        </CharString>
        <CharString name="lakayahli">
          21 -205 62 44 62 27 62 357 62 hstem
          66 62 140 62 138 62 vstem
          268 354 rmoveto
          -230 vlineto
          -101 63 -33 69 vhcurveto
          25 hlineto
          16 15 4 4 12 hvcurveto
          -86 vlineto
          -40 -10 -15 20 callsubr
          -37 -13 18 26 hvcurveto
          72 hlineto
          34 7 18 12 23 -15 9 -26 hvcurveto
          -134 -40 hlineto
          -93 21 -35 -2 callsubr
          40 94 hvcurveto
          406 vlineto
          120 -40 16 -72 -35 -6 -20 -13 -23 18 -6 23 40 10 -15 -40 vhcurveto
          -248 vlineto
          76 callsubr
          -18 hlineto
          -39 -31 26 28 hvcurveto
          231 vlineto
          101 -64 33 -68 vhcurveto
          -27 hlineto
          42 callsubr
          hvcurveto
          -213 vlineto
          -119 40 -15 72 31 10 12 18 26 -19 6 -22 -40 -10 13 41 vhcurveto
          24 callgsubr
          20 hlineto
          38 32 -26 -29 hvcurveto
          endchar
        </CharString>
        <CharString name="lambda">
          17 -6 63 517 63 hstem
          27 62 vstem
          423 75 rmoveto
          53 callsubr
          33 -16 hvcurveto
          -210 445 rlineto
          50 -24 -50 31 -52 hhcurveto
          73 callgsubr
          27 33 -21 -35 15 hvcurveto
          21 -49 -205 -435 rlineto
          -2 -6 -1 -2 -6 vvcurveto
          -16 15 -11 14 13 12 6 18 8 vhcurveto
          183 394 rlineto
          endchar
        </CharString>
        <CharString name="lcaron">
          -299 0 62 430 161 -30 20 hstemhm
          91 62 40 27 callsubr
          hintmask 01000100
          290 602 -45 callgsubr
          hintmask 01001000
          -76 callsubr
          hintmask 01000100
          -68 callsubr
          hintmask 01001000
          -26 callsubr
          hintmask 10110000
          -47 -519 rmoveto
          -42 callsubr
        </CharString>
        <CharString name="lcommaaccent">
          -299 99 callgsubr
          91 57 -57 62 -62 103 hintmask 00000000
          hintmask 10000100
          188 -95 rmoveto
          5 8 1 7 6 vvcurveto
          hintmask 10010000
          -59 callgsubr
          hintmask 10010000
          15 8 13 14 7 hvcurveto
          hintmask 01101000
          55 178 rmoveto
          -42 callsubr
        </CharString>
        <CharString name="less">
          -43 417 92 rmoveto
          -6 9 8 -2 7 hhcurveto
          23 6 26 6 12 -8 8 -15 9 hvcurveto
          -322 188 323 186 rlineto
          9 5 13 13 14 vvcurveto
          17 -13 11 -17 -7 -7 -2 -5 -9 vhcurveto
          -364 -210 rlineto
          -13 -8 -7 -9 -12 vvcurveto
          -7 4 -14 16 -10 vhcurveto
          endchar
        </CharString>
        <CharString name="lessequal">
          -15 0 63 24 63 202 64 hstem
          462 87 rmoveto
          23 8 16 14 16 -12 11 -15 6 hvcurveto
          -279 101 279 101 rlineto
          18 7 10 13 13 vvcurveto
          16 -13 15 -19 -8 -6 -2 -1 -4 vhcurveto
          -356 -129 rlineto
          -16 -7 -8 -13 -13 vvcurveto
          -19 14 -9 10 -4 vhcurveto
          356 -129 rlineto
          -2 7 7 -1 4 hhcurveto
          -7 -87 rmoveto
          21 18 11 19 21 -15 12 -24 hvcurveto
          -355 96 callsubr
          endchar
        </CharString>
        <CharString name="ljecyrillic">
          203 -1 callgsubr
          122 64 228 62 211 62 vstem
          560 207 rmoveto
          44 callsubr
          -84 145 hlineto
          62 vmoveto
          192 -229 vlineto
          -102 -23 -36 -92 hvcurveto
          -219 72 callgsubr
          61 53 12 116 vhcurveto
          5 218 rlineto
          39 13 14 50 vhcurveto
          160 -399 153 hlineto
          94 88 28 106 108 -89 27 -79 hvcurveto
          endchar
        </CharString>
        <CharString name="logicalnot">
          -51 199 63 hstem
          389 63 vstem
          419 103 rmoveto
          21 12 14 24 hvcurveto
          84 vlineto
          28 -16 9 -23 vhcurveto
          -298 hlineto
          -28 -8 -18 -13 -16 9 -16 27 hvcurveto
          274 -58 hlineto
          -23 12 -15 18 vhcurveto
          endchar
        </CharString>
</ttFont>
